<svg width="31" height="36" viewBox="0 0 31 36" fill="none" xmlns="http://www.w3.org/2000/svg">
<path d="M15.5032 25.8272C15.5032 25.8272 9.29505 24.9697 8.26608 17.2181C8.26608 17.2181 8.67766 16.2577 8.74626 16.8408C9.15784 19.8248 10.7013 24.0779 15.6404 25.3127L15.5032 25.8272ZM13.1708 27.988L12.5878 27.5764C12.5878 27.5764 13.8225 26.2388 13.308 24.7982L14.0283 25.2098C14.0283 25.1755 14.1998 26.7876 13.1708 27.988ZM18.693 27.5764L18.1099 27.7822C17.0809 26.5818 17.2524 25.1755 17.2524 25.1755L17.9727 24.7639C17.4582 26.2388 18.693 27.5764 18.693 27.5764ZM15.5032 25.8272V25.3127C20.4422 24.0779 21.8485 19.8248 22.2601 16.8408C22.3287 16.2577 22.7403 17.2181 22.7403 17.2181C21.7113 24.9697 15.5032 25.8272 15.5032 25.8272ZM7.99169 18.1785C7.40861 18.8988 6.96271 19.5848 6.65402 20.2021C8.23178 24.5238 12.2791 28.5711 14.6114 32.4812C13.8568 30.5262 12.6564 28.1252 11.4559 25.6557C10.1868 23.1518 8.91777 20.5451 7.99169 18.1785ZM10.8385 14.4399C11.9018 13.4795 12.965 12.4848 13.9254 10.9414C13.0336 11.7989 12.039 12.2105 11.0443 12.5878C9.77523 13.1022 8.40326 13.7196 7.37429 14.8172C7.54579 15.5375 7.82019 16.3263 8.12888 17.1838C8.95205 16.1549 9.87814 15.2974 10.8385 14.4399ZM14.1312 9.84383C13.0679 10.4612 11.8332 10.3583 10.667 10.2211C9.36365 10.0839 8.09457 9.94672 7.37429 11.0786C6.92841 11.7646 6.89412 12.8621 7.16851 14.1655C8.26608 13.1022 9.56944 12.4848 10.8728 11.9704C12.039 11.5245 13.1708 11.0786 14.1312 9.84383ZM15.2288 7.82018C14.1655 7.54579 12.6907 8.67766 11.9704 9.67233C12.9993 9.60374 14.4742 9.19214 15.2288 7.82018ZM6.41392 19.5162C6.75692 18.8988 7.20281 18.2471 7.7516 17.5954C7.4429 16.7722 7.16851 15.9834 6.99701 15.2631C6.07094 16.5321 5.96804 17.9384 6.41392 19.5162ZM6.44824 25.2441C7.34001 26.8562 9.05495 28.2624 10.8042 29.6344C11.8675 30.4575 12.9308 31.315 13.8225 32.2411C11.4902 28.6397 7.95738 24.9354 6.34532 20.8538C5.62504 22.6031 5.76226 24.0093 6.44824 25.2441ZM15.2631 35.1565C14.0626 32.5841 10.7699 30.4575 8.78057 28.7426C9.77524 32.3783 12.3477 34.9507 15.2631 35.1565ZM12.9651 27.645C12.9651 27.645 15.1945 32.4126 15.6747 34.1961V35.8425C12.1762 35.8425 9.05495 32.687 8.12888 28.1938C7.2714 27.4049 6.55113 26.5475 6.03664 25.6214C5.21347 24.0779 5.04196 22.3287 6.07093 20.1678C5.38495 18.1099 5.45356 16.1548 6.79123 14.5771C6.41394 12.9307 6.44822 11.5588 7.0313 10.6327C7.33999 10.1525 7.71729 9.84383 8.12888 9.67233C9.60374 9.22645 11.3873 9.63803 11.3873 9.63803C11.3873 9.63803 12.5191 7.0999 15.6061 7.0313L15.6404 8.26607C15.6404 8.26607 14.5428 10.9071 13.9254 11.8675C13.9254 11.8675 13.6853 12.4163 13.5481 12.382C12.6906 13.5138 10.7013 15.2631 10.7013 15.2631L10.2554 15.6747C10.2554 15.6747 8.91775 16.978 8.30037 17.7326C9.56944 20.9224 12.6564 27.0276 12.6564 27.0276L12.9651 27.645ZM8.23177 31.6923C6.61971 31.6923 5.11056 30.972 4.01299 29.8059C2.94972 28.6397 2.26375 27.0619 2.26375 25.2441C2.26375 23.2205 2.81252 21.2311 3.6014 19.379C4.39028 17.5268 5.45355 16.292 6.51682 14.7829C6.61971 14.6457 6.72262 14.4742 6.82552 14.337L7.09991 14.9201C7.03131 14.9887 6.99702 15.0573 6.96272 15.1259C5.93375 16.635 4.90476 17.8355 4.11588 19.6191C3.32701 21.4026 2.81253 23.3234 2.81253 25.2441C2.81253 26.8905 3.42992 28.331 4.39029 29.3943C5.38497 30.4576 6.75691 31.1092 8.23177 31.1092C8.88345 31.1092 8.88345 31.1435 9.43224 30.972L9.56944 31.5551C8.95206 31.7266 8.91775 31.6923 8.23177 31.6923ZM13.5481 6.48252C12.8621 7.27139 12.1419 8.06027 11.4559 8.84915C11.1472 9.19214 10.8385 9.56943 10.5298 9.91242L9.84383 9.87812C10.2554 9.39793 10.667 8.91775 11.0786 8.43757C11.7646 7.64869 12.4506 6.85981 13.1708 6.07093C13.8568 5.28206 14.5771 4.49317 15.2974 3.73859L15.4689 3.5328V4.35598C15.4689 4.35598 14.1655 5.76224 13.5481 6.48252ZM8.23177 29.1885C7.2371 29.1885 6.31103 28.7426 5.62505 28.0223C4.97337 27.3363 4.52748 26.3417 4.52748 25.2441C4.52748 23.5634 5.24776 21.8142 5.96804 20.2021L6.44824 20.5794C5.76226 22.1229 5.04196 23.6663 5.04196 25.2784C5.04196 26.2045 5.38496 27.0276 5.96804 27.645C6.55112 28.2624 7.37429 28.6397 8.23177 28.6397C8.30037 28.6397 8.33468 28.6397 8.36897 28.6397L8.47187 29.1199C8.09458 29.1542 8.60906 29.1885 8.23177 29.1885ZM8.36897 28.5711L8.33468 28.4682C8.33468 28.4682 8.50617 28.5368 8.36897 28.5711ZM15.1602 1.16617L15.0573 1.26907C13.308 3.18982 11.5245 5.11056 9.84383 7.09991C9.02065 8.06028 8.19747 9.02065 7.4429 10.0153C6.65402 11.01 5.89945 12.039 5.17917 13.0679C3.9787 14.8172 2.81253 16.7379 1.95505 18.7959C1.09757 20.8195 0.548797 23.0147 0.548797 25.2441C0.548797 27.5764 1.40627 29.6687 2.77823 31.1435C4.1845 32.687 6.10524 33.6131 8.19748 33.6131C9.22645 33.6131 10.9071 33.1672 10.9071 33.1672L11.0786 33.7503C11.0786 33.7503 9.29505 34.2304 8.19748 34.2304C5.96804 34.2304 3.87579 33.2358 2.40093 31.5894C0.926074 29.9774 0 27.7479 0 25.2441C0 22.9118 0.5831 20.6823 1.47488 18.5558C2.36665 16.4635 3.53282 14.4742 4.73328 12.7249C5.45356 11.6617 6.20813 10.6327 7.0313 9.63803C7.82018 8.64336 8.64337 7.64869 9.46655 6.68831C11.1815 4.69897 12.9307 2.77822 14.7143 0.823175L14.8172 0.720282L15.2974 0.205796L15.4689 0V0.823175L15.1602 1.16617ZM24.0779 15.2631C23.8721 16.0177 23.632 16.7722 23.3233 17.5954C23.8721 18.2814 24.318 18.8988 24.661 19.5162C25.0726 17.9384 24.9697 16.5321 24.0779 15.2631ZM23.632 11.0443C22.9118 9.91243 21.6427 10.0496 20.3393 10.1868C19.1732 10.324 17.9727 10.4612 16.8751 9.80953C17.8355 11.0443 19.0017 11.4902 20.1335 11.9361C21.4369 12.4505 22.7403 13.0336 23.8378 14.1312C24.1122 12.8278 24.0779 11.7646 23.632 11.0443ZM15.8119 7.82018C16.5321 9.19214 18.0413 9.60374 19.0703 9.67233C18.35 8.67766 16.8751 7.54579 15.8119 7.82018ZM20.2021 14.4399C21.1625 15.2974 22.0543 16.1549 22.9118 17.1838C23.2205 16.3606 23.4948 15.5718 23.6663 14.8172C22.6374 13.6853 21.2654 13.0679 19.9964 12.5878C19.0017 12.2105 18.007 11.7989 17.1152 10.9414C18.0756 12.4848 19.1389 13.4795 20.2021 14.4399ZM19.6191 25.69C18.4186 28.1595 17.2181 30.5261 16.4635 32.5155C18.8302 28.6054 22.8775 24.5581 24.4209 20.2364C24.0779 19.6191 23.6664 18.9331 23.0833 18.2128C22.1229 20.5451 20.8538 23.1519 19.6191 25.69ZM22.2601 28.7426C20.2707 30.4575 16.9437 32.5841 15.7776 35.1565C18.693 34.9507 21.2654 32.3783 22.2601 28.7426ZM24.5924 25.2441C25.2441 24.0093 25.4156 22.6031 24.6953 20.8538C23.0833 24.9354 19.5505 28.6054 17.2181 32.2411C18.1099 31.315 19.1732 30.4918 20.2364 29.6344C21.9857 28.2281 23.7349 26.8562 24.5924 25.2441ZM24.9697 20.1678C25.9987 22.3287 25.8272 24.0779 25.004 25.6214C24.4895 26.5475 23.7693 27.3706 22.9118 28.1938C21.9857 32.687 18.8988 35.8425 15.366 35.8425V34.1961C15.8462 32.4469 18.0756 27.645 18.0756 27.645L18.3843 27.0276C18.3843 27.0276 21.4712 20.9567 22.7403 17.7326C22.1229 17.0123 20.7852 15.6747 20.7852 15.6747L20.3393 15.2631C20.3393 15.2631 18.3843 13.5138 17.4925 12.382C17.3553 12.382 17.1152 11.8675 17.1152 11.8675C16.4635 10.9414 15.4003 8.26607 15.4003 8.26607L15.4346 7.0313C18.5558 7.0999 19.6534 9.63803 19.6534 9.63803C19.6534 9.63803 21.4369 9.22645 22.9118 9.67233C23.3234 9.84383 23.7006 10.1525 24.0093 10.6327C24.5924 11.5588 24.6267 12.8964 24.2494 14.5771C25.5528 16.1548 25.6557 18.0756 24.9697 20.1678ZM17.2867 6.48252C16.635 5.76224 15.366 4.35598 15.366 4.35598V3.5328L15.5375 3.73859C16.2578 4.52747 16.9437 5.28206 17.664 6.07093C18.35 6.85981 20.1679 8.95205 20.8538 9.74093L20.3736 9.94672C19.6877 9.15784 18.007 7.27139 17.2867 6.48252ZM26.8219 29.8059C25.7243 30.972 24.2151 31.6923 22.6031 31.6923C21.9171 31.6923 21.9514 31.7266 21.3683 31.5208L21.5055 30.9377C22.0543 31.1092 21.9514 31.0749 22.6031 31.0749C24.0779 31.0749 25.4499 30.4233 26.4446 29.36C27.4049 28.2967 28.0223 26.8562 28.0223 25.2098C28.0223 23.2891 27.5078 21.4026 26.719 19.5848C25.9301 17.7669 23.8721 14.9887 23.8721 14.9887L24.2837 14.6114C24.2837 14.6114 26.376 17.4582 27.1992 19.3104C28.0223 21.1968 28.5368 23.1862 28.5368 25.1755C28.5711 27.0276 27.8851 28.6397 26.8219 29.8059ZM25.2441 28.0223C24.5581 28.7426 23.632 29.1885 22.6374 29.1885V28.5711C23.4948 28.5711 24.318 28.1938 24.9011 27.5764C25.4499 26.9933 25.8272 26.1702 25.8272 25.2098C25.8272 23.632 25.347 21.9857 24.6267 20.4079L25.004 20.1335C25.7243 21.7799 26.3417 23.4948 26.3417 25.1755C26.3074 26.3417 25.8958 27.302 25.2441 28.0223ZM28.4339 31.5894C26.9248 33.2358 24.8668 34.2304 22.6374 34.2304C21.5398 34.2304 19.7563 33.7503 19.7563 33.7503L19.9278 33.1672C19.9278 33.1672 21.6084 33.6131 22.6374 33.6131C24.7296 33.6131 26.6847 32.687 28.0566 31.1435C29.4286 29.6344 30.2861 27.5764 30.2861 25.2441C30.2861 23.0147 29.7373 20.8538 28.8798 18.7959C28.0223 16.7379 26.8562 14.8172 25.6557 13.0679C24.9354 12.0047 24.1808 11.01 23.3919 10.0153C22.6031 9.02065 21.8142 8.06028 20.991 7.09991C19.2761 5.11056 17.5268 3.18982 15.7776 1.26907L15.366 0.857476V0.0343011L15.5375 0.240097L16.0177 0.754583L16.1205 0.857476C17.8698 2.77822 19.6534 4.69897 21.3683 6.72261C22.1915 7.68299 23.0147 8.64336 23.8035 9.67233C24.5924 10.667 25.347 11.696 26.1016 12.7592C27.302 14.5085 28.5025 16.4978 29.36 18.5901C30.2518 20.7166 30.8348 22.9461 30.8348 25.2784C30.8348 27.7479 29.9088 29.9774 28.4339 31.5894ZM12.3477 27.7822L12.725 27.302C15.8805 29.1542 18.4186 27.302 18.4186 27.302L18.6587 27.6793C15.8462 29.8745 12.3477 27.7822 12.3477 27.7822ZM15.4346 15.7433V15.023L15.709 14.3027L15.4346 13.8911V13.3766L16.1205 14.0626L15.4346 15.7433ZM15.4346 15.7433L14.7486 14.0626L15.4346 13.3766V13.8911L15.1602 14.3027L15.4346 15.023V15.7433ZM15.4689 32.6527V31.5551L16.2578 29.6344L15.4689 28.8455V28.1595L16.7722 29.4629L15.4689 32.6527ZM15.6061 32.6527L14.3027 29.4286L15.6061 28.1252V28.8112L14.8172 29.6001L15.6061 31.5208V32.6527ZM10.5984 15.2631L10.4269 14.7486C13.6853 14.4742 15.4689 11.2844 15.4689 11.2844V12.0733C13.651 14.9201 10.5984 15.2631 10.5984 15.2631ZM20.2707 15.2631C20.2707 15.2631 17.2524 14.8858 15.4003 12.039V11.2501C15.4003 11.2501 17.1495 14.4399 20.4422 14.7143L20.2707 15.2631ZM9.77523 17.1838L10.2211 16.9094C10.2211 16.9094 9.98103 18.8988 13.6853 18.1099L13.8225 18.4872C13.8225 18.4872 10.0496 19.4819 9.77523 17.1838ZM21.0596 17.1838C20.7509 19.5162 17.0123 18.4872 17.0123 18.4872L17.1495 18.1099C20.8538 18.8988 20.6137 16.9094 20.6137 16.9094L21.0596 17.1838ZM14.3027 23.1519L14.4056 22.706C14.4056 22.706 14.7829 23.1176 15.4689 22.7746L15.6061 23.2547C15.6404 23.289 14.9201 23.5977 14.3027 23.1519ZM15.4689 22.3287C15.4689 22.3287 15.1259 22.0543 14.5771 22.3973C14.0283 22.7403 13.6853 22.3287 13.6853 22.3287L13.9254 21.8828C13.9254 21.8828 14.0283 22.2258 14.5771 21.8828C15.1259 21.5398 15.6061 21.8142 15.6061 21.8142L15.4689 22.3287ZM15.4689 20.4765L15.5718 20.9567C14.9201 20.8881 14.4742 20.3736 14.4742 20.3736C16.1206 14.4056 10.3583 15.2631 10.3583 15.2631L11.4216 14.8172C16.7722 14.8515 14.9887 20.1678 14.9887 20.1678C15.1602 20.3736 15.4689 20.4765 15.4689 20.4765ZM15.2631 23.289L15.4003 22.8089C16.0863 23.1519 16.4635 22.7403 16.4635 22.7403L16.5665 23.1862C15.9834 23.5977 15.2631 23.289 15.2631 23.289ZM16.292 22.363C15.7433 22.02 15.4003 22.2944 15.4003 22.2944L15.2631 21.8142C15.2631 21.8142 15.7433 21.5055 16.292 21.8828C16.8408 22.2258 16.9437 21.8828 16.9437 21.8828L17.1838 22.3287C17.1838 22.3287 16.8408 22.706 16.292 22.363ZM16.4292 20.3736C16.4292 20.3736 15.9834 20.8881 15.3317 20.9567L15.4346 20.4765C15.4346 20.4765 15.7433 20.4079 15.9491 20.1678C15.9491 20.1678 14.1655 14.8515 19.5162 14.8172L20.5794 15.2631C20.5451 15.2288 14.7829 14.3713 16.4292 20.3736Z" fill="#F5C03D"/>
</svg>
