<svg width="65" height="65" viewBox="0 0 65 65" fill="none" xmlns="http://www.w3.org/2000/svg">
<path d="M57 54V31.5" stroke="#151D15" stroke-width="1.75" stroke-linecap="round"/>
<path d="M25 54V44.5" stroke="#151D15" stroke-width="1.75" stroke-linecap="round"/>
<path d="M25 34V19M9 54V19C9 14.5817 12.5817 11 17 11C21.4183 11 25 14.5817 25 19M25 19C25 14.5817 28.5817 11 33 11C37.4183 11 41 14.5817 41 19M41 54V19M41 19C41 14.5817 44.5817 11 49 11C53.4183 11 57 14.5817 57 19V27.5" stroke="#151D15" stroke-width="1.75" stroke-linecap="round"/>
<path d="M26.7273 39.2881C26.7272 38.2414 25.8783 37.3929 24.8316 37.3929C23.7849 37.393 22.9365 38.2414 22.9364 39.2881C22.9364 40.3348 23.7849 41.1836 24.8316 41.1837C25.8784 41.1837 26.7273 40.3348 26.7273 39.2881ZM27.958 39.2881C27.958 41.0146 26.5581 42.4145 24.8316 42.4145C23.1051 42.4144 21.7056 41.0145 21.7056 39.2881C21.7057 37.5617 23.1052 36.1622 24.8316 36.1621C26.558 36.1621 27.9579 37.5616 27.958 39.2881Z" fill="#151D15"/>
</svg>
