<svg width="12" height="14" viewBox="0 0 12 14" fill="none" xmlns="http://www.w3.org/2000/svg">
<path d="M2 0.207031V1.54036H1.33333C0.6 1.54036 0 2.14036 0 2.8737V4.20703V5.54036V12.207C0 12.9404 0.6 13.5404 1.33333 13.5404H10.6667C11.4 13.5404 12 12.9404 12 12.207V5.54036V4.20703V2.8737C12 2.14036 11.4 1.54036 10.6667 1.54036H10V0.207031H8.66667V1.54036H3.33333V0.207031H2ZM1.33333 2.8737H2H3.33333H8.66667H10H10.6667V4.20703H1.33333V2.8737ZM1.33333 5.54036H10.6667V12.207H1.33333V5.54036Z" fill="#9C937C"/>
</svg>
