<svg width="13" height="15" viewBox="0 0 13 15" fill="none" xmlns="http://www.w3.org/2000/svg">
<path d="M2.5 0.833008V2.16634H1.83333C1.1 2.16634 0.5 2.76634 0.5 3.49967V4.83301V6.16634V12.833C0.5 13.5663 1.1 14.1663 1.83333 14.1663H11.1667C11.9 14.1663 12.5 13.5663 12.5 12.833V6.16634V4.83301V3.49967C12.5 2.76634 11.9 2.16634 11.1667 2.16634H10.5V0.833008H9.16667V2.16634H3.83333V0.833008H2.5ZM1.83333 3.49967H2.5H3.83333H9.16667H10.5H11.1667V4.83301H1.83333V3.49967ZM1.83333 6.16634H11.1667V12.833H1.83333V6.16634Z" fill="#9C937C"/>
</svg>
