<svg width="51" height="50" viewBox="0 0 51 50" fill="none" xmlns="http://www.w3.org/2000/svg">
<path d="M25.757 43.1856C25.6107 43.1856 25.4644 43.1125 25.3547 43.0027L2.75155 19.0464C2.56867 18.8635 2.56867 18.6075 2.6784 18.3881L8.53034 8.22033C8.64006 8.03745 8.82293 7.92773 9.00581 7.92773H12.0781C12.3707 7.92773 12.6267 8.18376 12.6267 8.47635C12.6267 8.76895 12.3707 9.02497 12.0781 9.02497H9.33498L3.84879 18.5709L25.757 41.8324L47.4823 18.6075L41.3743 9.02497H19.7953C19.5027 9.02497 19.2467 8.76895 19.2467 8.47635C19.2467 8.18376 19.5027 7.92773 19.7953 7.92773H41.6669C41.8498 7.92773 42.0327 8.03746 42.1424 8.18376L48.6527 18.3515C48.799 18.5709 48.7624 18.827 48.5795 19.0098L26.1593 43.0393C26.0496 43.1491 25.9033 43.1856 25.757 43.1856Z" fill="#010101"/>
<path d="M3.15459 19.2297C2.89857 19.2297 2.67912 19.0468 2.60597 18.7908C2.53282 18.4982 2.7157 18.2056 3.00829 18.1324L30.0369 12.0611C30.3295 11.9879 30.6221 12.1708 30.6953 12.4634C30.7684 12.756 30.5856 13.0486 30.293 13.1217L3.26432 19.1931C3.22774 19.2297 3.19117 19.2297 3.15459 19.2297Z" fill="#010101"/>
<path d="M48.1765 19.2297C48.1033 19.2297 48.0667 19.2297 47.9936 19.1931L19.6117 9.02536C19.3191 8.91563 19.1728 8.62304 19.2825 8.33044C19.3922 8.03785 19.6848 7.89155 19.9774 8.00127L48.3593 18.169C48.6519 18.2787 48.7982 18.5713 48.6885 18.8639C48.6154 19.0834 48.3959 19.2297 48.1765 19.2297Z" fill="#010101"/>
<path d="M16.0636 10.927C14.8567 10.927 13.8691 9.93952 13.8691 8.73256C13.8691 7.5256 14.8567 6.53809 16.0636 6.53809C17.2706 6.53809 18.2581 7.5256 18.2581 8.73256C18.2581 9.93952 17.3072 10.927 16.0636 10.927ZM16.0636 7.63532C15.4418 7.63532 14.9664 8.11079 14.9664 8.73256C14.9664 9.35433 15.4418 9.8298 16.0636 9.8298C16.6854 9.8298 17.1609 9.35433 17.1609 8.73256C17.1609 8.11079 16.6854 7.63532 16.0636 7.63532Z" fill="#010101"/>
</svg>
