<svg width="50" height="50" viewBox="0 0 50 50" fill="none" xmlns="http://www.w3.org/2000/svg">
<path d="M24.4032 46.8079V33.8079C24.4032 33.5424 24.6185 33.3272 24.884 33.3272C25.1495 33.3272 25.3648 33.5424 25.3648 33.8079V46.8079C25.3648 47.0734 25.1495 47.2886 24.884 47.2886C24.6185 47.2886 24.4032 47.0734 24.4032 46.8079Z" fill="#121C13"/>
<path d="M26.3649 28.1155C26.3648 27.2977 25.7016 26.6349 24.8839 26.6349C24.0662 26.6349 23.4033 27.2978 23.4032 28.1155C23.4032 28.9332 24.0661 29.5964 24.8839 29.5965C25.7017 29.5965 26.3649 28.9333 26.3649 28.1155ZM27.3264 28.1155C27.3264 29.4643 26.2327 30.558 24.8839 30.558C23.5351 30.5579 22.4417 29.4643 22.4417 28.1155C22.4418 26.7667 23.5351 25.6734 24.8839 25.6733C26.2327 25.6733 27.3263 26.7667 27.3264 28.1155Z" fill="#121C13"/>
<path d="M14.6246 29.0074C14.8201 28.8532 15.0982 28.875 15.2677 29.0502L15.3 29.087L15.5002 29.3383C17.5769 31.9173 19.9445 34.0425 21.8185 35.538C22.7847 36.309 23.6172 36.9108 24.207 37.3191C24.5017 37.5231 24.7358 37.6784 24.8954 37.7825C24.9752 37.8346 25.0364 37.8738 25.0772 37.8997C25.0976 37.9127 25.113 37.9227 25.123 37.929C25.1279 37.9321 25.1316 37.9343 25.1339 37.9358C25.1351 37.9365 25.1361 37.937 25.1366 37.9373L25.1369 37.9377C25.3627 38.0774 25.4326 38.3737 25.2928 38.5995C25.1531 38.8252 24.8568 38.895 24.631 38.7554L24.8958 38.3275C24.892 38.3337 24.8881 38.34 24.8842 38.3463C24.6311 38.7551 24.6307 38.755 24.6306 38.755C24.6304 38.7548 24.6299 38.7544 24.6295 38.7542C24.6286 38.7537 24.6273 38.7529 24.6258 38.752C24.6226 38.75 24.618 38.7473 24.6122 38.7437C24.6006 38.7364 24.5839 38.7254 24.5619 38.7114C24.5178 38.6834 24.4532 38.6421 24.37 38.5878C24.2036 38.4792 23.9622 38.3187 23.6597 38.1093C23.0548 37.6906 22.2044 37.0761 21.2187 36.2895C19.3109 34.7671 16.8862 32.5927 14.7508 29.9407L14.545 29.6827L14.5165 29.6425C14.3856 29.437 14.4292 29.1616 14.6246 29.0074Z" fill="#121C13"/>
<path d="M36.9829 27.2181C36.8414 27.4427 36.5446 27.5099 36.32 27.3684C36.0954 27.2268 36.0279 26.9301 36.1694 26.7055L36.9829 27.2181ZM9.71094 17.5772C9.71094 9.19749 16.502 2.40423 24.8841 2.44276H24.8848C24.8853 2.44276 24.8859 2.44238 24.8863 2.44238L24.886 2.44276C33.2659 2.44381 40.0572 9.23532 40.0572 17.6155C40.0572 21.1187 38.7832 24.3612 36.9829 27.2181L36.1694 26.7055C37.9076 23.947 39.0957 20.8816 39.0957 17.6155C39.0957 9.76574 32.7339 3.40396 24.8841 3.40392H24.8818C17.0342 3.36673 10.6725 9.72692 10.6725 17.5772C10.6725 20.8445 11.8612 23.9478 13.5969 26.6645C13.7398 26.8883 13.6742 27.1856 13.4504 27.3286C13.2267 27.4714 12.9297 27.4058 12.7867 27.1821C10.984 24.3604 9.71095 21.0791 9.71094 17.5772Z" fill="#121C13"/>
<path d="M34.4682 29.087C34.6327 28.8787 34.9348 28.843 35.1432 29.0074C35.3517 29.1718 35.3876 29.4742 35.2232 29.6827C33.039 32.4519 30.5185 34.7179 28.5491 36.2895C27.5635 37.0761 26.7134 37.6906 26.1085 38.1093C25.806 38.3186 25.5646 38.4792 25.3982 38.5878C25.315 38.6421 25.2504 38.6834 25.2063 38.7114C25.1842 38.7254 25.1672 38.7364 25.1556 38.7437C25.1499 38.7473 25.1455 38.7501 25.1424 38.752C25.1409 38.7529 25.1396 38.7537 25.1387 38.7542C25.1382 38.7545 25.1378 38.7548 25.1375 38.755C25.1365 38.7535 25.1213 38.7294 24.8842 38.3463L25.1372 38.7554C24.9114 38.8951 24.6151 38.8252 24.4754 38.5995C24.3356 38.3737 24.4052 38.0775 24.6309 37.9377L24.6312 37.9373C24.6317 37.937 24.6327 37.9365 24.6339 37.9358C24.6362 37.9343 24.6401 37.9322 24.6451 37.929C24.6552 37.9227 24.6705 37.9127 24.691 37.8997C24.7318 37.8738 24.7931 37.8345 24.8727 37.7825C25.0323 37.6784 25.2665 37.5231 25.5612 37.3191C26.151 36.9108 26.9835 36.309 27.9497 35.538C29.8841 33.9942 32.3447 31.7793 34.4682 29.087Z" fill="#121C13"/>
</svg>
