<svg width="80" height="80" viewBox="0 0 80 80" fill="none" xmlns="http://www.w3.org/2000/svg">
<path fill-rule="evenodd" clip-rule="evenodd" d="M54.3389 36.3999C56.1791 36.3999 57.6929 37.9137 57.6929 39.7538V46.1439C59.2097 46.6526 60.3265 48.0565 60.277 49.7845L60.2776 57.4155C60.2774 58.097 59.736 58.8 58.893 58.8001H57.6929V61.4149C57.6929 61.8397 57.3485 62.1841 56.9237 62.1841C56.4988 62.1841 56.1544 61.8397 56.1544 61.4149V58.8001H31.6623V61.4149C31.6623 61.8397 31.3178 62.1841 30.893 62.1841C30.4682 62.1841 30.1238 61.8397 30.1238 61.4149V58.8001H28.9237C28.2421 58.8001 27.5393 58.2584 27.5391 57.4155V57.261H22.1851V59.0147C22.1851 59.4395 21.8407 59.7839 21.4159 59.7839C20.9911 59.7838 20.6466 59.4394 20.6466 59.0147V57.2586C19.3421 57.2104 18.3083 56.1471 18.3083 54.8302V50.0303C18.3084 48.6825 19.3914 47.5994 20.7392 47.5994H28.226C28.6839 46.9384 29.3437 46.4228 30.1238 46.1511V39.7538C30.1238 37.9136 31.6375 36.3999 33.4778 36.3999H54.3389ZM31.3852 47.4768C30.0969 47.4768 29.0775 48.5377 29.0775 49.7845V57.2616H30.8816C30.8854 57.2616 30.8893 57.261 30.893 57.261C30.8968 57.261 30.9006 57.2616 30.9044 57.2616H56.9123C56.9161 57.2616 56.9199 57.261 56.9237 57.261C56.9275 57.261 56.9313 57.2616 56.9351 57.2616H58.7392V49.7707L58.7398 49.7568C58.7844 48.5053 57.7558 47.4769 56.4315 47.4768H31.3852ZM20.7392 49.1378C20.241 49.1378 19.8469 49.5322 19.8468 50.0303V54.8302C19.8468 55.3284 20.2409 55.7226 20.7392 55.7226H27.5391V49.7845C27.5391 49.565 27.5587 49.3488 27.595 49.1378H20.7392ZM33.4778 37.9383C32.4872 37.9383 31.6623 38.7633 31.6623 39.7538V45.9383H56.1544V39.7538C56.1544 38.7633 55.3294 37.9384 54.3389 37.9383H33.4778Z" fill="#F5C03D"/>
<path fill-rule="evenodd" clip-rule="evenodd" d="M39.8774 22.4918C42.0354 22.4919 43.7853 24.2413 43.7855 26.3993C43.7855 28.5574 42.0355 30.3072 39.8774 30.3073C37.7194 30.3072 35.97 28.5573 35.97 26.3993C35.9701 24.2413 37.7195 22.4919 39.8774 22.4918ZM39.8774 24.0303C38.5691 24.0304 37.5086 25.091 37.5084 26.3993C37.5084 27.7077 38.569 28.7687 39.8774 28.7689C41.1858 28.7688 42.247 27.7077 42.247 26.3993C42.2468 25.091 41.1857 24.0304 39.8774 24.0303Z" fill="#F5C03D"/>
<path d="M47.2007 17.5687C48.5025 17.5689 49.8779 18.4389 49.878 19.8764V24.7382C49.8779 25.1628 49.5333 25.5072 49.1088 25.5074C48.684 25.5074 48.3397 25.1629 48.3395 24.7382V19.8764C48.3395 19.5911 47.9908 19.1073 47.2007 19.1072H32.7392C31.9491 19.1073 31.6011 19.591 31.601 19.8764V24.7382C31.6008 25.1628 31.2563 25.5073 30.8317 25.5074C30.407 25.5074 30.0626 25.1629 30.0625 24.7382V19.8764C30.0626 18.4389 31.4374 17.5688 32.7392 17.5687H47.2007Z" fill="#F5C03D"/>
<path fill-rule="evenodd" clip-rule="evenodd" d="M66.5853 11.5381C67.5024 11.5381 68.2157 12.252 68.2157 13.1691V66.5844C68.2157 67.5014 67.5024 68.2147 66.5853 68.2148H13.1701C12.253 68.2148 11.5391 67.5014 11.5391 66.5844V13.1691C11.5391 12.252 12.2529 11.5381 13.1701 11.5381H66.5853ZM13.1701 13.0765C13.1439 13.0765 13.1271 13.0812 13.1178 13.085C13.1083 13.0888 13.1026 13.0936 13.0986 13.0976C13.0945 13.1016 13.0898 13.1074 13.0859 13.1168C13.0822 13.1261 13.0775 13.143 13.0775 13.1691V66.5844C13.0775 66.6102 13.0822 66.6267 13.0859 66.636C13.0898 66.6455 13.0945 66.6519 13.0986 66.6559C13.1026 66.6598 13.1085 66.6641 13.1178 66.6679C13.1271 66.6717 13.1439 66.6763 13.1701 66.6763H66.5853C66.6113 66.6763 66.6277 66.6717 66.637 66.6679C66.6465 66.664 66.6528 66.6599 66.6569 66.6559C66.6609 66.6519 66.665 66.6455 66.6689 66.636C66.6726 66.6267 66.6773 66.6103 66.6773 66.5844V13.1691C66.6773 13.1429 66.6727 13.1261 66.6689 13.1168C66.6651 13.1075 66.6608 13.1016 66.6569 13.0976C66.6528 13.0936 66.6465 13.0888 66.637 13.085C66.6277 13.0812 66.6112 13.0766 66.5853 13.0765H13.1701Z" fill="#F5C03D"/>
</svg>
