<svg width="50" height="50" viewBox="0 0 50 50" fill="none" xmlns="http://www.w3.org/2000/svg">
<path d="M24.8017 4.6362C24.9084 4.60366 25.0235 4.60897 25.1273 4.65235C29.1962 6.35387 31.0059 9.43572 31.7898 12.0731C32.1805 13.3879 32.3179 14.5948 32.358 15.4727C32.3781 15.9122 32.3739 16.2712 32.3644 16.5221C32.3597 16.6475 32.3536 16.7463 32.3486 16.8147C32.3462 16.8489 32.3439 16.8756 32.3423 16.8943C32.3419 16.8979 32.3414 16.9011 32.3411 16.9041C32.3308 20.1643 30.5039 22.7371 28.738 24.4668C27.848 25.3386 26.9595 26.0107 26.294 26.4646C25.9608 26.6919 25.6822 26.8653 25.4857 26.9826C25.3874 27.0412 25.3094 27.0859 25.2554 27.1163C25.2284 27.1315 25.2074 27.1432 25.1927 27.1512C25.1854 27.1552 25.1795 27.1584 25.1754 27.1606C25.1734 27.1617 25.1717 27.1626 25.1705 27.1632C25.17 27.1636 25.1694 27.1638 25.169 27.164L25.1687 27.1644C25.1685 27.1645 25.1682 27.1645 24.9549 26.7647L25.1687 27.1644C24.9344 27.2893 24.6427 27.2007 24.5177 26.9664C24.3929 26.7322 24.4815 26.4412 24.7157 26.3163C24.7161 26.316 24.7171 26.3154 24.7183 26.3148C24.7208 26.3134 24.725 26.3111 24.7307 26.308C24.7422 26.3017 24.76 26.2916 24.7837 26.2783C24.831 26.2517 24.902 26.2113 24.9929 26.157C25.1748 26.0484 25.4369 25.8854 25.7523 25.6702C26.3841 25.2394 27.2252 24.6026 28.0649 23.7802C29.7535 22.1263 31.3803 19.7767 31.3803 16.8763C31.3803 16.8596 31.3813 16.8429 31.383 16.8263C31.383 16.8258 31.3829 16.8249 31.383 16.8237C31.3833 16.8208 31.3839 16.8159 31.3845 16.8091C31.3857 16.7953 31.3876 16.7737 31.3897 16.7448C31.3939 16.6869 31.3994 16.5993 31.4036 16.4857C31.4122 16.2582 31.416 15.9263 31.3972 15.5166C31.3597 14.6958 31.2313 13.5695 30.868 12.3473C30.156 9.95146 28.5481 7.19752 24.9418 5.62027C21.3356 7.19753 19.728 9.95151 19.0159 12.3473C18.6527 13.5695 18.5238 14.6958 18.4863 15.5166C18.4676 15.9263 18.4718 16.2582 18.4803 16.4857C18.4846 16.5993 18.49 16.6869 18.4942 16.7448C18.4963 16.7738 18.4983 16.7953 18.4995 16.8091C18.5001 16.8159 18.5003 16.8208 18.5006 16.8237C18.5007 16.8249 18.5009 16.8258 18.501 16.8263C18.5285 17.0904 18.3368 17.3268 18.0728 17.3544C17.8087 17.3819 17.5722 17.19 17.5447 16.9259L17.8636 16.8924C17.5661 16.9234 17.5461 16.926 17.5447 16.9259V16.9247C17.5447 16.9242 17.5444 16.9233 17.5443 16.9225C17.5442 16.9209 17.5438 16.9187 17.5436 16.9161C17.5431 16.9108 17.5425 16.9035 17.5417 16.8943C17.54 16.8756 17.5378 16.8489 17.5353 16.8147C17.5303 16.7463 17.5243 16.6475 17.5195 16.5221C17.5101 16.2712 17.5058 15.9122 17.5259 15.4727C17.566 14.5948 17.7035 13.3879 18.0942 12.0731C18.8781 9.43572 20.6878 6.35387 24.7566 4.65235L24.8017 4.6362Z" fill="#121C13"/>
<path d="M13.0381 15.7656C14.4082 15.7932 15.5989 16.0299 16.4471 16.2591C16.8718 16.3739 17.2123 16.4873 17.4485 16.5727C17.5665 16.6155 17.6586 16.6512 17.7223 16.6768C17.7541 16.6896 17.7789 16.6999 17.7963 16.7072C17.7998 16.7087 17.8031 16.7101 17.806 16.7113C20.8943 17.7143 22.7935 20.2335 23.9114 22.4378C24.4749 23.5488 24.8495 24.5975 25.0833 25.3682C25.2003 25.754 25.2821 26.0716 25.3353 26.2941C25.3619 26.4052 25.3814 26.4926 25.3943 26.5532C25.4007 26.5835 25.4056 26.6074 25.4089 26.6238C25.4106 26.6319 25.4118 26.6384 25.4127 26.643C25.4131 26.6452 25.4136 26.6469 25.4138 26.6482C25.414 26.6489 25.4141 26.6497 25.4142 26.6501C25.4142 26.6503 25.4141 26.651 24.9417 26.7403C24.4982 26.8241 24.4712 26.8293 24.4696 26.8297C24.4695 26.8292 24.4691 26.8279 24.4688 26.8267C24.4683 26.8238 24.4674 26.8191 24.4662 26.8128C24.4636 26.7999 24.4594 26.7799 24.4538 26.7534C24.4425 26.7003 24.4251 26.6205 24.4004 26.5175C24.3512 26.3115 24.2739 26.0127 24.1631 25.6473C23.9411 24.9155 23.5859 23.9216 23.0539 22.8727C21.984 20.7633 20.2358 18.5012 17.4853 17.6177C17.4696 17.6126 17.4541 17.607 17.4391 17.6004C17.4386 17.6002 17.4378 17.5997 17.4368 17.5993C17.4341 17.5981 17.4296 17.5959 17.4233 17.5933C17.4106 17.5879 17.3905 17.5797 17.3636 17.5688C17.3097 17.5472 17.2281 17.5155 17.1213 17.4768C16.9072 17.3993 16.5921 17.2942 16.1962 17.1872C15.4033 16.9729 14.2922 16.7528 13.019 16.7271C10.5231 16.6769 7.41596 17.3722 4.826 20.3344C5.23608 24.2568 7.37888 26.6197 9.45191 28.0184C10.5095 28.732 11.5469 29.1924 12.32 29.4743C12.706 29.615 13.0246 29.7106 13.2447 29.7706C13.3546 29.8006 13.4398 29.8215 13.4964 29.8348C13.5247 29.8415 13.546 29.8462 13.5595 29.8491C13.5661 29.8506 13.5709 29.8515 13.5738 29.8521L13.5768 29.8529C13.837 29.9056 14.0046 30.1591 13.952 30.4193C13.8993 30.6795 13.6458 30.8479 13.3856 30.7953L13.5095 30.1834C13.5011 30.2248 13.4916 30.2714 13.481 30.3239C13.3855 30.7951 13.3851 30.7953 13.3848 30.7953L13.3844 30.7949C13.3839 30.7948 13.383 30.7947 13.3822 30.7945C13.3806 30.7942 13.3784 30.7939 13.3758 30.7934C13.3706 30.7923 13.3635 30.7905 13.3544 30.7885C13.336 30.7845 13.3097 30.7787 13.2763 30.7708C13.2094 30.7551 13.113 30.7314 12.9916 30.6983C12.7489 30.6322 12.4046 30.5285 11.9906 30.3776C11.1637 30.0762 10.0519 29.5832 8.91405 28.8155C6.63128 27.2752 4.236 24.6203 3.84756 20.2183C3.83629 20.0905 3.87661 19.9632 3.95949 19.8653C6.80803 16.4989 10.2896 15.7103 13.0381 15.7656ZM25.4142 26.6509C25.4635 26.9118 25.292 27.1635 25.0311 27.2128C24.7702 27.262 24.5189 27.0905 24.4696 26.8297L25.4142 26.6509Z" fill="#121C13"/>
<path d="M23.6825 26.1771C24.0857 26.1865 24.413 26.2076 24.641 26.2266C24.755 26.2362 24.8442 26.2455 24.9058 26.2522C24.9366 26.2555 24.9606 26.2584 24.9772 26.2604C24.9855 26.2615 24.9921 26.2621 24.9967 26.2627C24.999 26.263 25.001 26.2633 25.0023 26.2634C25.0029 26.2635 25.0034 26.2634 25.0039 26.2634L25.0046 26.2638C25.0046 26.2655 25.0017 26.2881 24.9599 26.6041L25.0046 26.2638C25.2678 26.2987 25.4534 26.5403 25.4185 26.8036C25.3858 27.0502 25.1714 27.2282 24.928 27.2209L24.8788 27.2171L24.8758 27.2167C24.8729 27.2164 24.868 27.2156 24.8615 27.2148C24.8485 27.2133 24.8283 27.211 24.8014 27.2081C24.7474 27.2022 24.6661 27.194 24.5606 27.1852C24.3496 27.1675 24.0417 27.1471 23.66 27.1382C22.8953 27.1204 21.8401 27.1477 20.6773 27.3264C18.339 27.6858 15.6425 28.6451 13.9417 30.996C13.932 31.0094 13.9215 31.0224 13.9105 31.0347C13.9102 31.035 13.9096 31.0359 13.9086 31.037C13.9067 31.0391 13.9033 31.0427 13.8988 31.0479C13.8898 31.0583 13.8758 31.0748 13.8571 31.0971C13.8198 31.1416 13.7639 31.2094 13.6938 31.2991C13.5534 31.4786 13.3556 31.7455 13.1307 32.0886C12.6802 32.776 12.1247 33.7641 11.7038 34.9669C10.8788 37.3246 10.5723 40.4952 12.5805 43.8784C16.424 44.7078 19.3358 43.4168 21.3128 41.8922C22.3213 41.1145 23.0838 40.2774 23.5938 39.6345C23.8485 39.3135 24.0391 39.0421 24.1651 38.8528C24.2281 38.7583 24.2748 38.6843 24.3052 38.635C24.3204 38.6103 24.3316 38.5916 24.3387 38.5798C24.3421 38.574 24.3447 38.5699 24.3462 38.5674L24.3477 38.5648C24.48 38.3347 24.7737 38.2553 25.0039 38.3875C25.2341 38.5196 25.3136 38.8134 25.1815 39.0436L24.7045 38.7698C24.7235 38.7807 24.7435 38.7923 24.7646 38.8044C25.1814 39.0437 25.1813 39.0441 25.1811 39.0444L25.1808 39.0448C25.1805 39.0453 25.18 39.046 25.1796 39.0467C25.1788 39.048 25.1779 39.05 25.1766 39.0523C25.1739 39.0569 25.1702 39.0634 25.1654 39.0714C25.1558 39.0875 25.142 39.1103 25.124 39.1394C25.0881 39.1978 25.0351 39.2814 24.9655 39.3858C24.8265 39.5946 24.6204 39.8878 24.3473 40.232C23.8018 40.9197 22.9851 41.8169 21.9003 42.6535C19.7239 44.332 16.4564 45.7711 12.1654 44.7723C12.0406 44.7432 11.9326 44.6655 11.8653 44.5563C9.55313 40.8013 9.88792 37.2457 10.7964 34.6495C11.2492 33.3553 11.8446 32.2965 12.3266 31.5613C12.5679 31.1932 12.7818 30.9047 12.9365 30.7068C13.0139 30.6079 13.0765 30.5314 13.1206 30.4788C13.1426 30.4526 13.1601 30.4322 13.1724 30.418C13.1747 30.4154 13.1765 30.4126 13.1784 30.4105C15.0975 27.7749 18.0862 26.7519 20.5312 26.3761C21.7633 26.1868 22.8771 26.1583 23.6825 26.1771Z" fill="#121C13"/>
<path d="M24.5077 26.5341C24.6216 26.2943 24.9083 26.1922 25.1481 26.3061C25.3878 26.42 25.4898 26.7063 25.3761 26.9461C25.3759 26.9466 25.3756 26.9482 25.375 26.9495C25.3737 26.9521 25.3717 26.9564 25.369 26.9623C25.3635 26.9742 25.3549 26.9927 25.3438 27.0175C25.3216 27.0671 25.2888 27.142 25.248 27.2398C25.1663 27.4357 25.0525 27.7232 24.9269 28.0842C24.6752 28.8072 24.3777 29.8203 24.1926 30.9808C23.8202 33.3146 23.9138 36.1654 25.6461 38.4808C25.6569 38.4952 25.6671 38.5101 25.6762 38.5255C25.6764 38.5259 25.6766 38.5266 25.6773 38.5278C25.6788 38.5303 25.6813 38.5347 25.6848 38.5405C25.692 38.5523 25.7033 38.5706 25.7186 38.595C25.7495 38.6441 25.7971 38.7178 25.861 38.8117C25.9888 38.9999 26.1823 39.2696 26.4402 39.5881C26.9566 40.2261 27.7273 41.0556 28.7441 41.8225C30.7372 43.3257 33.6653 44.5837 37.5095 43.7051C39.4689 40.2883 39.1297 37.1167 38.2836 34.7669C37.852 33.5681 37.2888 32.5864 36.8334 31.9044C36.6061 31.564 36.4065 31.2998 36.2651 31.1221C36.1945 31.0332 36.1386 30.9659 36.101 30.9219C36.0822 30.8999 36.068 30.8837 36.0589 30.8734C36.0545 30.8683 36.0511 30.8647 36.0492 30.8625C36.0482 30.8615 36.0476 30.8606 36.0473 30.8603C35.8687 30.6639 35.883 30.3602 36.0792 30.1815C36.2756 30.0028 36.5796 30.0171 36.7583 30.2135L36.4781 30.4685C36.7381 30.2319 36.7571 30.2149 36.7587 30.2138L36.7594 30.2142C36.7598 30.2146 36.7601 30.2152 36.7606 30.2157C36.7616 30.2169 36.7633 30.2186 36.7651 30.2206C36.7686 30.2246 36.7735 30.2301 36.7797 30.2371C36.7921 30.2512 36.8097 30.2712 36.8319 30.2972C36.8764 30.3493 36.9394 30.4253 37.0175 30.5233C37.1735 30.7194 37.3892 31.0051 37.6331 31.3703C38.1202 32.0999 38.7238 33.1518 39.1881 34.4412C40.1194 37.0278 40.491 40.5819 38.2352 44.3725C38.1693 44.4832 38.062 44.563 37.9369 44.5937C33.6466 45.6478 30.3606 44.246 28.1653 42.5903C27.071 41.765 26.2452 40.8754 25.6927 40.1928C25.4161 39.8511 25.2069 39.5598 25.0658 39.3522C24.9953 39.2484 24.9416 39.1654 24.9051 39.1073C24.8868 39.0783 24.8728 39.0554 24.863 39.0393C24.8616 39.0369 24.8602 39.0347 24.8589 39.0326C22.9187 36.4207 22.8538 33.2695 23.2431 30.8295C23.4393 29.5994 23.754 28.53 24.019 27.7683C24.1517 27.3871 24.2722 27.0814 24.3605 26.8699C24.4046 26.7642 24.4407 26.6817 24.466 26.625C24.4787 26.5966 24.489 26.5745 24.4961 26.5593C24.4995 26.5517 24.5023 26.5458 24.5043 26.5416C24.5053 26.5395 24.506 26.5376 24.5066 26.5363C24.5068 26.5358 24.5071 26.5352 24.5073 26.5348L24.5077 26.5341C24.5098 26.5349 24.5364 26.5477 24.8882 26.7148L24.5077 26.5341Z" fill="#121C13"/>
<path d="M36.8304 15.7835C39.5754 15.7189 43.0569 16.4987 45.9233 19.8644C46.0068 19.9625 46.0473 20.0899 46.036 20.2183C45.6475 24.602 43.2616 27.2565 40.9886 28.8011C39.8555 29.5711 38.7483 30.0676 37.9249 30.3719C37.5126 30.5242 37.1697 30.6289 36.928 30.696C36.8071 30.7296 36.7114 30.754 36.6448 30.77C36.6115 30.778 36.5854 30.7839 36.5671 30.788C36.5632 30.7889 36.5597 30.7892 36.5565 30.7899C33.461 31.7726 30.456 30.8164 28.27 29.6624C27.168 29.0805 26.2558 28.4394 25.6194 27.944C25.3008 27.696 25.05 27.4838 24.878 27.3325C24.792 27.2568 24.7256 27.1963 24.68 27.1541C24.6573 27.133 24.6396 27.1164 24.6275 27.1049C24.6214 27.0992 24.6165 27.0946 24.6132 27.0914C24.6116 27.0899 24.6104 27.0886 24.6094 27.0876C24.6089 27.0871 24.6082 27.0868 24.6079 27.0865L24.6075 27.0857C24.6082 27.0847 24.6233 27.0693 24.89 26.7939L24.6075 27.0857C24.4168 26.901 24.4119 26.5966 24.5967 26.4059C24.7813 26.2153 25.0854 26.2102 25.2761 26.3946L25.2784 26.3969C25.2805 26.3989 25.2841 26.4025 25.2889 26.407C25.2984 26.4161 25.3133 26.4299 25.3332 26.4483C25.3731 26.4853 25.4336 26.5403 25.5131 26.6102C25.6725 26.7504 25.9085 26.9504 26.2102 27.1853C26.8146 27.6557 27.6788 28.2633 28.7189 28.8124C30.8107 29.9168 33.542 30.7493 36.291 29.8663L36.3398 29.8532C36.3402 29.8531 36.3415 29.8531 36.3428 29.8528C36.3457 29.8522 36.3508 29.8509 36.3575 29.8494C36.3709 29.8464 36.3921 29.8419 36.4202 29.8351C36.4766 29.8216 36.5613 29.8001 36.6707 29.7698C36.8899 29.7089 37.2073 29.6121 37.5917 29.4701C38.3616 29.1855 39.3947 28.7218 40.4481 28.006C42.5131 26.6028 44.647 24.2399 45.0571 20.3347C42.4506 17.3728 39.3437 16.6861 36.8533 16.7447C35.5824 16.7746 34.4743 16.999 33.6843 17.2165C33.29 17.325 32.9764 17.4314 32.7633 17.5098C32.6757 17.542 32.6051 17.5696 32.553 17.5905C32.5447 17.6088 32.5355 17.6276 32.5245 17.6461C32.4353 17.7957 32.2994 17.8752 32.1924 17.9211L32.1462 17.9384C31.9137 18.0113 31.6591 17.8975 31.561 17.6687C31.4788 17.4768 31.5313 17.2614 31.676 17.1271C31.6917 17.0787 31.7151 17.0258 31.7519 16.9746C31.8471 16.8419 31.9787 16.7802 32.0737 16.7481C32.077 16.7467 32.0809 16.7453 32.085 16.7436C32.1023 16.7362 32.127 16.7257 32.1586 16.7128C32.222 16.6869 32.3138 16.6508 32.4313 16.6076C32.6666 16.5211 33.0059 16.406 33.4293 16.2895C34.2748 16.0567 35.4623 15.8157 36.8304 15.7835Z" fill="#121C13"/>
<path d="M41.0765 22.0958C41.0764 21.278 40.4133 20.6152 39.5955 20.6152C38.7778 20.6152 38.115 21.2781 38.1149 22.0958C38.1149 22.9135 38.7778 23.5767 39.5955 23.5768C40.4133 23.5768 41.0765 22.9136 41.0765 22.0958ZM42.0381 22.0958C42.0381 23.4446 40.9444 24.5383 39.5955 24.5383C38.2467 24.5382 37.1534 23.4446 37.1534 22.0958C37.1534 20.747 38.2468 19.6537 39.5955 19.6536C40.9443 19.6536 42.038 20.747 42.0381 22.0958Z" fill="#121C13"/>
</svg>
