<svg width="50" height="50" viewBox="0 0 50 50" fill="none" xmlns="http://www.w3.org/2000/svg">
<path d="M37.3268 37.2307V7.30769C37.3268 7.29531 37.3205 7.26982 37.2945 7.24384C37.2686 7.21789 37.2431 7.21154 37.2307 7.21154H7.30769C7.29531 7.21154 7.26982 7.21786 7.24384 7.24384C7.21786 7.26982 7.21154 7.29531 7.21154 7.30769V37.1924C7.21156 37.2048 7.21791 37.2303 7.24384 37.2562C7.26981 37.2822 7.29532 37.2885 7.30769 37.2885H11.9614L12.0106 37.2908C12.2531 37.3154 12.4422 37.5203 12.4422 37.7693C12.4421 38.0182 12.253 38.2229 12.0106 38.2474L11.9614 38.2501H7.30769C6.7345 38.2501 6.25004 37.7656 6.25 37.1924V7.30769C6.25 6.73448 6.73448 6.25 7.30769 6.25H37.2307C37.8039 6.25 38.2884 6.73448 38.2884 7.30769V37.2307C38.2884 37.8039 37.8039 38.2884 37.2307 38.2884H16.6155C16.3499 38.2884 16.1347 38.0731 16.1347 37.8076C16.1347 37.5421 16.35 37.3268 16.6155 37.3268H37.2307C37.2431 37.3268 37.2686 37.3205 37.2945 37.2945C37.3205 37.2686 37.3268 37.2431 37.3268 37.2307Z" fill="#121C13"/>
<path d="M11.4808 42.3848V12.4231C11.4808 11.8499 11.9652 11.3654 12.5385 11.3654H32.3845C32.65 11.3654 32.8652 11.5806 32.8652 11.8462C32.8652 12.1117 32.65 12.3269 32.3845 12.3269H12.5385C12.5261 12.3269 12.5006 12.3332 12.4746 12.3592C12.4486 12.3852 12.4423 12.4107 12.4423 12.4231V42.3848C12.4424 42.3972 12.4487 42.4227 12.4746 42.4486C12.5006 42.4745 12.5261 42.4809 12.5385 42.4809H42.4231C42.4356 42.4809 42.4611 42.4745 42.487 42.4486C42.5129 42.4227 42.5193 42.3972 42.5193 42.3848V12.4614C42.5193 12.449 42.5129 12.4234 42.487 12.3975C42.4611 12.3716 42.4356 12.3653 42.4231 12.3652H37.7691C37.5036 12.3652 37.2883 12.1499 37.2883 11.8845C37.2884 11.6191 37.5037 11.4038 37.7691 11.4037H42.4231C42.9963 11.4037 43.4808 11.8883 43.4808 12.4614V42.3848C43.4808 42.9579 42.9963 43.4424 42.4231 43.4425H12.5385C11.9653 43.4425 11.4809 42.9579 11.4808 42.3848Z" fill="#121C13"/>
<path d="M26.3655 24.846C26.3654 24.0283 25.7022 23.3654 24.8845 23.3654C24.0668 23.3655 23.4039 24.0283 23.4038 24.846C23.4038 25.6638 24.0667 26.3269 24.8845 26.327C25.7023 26.327 26.3655 25.6638 26.3655 24.846ZM27.327 24.846C27.327 26.1949 26.2333 27.2885 24.8845 27.2885C23.5357 27.2885 22.4423 26.1948 22.4423 24.846C22.4424 23.4973 23.5357 22.4039 24.8845 22.4038C26.2333 22.4038 27.3269 23.4972 27.327 24.846Z" fill="#121C13"/>
</svg>
