<svg width="50" height="50" viewBox="0 0 50 50" fill="none" xmlns="http://www.w3.org/2000/svg">
<path d="M22.7822 12.5757L22.6534 13.0388C22.7811 12.5802 22.782 12.5757 22.7822 12.5757L22.783 12.5761C22.7834 12.5762 22.784 12.5763 22.7845 12.5765C22.7857 12.5768 22.7875 12.5771 22.7894 12.5776C22.7932 12.5787 22.7985 12.5802 22.8052 12.5821C22.8185 12.586 22.8375 12.592 22.8619 12.5994C22.9107 12.6142 22.981 12.6362 23.07 12.6659C23.2478 12.7252 23.5009 12.8155 23.8088 12.9401C24.424 13.189 25.2616 13.5773 26.1536 14.1363C27.9318 15.2508 29.9684 17.0709 30.8426 19.8564C31.6972 22.5789 31.5809 24.8274 31.2434 26.4038C31.075 27.1907 30.8521 27.8085 30.6687 28.2334C30.577 28.4459 30.495 28.6105 30.4347 28.7239C30.4046 28.7807 30.3798 28.8248 30.3619 28.8558C30.3532 28.8707 30.3461 28.8826 30.3408 28.8915L30.3307 28.9102C30.3215 28.9279 30.3076 28.9555 30.2901 28.9917C30.2551 29.0645 30.2068 29.1715 30.1564 29.3031C30.0543 29.5699 29.9497 29.9218 29.9209 30.2879C29.8921 30.6539 29.941 31.0053 30.1121 31.3028C30.2782 31.5916 30.5901 31.8826 31.1901 32.0826C31.8009 32.2861 32.3109 32.277 32.7124 32.1389C33.1121 32.0013 33.4416 31.7237 33.6751 31.3216C34.1479 30.5071 34.2302 29.1558 33.5571 27.5731L33.0835 26.4598L34.1919 26.9443L33.9996 27.3849C34.1855 26.9596 34.192 26.945 34.1926 26.9447L34.1938 26.9451C34.1944 26.9454 34.1952 26.9458 34.196 26.9462C34.1977 26.947 34.1999 26.9481 34.2024 26.9492C34.2073 26.9514 34.2138 26.9542 34.2216 26.9579C34.2375 26.9653 34.2596 26.9761 34.2869 26.9898C34.3415 27.0172 34.4181 27.0575 34.513 27.1122C34.7031 27.2218 34.9675 27.3895 35.2777 27.6276C35.8984 28.1039 36.7032 28.8624 37.4664 30.0021C38.9979 32.2894 40.3332 36.0674 39.747 42.0856C39.7212 42.3498 39.4862 42.5432 39.2219 42.5175C38.9578 42.4917 38.7644 42.2566 38.79 41.9924C39.3576 36.1645 38.0586 32.615 36.6671 30.537C36.0418 29.6033 35.3916 28.9578 34.8695 28.5312C35.1409 29.7911 35.0058 30.9443 34.5066 31.8042C34.1679 32.3877 33.6628 32.8288 33.0253 33.0482C32.3895 33.267 31.6595 33.2528 30.8858 32.9949C30.1013 32.7334 29.5813 32.3082 29.2786 31.7821C28.9811 31.2648 28.9239 30.7025 28.9624 30.2128C29.0009 29.7233 29.1369 29.2768 29.2584 28.9594C29.3197 28.7991 29.379 28.6675 29.4236 28.5748C29.4459 28.5284 29.4648 28.4913 29.4785 28.4651C29.4853 28.4521 29.4909 28.4416 29.495 28.434C29.497 28.4303 29.4986 28.4273 29.4999 28.425C29.5005 28.4238 29.5013 28.4224 29.5018 28.4216L29.5025 28.4201C29.5028 28.42 29.5126 28.4252 29.9224 28.6541L29.5029 28.4197L29.5085 28.4096L29.5141 28.4005C29.5145 28.4 29.5156 28.3984 29.5168 28.3964C29.5193 28.3922 29.5235 28.3847 29.5295 28.3742C29.5418 28.353 29.561 28.3189 29.5855 28.2728C29.6345 28.1806 29.705 28.0396 29.7857 27.8525C29.9473 27.4781 30.1496 26.9204 30.3033 26.2025C30.61 24.7694 30.7247 22.691 29.9254 20.1445C29.1459 17.6607 27.317 16.0001 25.6432 14.951C24.8093 14.4284 24.0241 14.0644 23.4482 13.8314C23.4403 13.8282 23.4324 13.8251 23.4245 13.822C24.3471 16.779 24.2571 18.8477 23.645 20.4374C22.98 22.1645 21.711 23.2577 20.7656 24.2216L20.7641 24.2231C17.0265 27.9993 18.4991 26.3343 13.6995 31.5563C11.3949 34.0637 10.8869 36.6654 10.9463 38.6398C10.9761 39.6311 11.1494 40.4668 11.3148 41.0527C11.3973 41.3452 11.4777 41.5744 11.5364 41.7284C11.5656 41.8052 11.5895 41.8631 11.6055 41.9008C11.6135 41.9196 11.6194 41.9337 11.6231 41.9421C11.625 41.9462 11.6266 41.9492 11.6273 41.9507L11.6277 41.9515C11.7396 42.1921 11.6353 42.4778 11.3948 42.59C11.1542 42.7021 10.8681 42.5981 10.7559 42.3575L11.2351 42.134C11.2212 42.1405 11.2066 42.1473 11.1916 42.1543C10.7871 42.3429 10.7581 42.356 10.7559 42.3567L10.7555 42.3564C10.7553 42.3559 10.7551 42.3551 10.7548 42.3545C10.7542 42.3532 10.7534 42.3516 10.7525 42.3496C10.7507 42.3456 10.748 42.3402 10.745 42.3335C10.739 42.32 10.7308 42.3012 10.7206 42.2771C10.7001 42.2288 10.6718 42.1594 10.6379 42.0705C10.5702 41.8928 10.4804 41.6365 10.3893 41.3137C10.2073 40.6688 10.0178 39.7543 9.98515 38.6687C9.91956 36.4893 10.4884 33.6292 12.9915 30.9058C17.8071 25.6663 16.357 27.3089 20.0809 23.5466C21.0966 22.5113 22.1727 21.5852 22.7477 20.0919C23.3126 18.6249 23.4078 16.5394 22.2012 13.2022L21.8842 12.3256L22.7822 12.5757Z" fill="#121C13"/>
<path d="M36.6726 15.0002C36.6725 14.1825 36.0093 13.5196 35.1916 13.5196C34.3739 13.5197 33.711 14.1825 33.7109 15.0002C33.7109 15.818 34.3738 16.4811 35.1916 16.4812C36.0094 16.4812 36.6726 15.818 36.6726 15.0002ZM37.6341 15.0002C37.6341 16.3491 36.5404 17.4428 35.1916 17.4428C33.8428 17.4427 32.7494 16.349 32.7494 15.0002C32.7495 13.6515 33.8428 12.5581 35.1916 12.5581C36.5404 12.5581 37.634 13.6514 37.6341 15.0002Z" fill="#121C13"/>
<path d="M41.6723 8.2313C41.6723 8.21491 41.6694 8.20441 41.6671 8.19862C41.6647 8.1928 41.662 8.1891 41.6596 8.1866C41.6571 8.18409 41.6531 8.18112 41.6472 8.17871C41.6413 8.17637 41.631 8.17346 41.6149 8.17345H8.23032C8.21398 8.17345 8.20345 8.17635 8.19764 8.17871C8.19174 8.18112 8.18813 8.18409 8.18562 8.1866C8.18312 8.1891 8.18014 8.19271 8.17773 8.19862C8.17538 8.20442 8.17248 8.21495 8.17248 8.2313V41.6158C8.17249 41.632 8.17539 41.6423 8.17773 41.6481C8.18014 41.654 8.18312 41.658 8.18562 41.6605C8.18812 41.663 8.19183 41.6657 8.19764 41.668C8.20344 41.6704 8.21394 41.6733 8.23032 41.6733H41.6149C41.6311 41.6733 41.6414 41.6704 41.6472 41.668C41.6531 41.6656 41.6571 41.663 41.6596 41.6605C41.6621 41.658 41.6647 41.654 41.6671 41.6481C41.6694 41.6423 41.6723 41.6321 41.6723 41.6158V8.2313ZM42.6339 41.6158C42.6338 42.189 42.188 42.6348 41.6149 42.6348H8.23032C7.65713 42.6348 7.21098 42.189 7.21094 41.6158V8.2313C7.21094 7.65808 7.6571 7.21191 8.23032 7.21191H41.6149C42.188 7.21195 42.6339 7.65811 42.6339 8.2313V41.6158Z" fill="#121C13"/>
</svg>
