<svg width="80" height="80" viewBox="0 0 80 80" fill="none" xmlns="http://www.w3.org/2000/svg">
<path fill-rule="evenodd" clip-rule="evenodd" d="M40.4303 18.6153C44.1176 18.6155 47.1074 21.6046 47.1076 25.292C47.1076 28.9795 44.1177 31.9691 40.4303 31.9693C36.7428 31.9691 33.7536 28.9795 33.7536 25.292C33.7537 21.6046 36.7429 18.6154 40.4303 18.6153ZM40.4303 20.1538C37.5926 20.1539 35.2922 22.4543 35.2921 25.292C35.2921 28.1298 37.5925 30.4307 40.4303 30.4308C43.268 30.4307 45.5691 28.1298 45.5691 25.292C45.569 22.4543 43.268 20.1539 40.4303 20.1538Z" fill="#F5C03D"/>
<path fill-rule="evenodd" clip-rule="evenodd" d="M43.6917 10.3076C54.9473 10.3076 64.0919 19.4523 64.0919 30.7079V68.1844C64.0919 69.04 63.3778 69.7535 62.5222 69.7535H18.03C17.1745 69.7535 16.4609 69.04 16.4609 68.1844V30.7079C16.4609 19.4523 25.6056 10.3076 36.8612 10.3076H43.6917ZM36.8612 11.8461C26.4552 11.8461 17.9994 20.3019 17.9994 30.7079V68.1844C17.9994 68.1815 17.9985 68.1816 18 68.185C18.0018 68.1891 18.0059 68.1958 18.0126 68.2025C18.0193 68.2091 18.026 68.2127 18.03 68.2145C18.0319 68.2153 18.0325 68.2151 18.0325 68.2151H22.3888L28.7885 61.8154H27.5685C25.6669 61.8154 24.1534 60.3018 24.1532 58.4002V45.1081C24.1532 39.9448 28.3133 35.7848 33.4766 35.7848H47.015C52.0991 35.7849 56.2132 39.879 56.2764 44.8791V58.4002C56.2763 60.3017 54.7627 61.8153 52.8612 61.8154H51.7416L58.1635 68.2151H62.5222C62.5195 68.2151 62.5195 68.2159 62.5228 68.2145C62.5269 68.2127 62.5336 68.2091 62.5403 68.2025C62.5469 68.1958 62.5505 68.1891 62.5523 68.185C62.5538 68.1816 62.5535 68.1815 62.5535 68.1844V30.7079C62.5535 20.3019 54.0976 11.8461 43.6917 11.8461H36.8612ZM30.9639 61.8154L24.5643 68.2151H55.9844L49.5619 61.8154H30.9639ZM33.4766 37.3232C29.1629 37.3232 25.6917 40.7945 25.6917 45.1081V58.4002C25.6918 59.4521 26.5166 60.2769 27.5685 60.277H30.3269L39.131 51.4723C37.4532 51.0333 36.2152 49.5076 36.2151 47.6922C36.2153 45.5343 37.9646 43.7849 40.1226 43.7848C42.2805 43.7849 44.0305 45.5343 44.0307 47.6922C44.0306 49.4376 42.8853 50.9148 41.3059 51.4164L50.1977 60.277H52.8612C53.9131 60.2768 54.7379 59.4521 54.738 58.4002V44.899C54.6851 40.7424 51.2595 37.3234 47.015 37.3232H33.4766ZM32.5018 60.277H48.018L40.2464 52.5324L32.5018 60.277ZM40.1226 45.3232C38.8143 45.3234 37.7537 46.3839 37.7536 47.6922C37.7537 49.0005 38.8143 50.0617 40.1226 50.0618C41.4309 50.0617 42.4921 49.0005 42.4922 47.6922C42.4921 46.384 41.4309 45.3234 40.1226 45.3232Z" fill="#F5C03D"/>
</svg>
