<svg width="80" height="80" viewBox="0 0 80 80" fill="none" xmlns="http://www.w3.org/2000/svg">
<path fill-rule="evenodd" clip-rule="evenodd" d="M47.6749 26.2849H40.7686V30.7127C53.4263 31.0536 64.0114 39.785 67.1454 51.5871L66.5571 51.7434H70.7686V53.2819H46.7903V58.1623H67.9892C69.9359 58.1623 71.5379 59.7642 71.5379 61.7109V64.2915C71.5377 66.2381 69.9359 67.8395 67.9892 67.8395H12.0096C10.0629 67.8395 8.46105 66.2381 8.46094 64.2915V61.7109C8.46094 59.7642 10.0629 58.1623 12.0096 58.1623H32.2825V53.2819H9.23017V51.7434H13.9381L12.8546 51.4543C15.9897 39.7145 26.5763 31.0514 39.2302 30.7127V26.2849H32.3233V24.7464H47.6749V26.2849ZM12.0096 59.7007C10.9125 59.7007 9.9994 60.6139 9.9994 61.7109V64.2915C9.99951 65.3885 10.9126 66.3011 12.0096 66.3011H67.9892C69.0862 66.3011 69.9993 65.3885 69.9994 64.2915V61.7109C69.9994 60.6139 69.0863 59.7007 67.9892 59.7007H12.0096ZM33.8209 58.1623H45.2518V53.2819H33.8209V58.1623ZM40 32.2398C27.7546 32.2398 17.4298 40.4837 14.3714 51.7434H65.5926C62.489 40.4819 52.1944 32.2399 40 32.2398Z" fill="#F5C03D"/>
<path fill-rule="evenodd" clip-rule="evenodd" d="M40.0607 14C42.2188 14 43.9686 15.7494 43.9688 17.9075C43.9688 20.0656 42.2189 21.8155 40.0607 21.8155C37.9026 21.8154 36.1532 20.0655 36.1532 17.9075C36.1534 15.7495 37.9027 14.0001 40.0607 14ZM40.0607 15.5385C38.7524 15.5386 37.6918 16.5992 37.6917 17.9075C37.6917 19.2159 38.7523 20.2769 40.0607 20.277C41.3692 20.277 42.4303 19.2159 42.4303 17.9075C42.4302 16.5991 41.3691 15.5385 40.0607 15.5385Z" fill="#F5C03D"/>
</svg>
