<svg width="50" height="50" viewBox="0 0 50 50" fill="none" xmlns="http://www.w3.org/2000/svg">
<path d="M16.3273 9.07692C16.3273 8.25919 15.6641 7.5963 14.8463 7.5963C14.0287 7.59638 13.3658 8.25924 13.3657 9.07692C13.3657 9.89468 14.0286 10.5578 14.8463 10.5579C15.6642 10.5579 16.3273 9.89473 16.3273 9.07692ZM17.2889 9.07692C17.2889 10.4258 16.1952 11.5195 14.8463 11.5195C13.4976 11.5194 12.4042 10.4257 12.4042 9.07692C12.4043 7.72819 13.4976 6.63485 14.8463 6.63477C16.1951 6.63477 17.2888 7.72814 17.2889 9.07692Z" fill="#121C13"/>
<path d="M10.5773 8.17323C10.8428 8.17323 11.058 8.38847 11.058 8.654C11.058 8.91952 10.8428 9.13477 10.5773 9.13477H8.55015L3.09342 18.7746L24.8463 41.8755L46.5993 18.7746L41.1429 9.13477H19.1928C18.9273 9.13477 18.712 8.91952 18.712 8.654C18.712 8.38847 18.9273 8.17323 19.1928 8.17323H41.4235L41.4877 8.17736C41.6355 8.19727 41.7673 8.28515 41.8419 8.41699L47.6111 18.6093C47.7149 18.7927 47.6872 19.0227 47.5428 19.1761L25.1964 42.9066C25.1056 43.003 24.9789 43.0579 24.8463 43.0579C24.7139 43.0579 24.5875 43.003 24.4967 42.9066L2.15028 19.1761C2.00582 19.0227 1.97812 18.7927 2.08192 18.6093L7.85115 8.41699L7.88646 8.36328C7.97659 8.24447 8.11801 8.17323 8.26957 8.17323H10.5773Z" fill="#121C13"/>
<path d="M29.5447 12.0322C29.8033 11.9717 30.062 12.1323 30.1224 12.3909C30.1827 12.6493 30.0221 12.9077 29.7637 12.9681L2.60964 19.3143C2.35111 19.3747 2.09277 19.2141 2.03234 18.9556C1.97196 18.6971 2.13251 18.4387 2.39104 18.3783L29.5447 12.0322Z" fill="#121C13"/>
<path d="M18.7408 8.48948C18.826 8.25553 19.0739 8.12798 19.3102 8.18788L19.3572 8.20215L47.3571 18.3945C47.6066 18.4853 47.7352 18.7613 47.6444 19.0108C47.5593 19.2447 47.3116 19.3721 47.0754 19.3124L47.0281 19.2982L19.0281 9.10584L18.9827 9.08669C18.7634 8.9806 18.6557 8.72336 18.7408 8.48948Z" fill="#121C13"/>
</svg>
