<svg width="50" height="50" viewBox="0 0 50 50" fill="none" xmlns="http://www.w3.org/2000/svg">
<path d="M36.5797 25.0031C36.5797 18.1308 31.2069 13.4947 24.6514 12.4847L24.648 12.4843C23.8257 12.3522 22.492 12.3905 21.1673 12.5451C19.838 12.7004 18.6091 12.9619 17.9848 13.2351C17.972 13.2407 17.959 13.2461 17.9458 13.2505C13.6982 14.6839 9.59583 17.6867 6.53689 20.3588C5.01189 21.6909 3.75514 22.9324 2.88041 23.8406C2.44323 24.2945 2.10167 24.6647 1.87005 24.9208C1.84435 24.9492 1.82015 24.9764 1.79718 25.002C1.82054 25.0279 1.845 25.0557 1.87117 25.0846C2.10376 25.3408 2.44669 25.7113 2.8853 26.1656C3.7629 27.0744 5.02268 28.3174 6.55003 29.6519C9.5181 32.2451 13.4616 35.1531 17.5518 36.6516L17.948 36.7921L17.9751 36.8022C18.6034 37.061 19.8452 37.3143 21.1804 37.4697C22.5065 37.624 23.8377 37.6717 24.6465 37.5575C31.2427 36.4769 36.5797 31.8745 36.5797 25.0031ZM37.5412 25.0031C37.5412 32.4814 31.7148 37.3742 24.802 38.5067C24.7989 38.5072 24.7957 38.5077 24.7926 38.5082C23.8585 38.6422 22.4219 38.5822 21.0693 38.4248C19.7273 38.2686 18.3807 38.006 17.6205 37.6958C13.2185 36.1821 9.00911 33.0772 5.91752 30.3761C4.36539 29.02 3.08557 27.7573 2.19344 26.8334C1.74725 26.3713 1.39762 25.9935 1.15903 25.7306C1.03985 25.5993 0.948387 25.4966 0.886347 25.4264C0.855321 25.3913 0.831403 25.364 0.815359 25.3456C0.807383 25.3365 0.801131 25.3294 0.796954 25.3246C0.794919 25.3222 0.793557 25.3202 0.792447 25.319L0.790569 25.3171C0.790569 25.3171 0.790398 25.3169 1.15453 25.0031L0.790194 25.3167C0.635136 25.1366 0.635069 24.8702 0.789818 24.6898L0.790194 24.6891C0.790194 24.6891 0.791157 24.6882 0.791696 24.6876C0.792817 24.6863 0.794548 24.6843 0.796579 24.6819C0.800755 24.6771 0.806702 24.67 0.814608 24.6609C0.830593 24.6425 0.854316 24.6157 0.885221 24.5805C0.947041 24.5103 1.03828 24.4074 1.15716 24.2759C1.39489 24.0131 1.74336 23.6354 2.18818 23.1735C3.07761 22.2501 4.35401 20.9886 5.904 19.6346C8.99127 16.9378 13.2008 13.8409 17.6212 12.345C18.3872 12.0157 19.7228 11.7456 21.0557 11.59C22.406 11.4323 23.8453 11.3814 24.8005 11.5348L24.8001 11.5352C31.6814 12.5964 37.5412 17.5264 37.5412 25.0031Z" fill="#121C13"/>
<path d="M25.2169 11.5348C26.172 11.3813 27.6113 11.4323 28.9616 11.59C30.2949 11.7457 31.631 12.0159 32.3968 12.3453C36.7993 13.8591 41 16.9648 44.0829 19.6662C45.6306 21.0223 46.9058 22.2849 47.7946 23.2088C48.2391 23.671 48.5876 24.0487 48.8253 24.3116C48.944 24.443 49.035 24.546 49.0968 24.6162C49.1277 24.6513 49.1514 24.6782 49.1674 24.6966C49.1754 24.7058 49.1817 24.7128 49.1858 24.7176C49.1878 24.72 49.1892 24.722 49.1903 24.7233C49.1909 24.7239 49.1918 24.7248 49.1918 24.7248L49.1922 24.7255L49.2196 24.7604C49.3465 24.939 49.3372 25.1836 49.1918 25.3524L48.8275 25.0388L49.1915 25.3528L49.1911 25.3531L49.19 25.3546C49.1889 25.3559 49.1871 25.3579 49.1851 25.3603C49.1809 25.3651 49.1746 25.3722 49.1667 25.3813C49.1506 25.3997 49.1271 25.427 49.0961 25.4621C49.034 25.5323 48.9423 25.6349 48.823 25.7663C48.5844 26.0292 48.2348 26.407 47.7886 26.8691C46.8965 27.793 45.6166 29.0556 44.0645 30.4117C40.9705 33.1149 36.7571 36.2228 32.3514 37.7352C31.5899 38.0435 30.2587 38.3049 28.9308 38.4605C27.5868 38.6179 26.1593 38.6778 25.2251 38.5439L25.2199 38.5431C18.3375 37.4827 12.4765 32.552 12.4765 25.0744C12.4765 24.8089 12.6917 24.5937 12.9572 24.5937C13.2228 24.5937 13.438 24.8089 13.438 25.0744C13.438 31.9454 18.8088 36.5809 25.3626 37.5921C26.1705 37.7078 27.4974 37.6605 28.8189 37.5057C30.1447 37.3504 31.3782 37.0969 32.007 36.8379L32.034 36.8278C36.2649 35.3767 40.3682 32.3644 43.432 29.6876C44.9594 28.3531 46.2191 27.1101 47.0967 26.2013C47.5353 25.747 47.8783 25.3765 48.1109 25.1203C48.137 25.0915 48.1612 25.0635 48.1845 25.0376C48.1616 25.0121 48.1376 24.9849 48.112 24.9565C47.8804 24.7003 47.5386 24.3298 47.1016 23.8755C46.2274 22.9667 44.9721 21.7239 43.4493 20.3896C40.3945 17.7129 36.3003 14.7008 32.0697 13.2498C32.0573 13.2455 32.0449 13.2404 32.0329 13.2351C31.4086 12.9619 30.1797 12.7004 28.8504 12.5451C27.5256 12.3905 26.1917 12.3522 25.3693 12.4843C25.1072 12.5263 24.8605 12.3479 24.8183 12.0858C24.7762 11.8237 24.9547 11.5769 25.2169 11.5348Z" fill="#121C13"/>
<path d="M25.2931 24.5579C25.5586 24.5579 25.7739 24.7732 25.7739 25.0387C25.7739 25.3042 25.5586 25.5194 25.2931 25.5194H12.9572C12.6917 25.5194 12.4765 25.3042 12.4765 25.0387C12.4765 24.7732 12.6917 24.5579 12.9572 24.5579H25.2931Z" fill="#121C13"/>
</svg>
