<svg width="50" height="50" viewBox="0 0 50 50" fill="none" xmlns="http://www.w3.org/2000/svg">
<path d="M38.2293 32.215C38.0682 32.4261 37.7661 32.4666 37.5551 32.3055C37.3441 32.1445 37.3036 31.8427 37.4645 31.6317L38.2293 32.215ZM11.1988 11.1299C16.9977 3.9165 27.5415 2.54514 34.945 8.19421C42.5024 13.9315 43.968 24.6952 38.2293 32.215L37.4645 31.6317C42.8796 24.5361 41.4989 14.3766 34.364 8.96006L34.3628 8.95931C27.2686 3.5454 17.1085 4.96224 11.6908 12.061L11.6589 12.0986C11.4922 12.2765 11.2145 12.3026 11.0166 12.1515C10.8057 11.9904 10.7651 11.6887 10.9261 11.4777L11.1988 11.1299Z" fill="#121C13"/>
<path d="M46.2508 42.2696C46.2508 41.3428 45.4659 40.558 44.5391 40.558H5.84698C4.92019 40.558 4.13537 41.3428 4.13537 42.2696C4.13541 43.1963 4.92022 43.9812 5.84698 43.9812H44.5008C45.4715 43.9811 46.2507 43.1909 46.2508 42.2696ZM47.2123 42.2696C47.2122 43.7328 45.9916 44.9427 44.5008 44.9427H5.84698C4.38918 44.9427 3.17387 43.7274 3.17383 42.2696C3.17383 40.8117 4.38915 39.5964 5.84698 39.5964H44.5391C45.997 39.5964 47.2123 40.8117 47.2123 42.2696Z" fill="#121C13"/>
<path d="M9.74617 36.9987C9.59839 37.2191 9.30002 37.2782 9.07948 37.1305C8.85888 36.9827 8.79986 36.6841 8.94764 36.4635L9.74617 36.9987ZM33.1547 24.481L33.2141 24.4848C33.3518 24.502 33.4767 24.5781 33.5548 24.6951L41.4007 36.4642C41.548 36.6851 41.4883 36.9836 41.2674 37.1309C41.0464 37.2782 40.7479 37.2185 40.6007 36.9976L32.8975 25.4426H17.4877L9.74617 36.9987L8.94764 36.4635L16.8323 24.6944L16.8683 24.6467C16.959 24.5422 17.0912 24.481 17.2315 24.481H33.1547Z" fill="#121C13"/>
<path d="M42.9814 38.3465C42.9814 37.7275 42.4661 37.2119 41.8471 37.2118H8.50083C7.88173 37.2118 7.36614 37.7274 7.36614 38.3465C7.36618 38.9656 7.88176 39.4812 8.50083 39.4812H41.8471C42.4736 39.4811 42.9813 38.9965 42.9814 38.3465ZM43.9429 38.3465C43.9429 39.5425 42.9896 40.4427 41.8471 40.4427H8.50083C7.35071 40.4427 6.40464 39.4966 6.4046 38.3465C6.4046 37.1964 7.35069 36.2503 8.50083 36.2503H41.8471C42.9971 36.2504 43.9429 37.1964 43.9429 38.3465Z" fill="#121C13"/>
</svg>
