<svg width="50" height="50" viewBox="0 0 50 50" fill="none" xmlns="http://www.w3.org/2000/svg">
<path d="M44.9043 20.2689C44.9042 19.4512 44.241 18.7883 43.4233 18.7883C42.6056 18.7884 41.9428 19.4512 41.9427 20.2689C41.9427 21.0866 42.6056 21.7498 43.4233 21.7499C44.2411 21.7499 44.9043 21.0867 44.9043 20.2689ZM45.8658 20.2689C45.8658 21.6177 44.7721 22.7114 43.4233 22.7114C42.0745 22.7113 40.9811 21.6177 40.9811 20.2689C40.9812 18.9202 42.0746 17.8268 43.4233 17.8267C44.7721 17.8267 45.8657 18.9201 45.8658 20.2689Z" fill="#121C13"/>
<path d="M42.9428 15.5384V12.9227L24.2308 6.66034L5.48113 12.9227V24.88L24.2311 30.9174L43.276 24.7729C43.4222 24.7258 43.5822 24.7516 43.7064 24.8421C43.8306 24.9325 43.9043 25.0768 43.9044 25.2304V37.5768C43.9043 37.7854 43.7697 37.9702 43.5712 38.0343L24.3787 44.2265C24.2829 44.2574 24.1798 44.2577 24.0839 44.2268L4.85313 38.0343C4.64723 37.968 4.51077 37.7723 4.51997 37.5562C4.52922 37.3401 4.68182 37.1566 4.89257 37.1081L13.7387 35.0697C13.9974 35.0102 14.2552 35.1716 14.3149 35.4303C14.3745 35.689 14.2131 35.9472 13.9543 36.0068L6.80775 37.6534L24.2308 43.2638L42.9428 37.2268V25.8907L24.3787 31.8804C24.2829 31.9114 24.1798 31.9113 24.0839 31.8804L4.85313 25.6883C4.65442 25.6243 4.51959 25.4392 4.51959 25.2304V12.5768L4.5211 12.5381C4.53639 12.3473 4.66437 12.1822 4.84824 12.1208L24.079 5.69768L24.1162 5.68679C24.2043 5.66509 24.2971 5.66873 24.3836 5.69768L43.5761 12.1208C43.7721 12.1865 43.9044 12.3701 43.9044 12.5768V15.5384C43.9043 15.8038 43.689 16.0191 43.4236 16.0192C43.1581 16.0192 42.9429 15.8039 42.9428 15.5384Z" fill="#121C13"/>
<path d="M23.7504 43.769V12.8075C23.7504 12.542 23.9656 12.3267 24.2311 12.3267C24.4967 12.3267 24.7119 12.542 24.7119 12.8075V43.769C24.7119 44.0346 24.4967 44.2498 24.2311 44.2498C23.9656 44.2498 23.7504 44.0346 23.7504 43.769Z" fill="#121C13"/>
</svg>
