<svg width="20" height="20" viewBox="0 0 20 20" fill="none" xmlns="http://www.w3.org/2000/svg">
<g clip-path="url(#clip0_71_217)">
<path d="M6.42486 0.69214C5.40342 0.740332 4.70588 0.90334 4.09609 1.14296C3.46499 1.38891 2.93008 1.71896 2.39785 2.2531C1.86563 2.78724 1.53788 3.32254 1.29366 3.9546C1.05731 4.56574 0.897181 5.26385 0.852061 6.28587C0.806941 7.30788 0.796957 7.6364 0.801949 10.2434C0.806941 12.8503 0.818461 13.1771 0.867997 14.2013C0.916765 15.2225 1.0792 15.9199 1.31881 16.5298C1.56515 17.1609 1.89481 17.6957 2.42915 18.2281C2.96348 18.7605 3.4984 19.0875 4.132 19.3321C4.74256 19.568 5.44086 19.7289 6.46269 19.7737C7.48451 19.8184 7.8134 19.8288 10.4196 19.8238C13.0258 19.8188 13.3539 19.8073 14.3779 19.7587C15.4018 19.7101 16.0955 19.5465 16.7057 19.3081C17.3368 19.0612 17.8719 18.7321 18.4039 18.1975C18.936 17.663 19.2635 17.1273 19.5075 16.4949C19.7441 15.8843 19.9048 15.186 19.9491 14.165C19.9939 13.1403 20.0044 12.8131 19.9995 10.2065C19.9945 7.59992 19.9827 7.27313 19.9342 6.24939C19.8856 5.22564 19.723 4.53041 19.4835 3.92004C19.2368 3.28894 18.9075 2.7546 18.3734 2.2218C17.8393 1.689 17.3032 1.36164 16.6709 1.11819C16.06 0.881836 15.3621 0.720748 14.3403 0.676588C13.3184 0.632428 12.9895 0.6211 10.3824 0.626092C7.7752 0.631084 7.4488 0.64222 6.42486 0.69214ZM6.53699 18.0466C5.60099 18.0059 5.09276 17.8504 4.75408 17.7202C4.30556 17.5474 3.98608 17.3385 3.64854 17.0043C3.311 16.67 3.10364 16.3494 2.92854 15.9018C2.79702 15.5631 2.63862 15.0555 2.59484 14.1195C2.54723 13.1078 2.53724 12.8041 2.53168 10.2411C2.52611 7.67806 2.5359 7.3747 2.58025 6.36267C2.62019 5.42744 2.77667 4.91864 2.90665 4.58014C3.07945 4.13105 3.28758 3.81214 3.62262 3.4748C3.95766 3.13745 4.27734 2.92971 4.72528 2.7546C5.06358 2.62251 5.57123 2.46545 6.50684 2.42091C7.51926 2.37291 7.82262 2.36331 10.3852 2.35774C12.9479 2.35217 13.252 2.36177 14.2648 2.40632C15.2 2.44702 15.709 2.60196 16.0471 2.73272C16.4958 2.90552 16.8151 3.11307 17.1525 3.44868C17.4898 3.7843 17.6978 4.10283 17.8729 4.55172C18.0051 4.88907 18.1622 5.39652 18.2064 6.33272C18.2546 7.34513 18.2655 7.64868 18.2701 10.2111C18.2747 12.7735 18.2657 13.0779 18.2213 14.0895C18.1804 15.0255 18.0253 15.5339 17.8949 15.873C17.7221 16.3213 17.5138 16.641 17.1786 16.9782C16.8434 17.3153 16.5241 17.5231 16.0759 17.6982C15.738 17.8301 15.2298 17.9875 14.2949 18.032C13.2825 18.0797 12.9792 18.0896 10.4156 18.0952C7.852 18.1008 7.5496 18.0904 6.53718 18.0466M14.3631 5.09412C14.3635 5.32198 14.4314 5.54461 14.5583 5.73386C14.6853 5.9231 14.8654 6.07045 15.0761 6.15728C15.2868 6.24411 15.5185 6.26652 15.7419 6.22166C15.9653 6.17681 16.1704 6.06671 16.3312 5.90529C16.492 5.74388 16.6013 5.53839 16.6454 5.31483C16.6894 5.09126 16.6662 4.85966 16.5786 4.64931C16.491 4.43896 16.3429 4.25932 16.1532 4.1331C15.9635 4.00688 15.7407 3.93975 15.5128 3.9402C15.2073 3.94081 14.9146 4.06272 14.699 4.27911C14.4834 4.4955 14.3626 4.78866 14.3631 5.09412ZM5.47158 10.2345C5.47696 12.9571 7.68803 15.1591 10.41 15.154C13.132 15.1488 15.3356 12.9379 15.3304 10.2153C15.3252 7.49278 13.1136 5.29016 10.3912 5.29553C7.66883 5.30091 5.4664 7.51236 5.47158 10.2345ZM7.20073 10.2311C7.19948 9.59817 7.38594 8.9791 7.73652 8.45216C8.08711 7.92522 8.58608 7.51407 9.17033 7.27071C9.75458 7.02735 10.3979 6.9627 11.0189 7.08495C11.6399 7.2072 12.2107 7.51084 12.6591 7.95749C13.1075 8.40414 13.4134 8.97373 13.5381 9.59424C13.6628 10.2147 13.6007 10.8583 13.3597 11.4435C13.1186 12.0287 12.7095 12.5293 12.1839 12.882C11.6584 13.2347 11.04 13.4236 10.4071 13.4248C9.98688 13.4257 9.57057 13.3438 9.18198 13.1838C8.79339 13.0237 8.44013 12.7887 8.14238 12.4921C7.84462 12.1956 7.60821 11.8432 7.44664 11.4553C7.28507 11.0673 7.20151 10.6513 7.20073 10.2311Z" fill="#F5C03D"/>
</g>
<defs>
<clipPath id="clip0_71_217">
<rect width="19.2" height="19.2" fill="white" transform="translate(0.800781 0.625)"/>
</clipPath>
</defs>
</svg>
