<svg width="16" height="17" viewBox="0 0 16 17" fill="none" xmlns="http://www.w3.org/2000/svg">
<g clip-path="url(#clip0_83_403)">
<path d="M4.68673 0.280559C3.83553 0.320719 3.25425 0.456559 2.74609 0.656239C2.22017 0.861199 1.77441 1.13624 1.33089 1.58136C0.887373 2.02648 0.614253 2.47256 0.410733 2.99928C0.213773 3.50856 0.080333 4.09032 0.042733 4.942C0.00513298 5.79368 -0.00318703 6.06744 0.000972972 8.23992C0.00513297 10.4124 0.014733 10.6847 0.056013 11.5382C0.096653 12.3892 0.232013 12.9703 0.431693 13.4786C0.636973 14.0046 0.911693 14.4502 1.35697 14.8938C1.80225 15.3375 2.24801 15.61 2.77601 15.8138C3.28481 16.0105 3.86673 16.1446 4.71825 16.1818C5.56977 16.2191 5.84385 16.2278 8.01569 16.2236C10.1875 16.2194 10.461 16.2098 11.3143 16.1694C12.1675 16.1289 12.7456 15.9926 13.2541 15.7938C13.78 15.5881 14.2259 15.3138 14.6693 14.8684C15.1127 14.423 15.3856 13.9766 15.589 13.4495C15.7861 12.9407 15.92 12.3588 15.957 11.5079C15.9943 10.654 16.0031 10.3814 15.9989 8.2092C15.9947 6.03704 15.985 5.76472 15.9445 4.9116C15.904 4.05848 15.7685 3.47912 15.569 2.97048C15.3634 2.44456 15.089 1.99928 14.6439 1.55528C14.1987 1.11128 13.752 0.83848 13.2251 0.635599C12.716 0.438639 12.1344 0.304399 11.2829 0.267599C10.4314 0.230799 10.1573 0.221359 7.98465 0.225519C5.81201 0.229679 5.54001 0.238959 4.68673 0.280559ZM4.78017 14.7426C4.00017 14.7087 3.57665 14.5791 3.29441 14.4706C2.92065 14.3266 2.65441 14.1526 2.37313 13.874C2.09185 13.5954 1.91905 13.3282 1.77313 12.9553C1.66353 12.673 1.53153 12.25 1.49505 11.47C1.45537 10.627 1.44705 10.3738 1.44241 8.238C1.43777 6.10216 1.44593 5.84936 1.48289 5.006C1.51617 4.22664 1.64657 3.80264 1.75489 3.52056C1.89889 3.14632 2.07233 2.88056 2.35153 2.59944C2.63073 2.31832 2.89713 2.1452 3.27041 1.99928C3.55233 1.8892 3.97537 1.75832 4.75505 1.7212C5.59873 1.6812 5.85153 1.6732 7.98705 1.66856C10.1226 1.66392 10.376 1.67192 11.22 1.70904C11.9994 1.74296 12.4235 1.87208 12.7053 1.98104C13.0792 2.12504 13.3453 2.298 13.6264 2.57768C13.9075 2.85736 14.0808 3.1228 14.2267 3.49688C14.337 3.778 14.4679 4.20088 14.5047 4.98104C14.5448 5.82472 14.5539 6.07768 14.5578 8.21304C14.5616 10.3484 14.5541 10.602 14.5171 11.445C14.4831 12.225 14.3538 12.6487 14.2451 12.9313C14.1011 13.3049 13.9275 13.5713 13.6482 13.8522C13.3688 14.1332 13.1027 14.3063 12.7293 14.4522C12.4477 14.5622 12.0242 14.6934 11.2451 14.7305C10.4015 14.7702 10.1487 14.7785 8.01233 14.7831C5.87601 14.7878 5.62401 14.7791 4.78033 14.7426M11.3019 3.94888C11.3022 4.13876 11.3589 4.32429 11.4646 4.48199C11.5704 4.63969 11.7206 4.76249 11.8961 4.83484C12.0717 4.9072 12.2647 4.92587 12.4509 4.88849C12.6371 4.85112 12.808 4.75937 12.942 4.62485C13.076 4.49034 13.1671 4.3191 13.2038 4.1328C13.2405 3.94649 13.2212 3.75349 13.1481 3.5782C13.0751 3.40291 12.9518 3.25321 12.7937 3.14802C12.6356 3.04284 12.4499 2.9869 12.26 2.98728C12.0055 2.98779 11.7615 3.08938 11.5819 3.2697C11.4022 3.45003 11.3015 3.69433 11.3019 3.94888ZM3.89233 8.23256C3.89681 10.5014 5.73937 12.3364 8.00769 12.3321C10.276 12.3278 12.1123 10.4854 12.108 8.21656C12.1037 5.94776 10.2607 4.11224 7.99201 4.11672C5.72337 4.1212 3.88801 5.96408 3.89233 8.23256ZM5.33329 8.22968C5.33225 7.70225 5.48763 7.18636 5.77978 6.74724C6.07194 6.30813 6.48775 5.9655 6.97462 5.7627C7.4615 5.5599 7.99758 5.50603 8.51508 5.6079C9.03257 5.70977 9.50824 5.96281 9.88192 6.33502C10.2556 6.70723 10.5105 7.18189 10.6145 7.69898C10.7184 8.21606 10.6666 8.75235 10.4658 9.24003C10.2649 9.72771 9.92391 10.1449 9.48595 10.4388C9.04799 10.7327 8.53272 10.8901 8.00529 10.8911C7.65508 10.8919 7.30816 10.8236 6.98433 10.6902C6.66051 10.5569 6.36612 10.361 6.118 10.1139C5.86987 9.86674 5.67286 9.57313 5.53822 9.24984C5.40358 8.92654 5.33394 8.57989 5.33329 8.22968Z" fill="#F5C03D"/>
</g>
<defs>
<clipPath id="clip0_83_403">
<rect width="16" height="16" fill="white" transform="translate(0 0.224609)"/>
</clipPath>
</defs>
</svg>
