<svg width="3648" height="297" viewBox="0 0 3648 297" fill="none" xmlns="http://www.w3.org/2000/svg">
<g style="mix-blend-mode:overlay" opacity="0.6">
<path d="M3350.99 290.333V282.223C3362.35 280.601 3370.46 277.357 3375.32 269.247C3380.19 262.76 3389.92 243.296 3404.52 210.856L3493.73 0H3501.84L3608.89 243.296C3615.38 259.516 3621.86 269.247 3626.73 274.113C3631.6 277.357 3638.08 280.601 3647.82 282.223V290.333H3537.52V282.223C3550.5 280.601 3558.61 278.979 3561.85 277.357C3565.1 275.735 3566.72 272.491 3566.72 266.003C3566.72 264.381 3566.72 259.516 3565.1 254.65C3563.47 249.784 3561.85 243.296 3558.61 238.43L3540.77 196.259H3428.85C3417.5 223.832 3411.01 241.674 3409.39 248.162C3407.76 254.649 3406.14 259.516 3406.14 262.76C3406.14 269.248 3409.39 275.735 3414.25 277.357C3417.5 278.979 3423.98 280.601 3435.34 280.601V288.711H3350.99V290.333ZM3535.9 180.039L3485.62 61.6347L3436.96 180.039H3535.9ZM2960.1 283.845C2976.32 282.223 2986.05 278.979 2990.92 272.491C2995.78 266.003 2997.41 254.65 2997.41 233.564V66.501L2992.54 60.0132C2987.67 53.5253 2982.81 48.6591 2977.94 47.0371C2974.7 45.4151 2968.21 43.7934 2960.1 43.7934V37.3052H3024.98L3170.96 220.588V92.4526C3170.96 71.367 3167.71 58.3912 3161.22 51.9033C3156.36 47.0374 3148.25 45.4154 3133.65 43.7934V37.3052H3222.86V43.7934C3208.26 45.4154 3198.53 48.6591 3193.66 55.147C3188.8 60.0129 3187.18 72.9886 3187.18 94.0742V295.199H3180.69L3012 85.9643V233.564C3012 254.65 3015.25 267.625 3021.73 274.113C3024.98 278.979 3034.71 280.601 3047.69 282.223V288.711H2958.48V283.845H2960.1ZM2570.83 290.333V283.845C2580.56 282.223 2588.67 278.979 2593.53 272.491C2598.4 266.003 2606.51 249.784 2619.48 220.588L2698.96 34.0615H2707.07L2801.15 249.784C2807.63 264.381 2812.5 272.491 2815.74 275.735C2818.99 278.979 2825.48 282.223 2835.21 282.223V288.711H2737.89V282.223C2749.24 280.601 2755.73 280.601 2758.97 278.979C2762.22 277.357 2763.84 274.113 2763.84 269.247C2763.84 267.626 2763.84 264.381 2762.22 259.516C2760.6 254.65 2758.97 249.784 2757.35 244.918L2741.13 207.612H2642.19C2632.46 231.942 2625.97 248.162 2624.35 253.028C2622.73 257.894 2621.11 262.759 2621.11 266.003C2621.11 272.491 2624.35 277.357 2629.22 278.979C2632.46 280.601 2638.95 282.223 2647.06 282.223V288.711H2570.83V290.333ZM2736.27 193.015L2692.47 87.5864L2648.68 193.015H2736.27ZM2116.67 283.845C2132.89 282.223 2142.63 278.979 2147.49 272.491C2152.36 267.625 2153.98 254.65 2153.98 233.564V79.4765C2153.98 66.5008 2152.36 56.7692 2147.49 51.9033C2142.63 47.0374 2132.89 45.4154 2118.3 43.7934V37.3052H2192.91L2280.49 228.698L2364.84 37.3052H2441.07V43.7934C2426.47 45.4154 2418.36 47.0374 2413.5 51.9033C2408.63 56.7692 2407.01 64.8787 2407.01 77.8545V246.54C2407.01 261.138 2408.63 269.247 2413.5 272.491C2418.36 275.735 2426.47 278.979 2441.07 280.601V287.089H2334.02V280.601C2348.62 278.979 2358.35 277.357 2363.21 272.491C2368.08 267.625 2368.08 257.893 2368.08 241.674V71.3667L2270.76 288.711H2265.89L2170.2 81.0986V233.564C2170.2 254.65 2173.44 267.625 2179.93 274.113C2183.17 278.979 2192.91 280.601 2205.88 282.223V288.711H2116.67V283.845ZM1729.02 290.333V283.845C1738.75 282.223 1746.86 278.979 1751.73 272.491C1756.6 266.003 1764.71 249.784 1777.68 220.588L1857.16 34.0615H1865.27L1959.34 249.784C1965.83 264.381 1970.7 272.491 1973.94 275.735C1977.18 278.979 1983.67 282.223 1993.4 282.223V288.711H1896.09V282.223C1907.44 280.601 1913.93 280.601 1917.17 278.979C1920.41 277.357 1922.04 274.113 1922.04 269.247C1922.04 267.626 1922.04 264.381 1920.42 259.516C1918.79 254.65 1917.17 249.784 1915.55 244.918L1899.33 207.612H1800.39C1790.66 231.942 1784.17 248.162 1782.55 253.028C1780.93 257.894 1779.3 262.759 1779.3 266.003C1779.3 272.491 1782.55 277.357 1787.41 278.979C1790.66 280.601 1797.15 282.223 1805.26 282.223V288.711H1729.02V290.333ZM1894.46 193.015L1850.67 87.5864L1806.88 193.015H1894.46ZM1341.37 283.845C1355.97 282.223 1365.7 278.979 1368.94 275.735C1372.19 272.491 1373.81 261.138 1373.81 244.918V79.4765C1373.81 66.5008 1372.19 56.7688 1367.32 53.5249C1362.46 48.659 1354.35 47.037 1339.75 45.415V38.9272H1445.18V45.415C1430.58 47.037 1422.47 48.659 1417.6 53.5249C1412.74 58.3908 1411.12 66.5008 1411.12 79.4765V154.087H1526.28V79.4765C1526.28 66.5008 1524.65 56.7688 1519.79 53.5249C1514.92 48.659 1506.81 47.037 1492.21 45.415V38.9272H1597.64V45.415C1583.04 47.037 1574.94 48.659 1570.07 53.5249C1565.2 58.3908 1563.58 66.5008 1563.58 79.4765V248.162C1563.58 262.759 1565.2 270.869 1570.07 274.113C1574.94 277.357 1583.04 280.601 1597.64 282.223V288.711H1492.21V282.223C1506.81 280.601 1516.54 277.357 1519.79 274.113C1523.03 270.869 1524.65 259.516 1524.65 243.296V168.685H1409.49V246.54C1409.49 261.138 1411.12 269.247 1415.98 274.113C1420.85 277.357 1428.96 280.601 1443.55 282.223V288.711H1338.13V283.845H1341.37ZM1107.81 34.0615C1120.78 34.0615 1135.38 35.6834 1149.98 40.5493C1164.58 45.4152 1172.69 47.0371 1174.31 47.0371C1177.55 47.0371 1180.8 45.4154 1184.04 43.7934C1187.28 42.1715 1188.91 38.9274 1190.53 34.0615H1198.64L1201.88 120.026H1193.77C1188.91 103.806 1182.42 89.2084 1174.31 79.4765C1158.09 60.0129 1137 50.2812 1111.05 50.2812C1085.1 50.2812 1062.39 60.013 1046.17 81.0986C1029.95 102.184 1020.22 131.38 1020.22 168.685C1020.22 202.746 1028.33 230.32 1046.17 249.784C1064.01 269.247 1086.72 280.601 1114.29 280.601C1133.76 280.601 1151.6 275.735 1169.44 266.003C1179.17 261.137 1188.91 253.028 1200.26 241.674L1206.75 248.162C1198.64 259.515 1187.28 267.625 1175.93 275.735C1154.84 288.711 1132.14 296.821 1106.18 296.821C1065.64 296.821 1033.2 283.845 1008.87 257.893C986.159 233.564 974.805 202.746 974.805 167.063C974.805 129.758 986.159 98.9403 1010.49 72.9888C1034.82 47.0372 1067.26 34.0615 1107.81 34.0615ZM394.139 290.333V283.845C403.871 282.223 411.981 278.979 416.847 272.491C421.712 266.003 429.822 249.784 442.798 220.588L522.275 34.0615H530.385L624.459 249.784C630.947 264.381 635.813 272.491 639.057 275.735C642.301 278.979 648.789 282.223 658.521 282.223V288.711H561.203V282.223C572.556 280.601 579.044 280.601 582.288 278.979C585.532 277.357 587.154 274.113 587.154 269.247C587.154 267.626 587.154 264.381 585.532 259.516C583.91 254.65 582.288 249.784 580.666 244.918L564.447 207.612H465.506C455.774 231.942 449.286 248.162 447.664 253.028C446.042 257.894 444.42 262.759 444.42 266.003C444.42 272.491 447.664 277.357 452.53 278.979C455.774 280.601 462.262 282.223 470.371 282.223V288.711H394.139V290.333ZM557.958 193.015L514.165 87.5864L470.371 193.015H557.958ZM1.62207 282.223C17.8418 280.601 27.5735 277.357 32.4394 274.113C37.3054 270.869 38.9272 259.516 38.9272 243.296V51.9033C38.9272 37.3056 37.3054 25.9515 32.4394 22.7075C27.5735 17.8416 17.8418 14.5977 1.62207 14.5977V6.48779H123.27V14.5977C107.05 16.2196 97.3184 17.8416 90.8305 22.7075C85.9646 27.5734 82.7207 35.6835 82.7207 50.2812V257.893C82.7207 262.759 82.7203 266.004 84.3423 269.247C85.9642 272.491 89.2084 274.113 95.6963 274.113C98.9402 274.113 102.184 274.113 105.428 275.735C108.672 275.735 115.16 275.735 124.892 275.735C163.819 275.735 189.771 272.491 202.747 266.003C215.722 259.515 228.698 243.296 241.674 217.344H253.028L231.942 291.955H0V282.223H1.62207Z" fill="url(#paint0_linear_71_254)"/>
</g>
<defs>
<linearGradient id="paint0_linear_71_254" x1="1823.91" y1="0" x2="1823.91" y2="296.821" gradientUnits="userSpaceOnUse">
<stop stop-color="white"/>
<stop offset="1" stop-color="#999999"/>
</linearGradient>
</defs>
</svg>
