<svg width="2353" height="310" viewBox="0 0 2353 310" fill="none" xmlns="http://www.w3.org/2000/svg">
<g style="mix-blend-mode:overlay" opacity="0.3">
<path d="M44.2395 303C34.3812 303 25.7903 303.423 18.467 304.268L6.63701 304.69C2.41201 304.69 0.299512 303 0.299512 299.62C0.299512 297.93 1.00368 296.381 2.41201 294.972C3.82035 293.564 6.07368 291.874 9.17201 289.902C15.3687 285.677 20.157 281.312 23.537 276.805C27.1987 272.017 29.0295 265.397 29.0295 256.947V52.035C29.0295 44.1483 27.1987 38.0925 23.537 33.8675C20.157 29.3608 15.3687 24.8541 9.17201 20.3475C6.07368 18.0941 3.82035 16.4041 2.41201 15.2775C1.00368 13.8691 0.299512 12.32 0.299512 10.63C0.299512 7.24996 2.41201 5.55995 6.63701 5.55995L18.467 5.98247C25.7903 6.82746 34.3812 7.24996 44.2395 7.24996H47.6195C57.7595 7.24996 66.3504 6.82746 73.392 5.98247L85.222 5.55995C89.447 5.55995 91.5595 7.24996 91.5595 10.63C91.5595 12.32 90.8554 13.8691 89.447 15.2775C88.0387 16.4041 85.7854 18.0941 82.687 20.3475C76.4904 24.5725 71.5612 29.0791 67.8995 33.8675C64.5195 38.3741 62.8295 44.8525 62.8295 53.3025V286.1H151.977C161.554 286.1 169.722 282.861 176.482 276.382C183.242 269.622 189.861 260.891 196.34 250.187C200.283 244.272 203.1 240.188 204.79 237.935C206.761 235.682 208.733 234.555 210.705 234.555C212.676 234.555 213.662 236.104 213.662 239.202C213.662 244.554 212.113 252.863 209.015 264.13C205.635 277.65 203.945 287.227 203.945 292.86C203.945 296.803 203.24 299.479 201.832 300.887C200.705 302.296 198.734 303 195.917 303H44.2395ZM205.163 299.62C205.163 297.648 206.008 295.958 207.698 294.55C209.388 293.142 212.345 291.029 216.57 288.212C223.048 283.987 228.541 279.762 233.048 275.537C237.836 271.031 241.498 265.257 244.033 258.215L316.703 53.3025C317.829 50.2041 318.393 47.2466 318.393 44.43C318.393 38.7966 316.562 34.29 312.9 30.91C309.52 27.53 304.732 24.0091 298.535 20.3475C294.873 18.3758 292.198 16.6858 290.508 15.2775C288.818 13.5875 287.973 12.0383 287.973 10.63C287.973 7.24996 290.085 5.55995 294.31 5.55995L306.14 5.98247C313.463 6.82746 322.054 7.24996 331.913 7.24996H345.01L440.073 256.947C442.889 264.271 446.41 270.327 450.635 275.115C455.142 279.622 460.212 283.847 465.845 287.79C469.788 290.888 472.464 293.142 473.873 294.55C475.281 295.958 475.985 297.648 475.985 299.62C475.985 303 473.309 304.69 467.958 304.69L453.17 304.268C443.875 303.423 433.313 303 421.483 303C411.624 303 403.033 303.423 395.71 304.268L383.88 304.69C379.655 304.69 377.543 303 377.543 299.62C377.543 298.212 378.388 296.803 380.078 295.395C382.049 293.987 384.866 292.156 388.528 289.902C394.724 286.241 399.513 282.861 402.893 279.762C406.273 276.382 407.963 272.157 407.963 267.087C407.963 264.271 407.399 261.313 406.273 258.215L385.148 203.29H281.213L262.2 256.947C261.073 260.046 260.51 263.003 260.51 265.82C260.51 271.453 262.2 275.96 265.58 279.34C269.242 282.72 274.171 286.241 280.368 289.902C284.029 291.874 286.705 293.705 288.395 295.395C290.085 296.803 290.93 298.212 290.93 299.62C290.93 303 288.818 304.69 284.593 304.69L272.763 303.845C269.101 303.845 263.045 303.563 254.595 303C242.765 303.563 234.456 303.845 229.668 303.845L213.613 304.69C207.979 304.69 205.163 303 205.163 299.62ZM378.81 186.39L331.068 63.02L287.128 186.39H378.81ZM690.853 309.76C663.531 309.76 639.308 302.578 618.183 288.212C597.339 273.847 581.144 254.553 569.595 230.33C558.047 206.107 552.273 179.771 552.273 151.322C552.273 124.282 557.484 99.355 567.905 76.54C578.327 53.725 594.523 35.4166 616.493 21.615C638.463 7.53164 665.925 0.489969 698.88 0.489969C711.274 0.489969 723.244 1.61664 734.793 3.86998C746.341 6.1233 755.777 9.08079 763.1 12.7425C770.424 16.4041 774.367 20.0658 774.93 23.7275L782.535 64.71C783.38 68.3716 783.803 71.3291 783.803 73.5825C783.803 76.9625 782.817 78.6525 780.845 78.6525C779.437 78.6525 777.606 77.385 775.353 74.85C773.099 72.315 770.705 69.3575 768.17 65.9775C758.03 52.1758 747.045 40.6275 735.215 31.3325C723.385 22.0375 708.316 17.39 690.008 17.39C667.193 17.39 648.321 23.5866 633.393 35.98C618.464 48.3733 607.479 64.71 600.438 84.99C593.678 104.988 590.298 127.099 590.298 151.322C590.298 177.236 594.523 200.896 602.973 222.302C611.423 243.709 623.816 260.891 640.153 273.847C656.489 286.522 675.924 292.86 698.458 292.86C717.611 292.86 734.089 289.48 747.89 282.72C761.692 275.678 773.381 265.257 782.958 251.455C784.929 248.638 787.042 247.23 789.295 247.23C792.112 247.23 793.52 248.638 793.52 251.455C793.52 253.427 792.394 255.962 790.14 259.06C778.029 275.96 764.227 288.635 748.735 297.085C733.525 305.535 714.231 309.76 690.853 309.76ZM835.222 303C825.364 303 816.773 303.423 809.45 304.268L797.62 304.69C793.395 304.69 791.282 303 791.282 299.62C791.282 297.93 791.986 296.381 793.395 294.972C794.803 293.564 797.056 291.874 800.155 289.902C806.351 285.396 811.14 281.03 814.52 276.805C818.181 272.298 820.012 266.102 820.012 258.215V53.3025C820.012 44.8525 818.181 38.3741 814.52 33.8675C811.14 29.0791 806.351 24.5725 800.155 20.3475C797.056 18.0941 794.803 16.4041 793.395 15.2775C791.986 13.8691 791.282 12.32 791.282 10.63C791.282 7.24996 793.395 5.55995 797.62 5.55995L809.45 5.98247C816.773 6.82746 825.364 7.24996 835.222 7.24996H838.602C848.742 7.24996 857.333 6.82746 864.375 5.98247L876.205 5.55995C880.43 5.55995 882.542 7.24996 882.542 10.63C882.542 12.32 881.838 13.8691 880.43 15.2775C879.021 16.4041 876.768 18.0941 873.67 20.3475C867.473 24.8541 862.544 29.3608 858.882 33.8675C855.502 38.0925 853.812 44.1483 853.812 52.035V147.097H963.662V53.3025C963.662 44.8525 961.831 38.3741 958.17 33.8675C954.79 29.0791 950.001 24.5725 943.805 20.3475C940.706 18.0941 938.453 16.4041 937.045 15.2775C935.636 13.8691 934.932 12.32 934.932 10.63C934.932 7.24996 937.045 5.55995 941.27 5.55995L953.1 5.98247C960.423 6.82746 969.014 7.24996 978.872 7.24996H982.252C992.392 7.24996 1000.98 6.82746 1008.02 5.98247L1019.85 5.55995C1024.08 5.55995 1026.19 7.24996 1026.19 10.63C1026.19 12.32 1025.49 13.8691 1024.08 15.2775C1022.67 16.4041 1020.42 18.0941 1017.32 20.3475C1011.12 24.8541 1006.19 29.3608 1002.53 33.8675C999.152 38.0925 997.462 44.1483 997.462 52.035V256.947C997.462 265.397 999.152 272.017 1002.53 276.805C1006.19 281.312 1011.12 285.677 1017.32 289.902C1020.42 291.874 1022.67 293.564 1024.08 294.972C1025.49 296.381 1026.19 297.93 1026.19 299.62C1026.19 303 1024.08 304.69 1019.85 304.69L1008.02 304.268C1000.98 303.423 992.392 303 982.252 303H978.872C969.014 303 960.423 303.423 953.1 304.268L941.27 304.69C937.045 304.69 934.932 303 934.932 299.62C934.932 297.93 935.636 296.381 937.045 294.972C938.453 293.564 940.706 291.874 943.805 289.902C950.001 285.396 954.79 281.03 958.17 276.805C961.831 272.298 963.662 266.102 963.662 258.215V163.997H853.812V256.947C853.812 265.397 855.502 272.017 858.882 276.805C862.544 281.312 867.473 285.677 873.67 289.902C876.768 291.874 879.021 293.564 880.43 294.972C881.838 296.381 882.542 297.93 882.542 299.62C882.542 303 880.43 304.69 876.205 304.69L864.375 304.268C857.333 303.423 848.742 303 838.602 303H835.222ZM1022.14 299.62C1022.14 297.648 1022.98 295.958 1024.67 294.55C1026.36 293.142 1029.32 291.029 1033.55 288.212C1040.02 283.987 1045.52 279.762 1050.02 275.537C1054.81 271.031 1058.47 265.257 1061.01 258.215L1133.68 53.3025C1134.81 50.2041 1135.37 47.2466 1135.37 44.43C1135.37 38.7966 1133.54 34.29 1129.88 30.91C1126.5 27.53 1121.71 24.0091 1115.51 20.3475C1111.85 18.3758 1109.17 16.6858 1107.48 15.2775C1105.79 13.5875 1104.95 12.0383 1104.95 10.63C1104.95 7.24996 1107.06 5.55995 1111.29 5.55995L1123.12 5.98247C1130.44 6.82746 1139.03 7.24996 1148.89 7.24996H1161.99L1257.05 256.947C1259.87 264.271 1263.39 270.327 1267.61 275.115C1272.12 279.622 1277.19 283.847 1282.82 287.79C1286.76 290.888 1289.44 293.142 1290.85 294.55C1292.26 295.958 1292.96 297.648 1292.96 299.62C1292.96 303 1290.29 304.69 1284.93 304.69L1270.15 304.268C1260.85 303.423 1250.29 303 1238.46 303C1228.6 303 1220.01 303.423 1212.69 304.268L1200.86 304.69C1196.63 304.69 1194.52 303 1194.52 299.62C1194.52 298.212 1195.36 296.803 1197.05 295.395C1199.03 293.987 1201.84 292.156 1205.5 289.902C1211.7 286.241 1216.49 282.861 1219.87 279.762C1223.25 276.382 1224.94 272.157 1224.94 267.087C1224.94 264.271 1224.38 261.313 1223.25 258.215L1202.12 203.29H1098.19L1079.18 256.947C1078.05 260.046 1077.49 263.003 1077.49 265.82C1077.49 271.453 1079.18 275.96 1082.56 279.34C1086.22 282.72 1091.15 286.241 1097.34 289.902C1101.01 291.874 1103.68 293.705 1105.37 295.395C1107.06 296.803 1107.91 298.212 1107.91 299.62C1107.91 303 1105.79 304.69 1101.57 304.69L1089.74 303.845C1086.08 303.845 1080.02 303.563 1071.57 303C1059.74 303.563 1051.43 303.845 1046.64 303.845L1030.59 304.69C1024.96 304.69 1022.14 303 1022.14 299.62ZM1195.79 186.39L1148.04 63.02L1104.1 186.39H1195.79ZM1445.64 303C1440.29 303 1435.78 301.31 1432.12 297.93C1428.46 294.268 1425.36 288.353 1422.82 280.185L1351.84 55.415L1337.48 256.947C1336.92 265.397 1338.18 271.876 1341.28 276.382C1344.66 280.889 1349.31 285.396 1355.22 289.902C1358.04 291.874 1360.01 293.564 1361.14 294.972C1362.55 296.381 1363.25 297.789 1363.25 299.197C1363.25 302.859 1361 304.69 1356.49 304.69L1342.55 303.845C1334.66 303.282 1329.03 303 1325.65 303C1322.27 303 1316.64 303.282 1308.75 303.845L1294.81 304.69C1290.86 304.69 1288.89 303.282 1288.89 300.465C1288.89 298.493 1289.6 296.803 1291 295.395C1292.69 293.705 1295.23 291.874 1298.61 289.902C1304.81 285.959 1309.88 281.734 1313.82 277.227C1317.76 272.721 1320.02 266.383 1320.58 258.215L1334.94 53.3025C1335.51 44.8525 1334.1 38.3741 1330.72 33.8675C1327.62 29.3608 1323.11 24.8541 1317.2 20.3475C1314.38 18.3758 1312.27 16.6858 1310.86 15.2775C1309.73 13.8691 1309.17 12.4608 1309.17 11.0525C1309.17 7.39079 1311.42 5.55995 1315.93 5.55995L1327.76 5.98247C1335.08 6.82746 1343.68 7.24996 1353.53 7.24996C1359.73 7.24996 1364.52 8.2358 1367.9 10.2075C1371.28 12.1791 1373.67 15.5591 1375.08 20.3475L1450.29 259.482L1517.04 21.1925C1519.58 11.8975 1525.63 7.24996 1535.21 7.24996C1540.84 7.24996 1551.69 6.82746 1567.74 5.98247L1578.3 5.55995C1582.53 5.55995 1584.78 7.24996 1585.06 10.63C1585.06 12.32 1584.36 13.8691 1582.95 15.2775C1581.82 16.6858 1579.85 18.3758 1577.04 20.3475C1571.12 24.8541 1566.47 29.3608 1563.09 33.8675C1560 38.3741 1558.73 44.8525 1559.29 53.3025L1573.23 258.215C1573.8 266.102 1575.91 272.298 1579.57 276.805C1583.51 281.03 1588.87 285.396 1595.63 289.902C1599.01 292.156 1601.4 293.987 1602.81 295.395C1604.5 296.522 1605.34 297.93 1605.34 299.62V300.465C1605.34 303.282 1603.37 304.69 1599.43 304.69L1587.6 304.268C1579.99 303.423 1571.68 303 1562.67 303C1558.16 303 1547.88 303.423 1531.83 304.268L1520.84 304.69C1516.9 304.69 1514.65 303 1514.08 299.62C1514.08 297.93 1514.65 296.381 1515.77 294.972C1517.18 293.564 1519.29 291.874 1522.11 289.902C1528.03 285.396 1532.53 280.889 1535.63 276.382C1539.01 271.876 1540.42 265.397 1539.86 256.947L1525.49 57.5275L1456.62 303H1445.64ZM1601.03 299.62C1601.03 297.648 1601.87 295.958 1603.56 294.55C1605.25 293.142 1608.21 291.029 1612.44 288.212C1618.92 283.987 1624.41 279.762 1628.91 275.537C1633.7 271.031 1637.36 265.257 1639.9 258.215L1712.57 53.3025C1713.7 50.2041 1714.26 47.2466 1714.26 44.43C1714.26 38.7966 1712.43 34.29 1708.77 30.91C1705.39 27.53 1700.6 24.0091 1694.4 20.3475C1690.74 18.3758 1688.06 16.6858 1686.37 15.2775C1684.68 13.5875 1683.84 12.0383 1683.84 10.63C1683.84 7.24996 1685.95 5.55995 1690.18 5.55995L1702.01 5.98247C1709.33 6.82746 1717.92 7.24996 1727.78 7.24996H1740.88L1835.94 256.947C1838.76 264.271 1842.28 270.327 1846.5 275.115C1851.01 279.622 1856.08 283.847 1861.71 287.79C1865.66 290.888 1868.33 293.142 1869.74 294.55C1871.15 295.958 1871.85 297.648 1871.85 299.62C1871.85 303 1869.18 304.69 1863.83 304.69L1849.04 304.268C1839.74 303.423 1829.18 303 1817.35 303C1807.49 303 1798.9 303.423 1791.58 304.268L1779.75 304.69C1775.52 304.69 1773.41 303 1773.41 299.62C1773.41 298.212 1774.26 296.803 1775.95 295.395C1777.92 293.987 1780.73 292.156 1784.39 289.902C1790.59 286.241 1795.38 282.861 1798.76 279.762C1802.14 276.382 1803.83 272.157 1803.83 267.087C1803.83 264.271 1803.27 261.313 1802.14 258.215L1781.02 203.29H1677.08L1658.07 256.947C1656.94 260.046 1656.38 263.003 1656.38 265.82C1656.38 271.453 1658.07 275.96 1661.45 279.34C1665.11 282.72 1670.04 286.241 1676.23 289.902C1679.9 291.874 1682.57 293.705 1684.26 295.395C1685.95 296.803 1686.8 298.212 1686.8 299.62C1686.8 303 1684.68 304.69 1680.46 304.69L1668.63 303.845C1664.97 303.845 1658.91 303.563 1650.46 303C1638.63 303.563 1630.32 303.845 1625.53 303.845L1609.48 304.69C1603.85 304.69 1601.03 303 1601.03 299.62ZM1774.68 186.39L1726.93 63.02L1682.99 186.39H1774.68ZM2065.09 303C2058.05 303 2052.7 301.732 2049.04 299.197C2045.66 296.662 2042.56 293.001 2039.74 288.212L1913.41 67.245V256.947C1913.41 265.397 1915.1 272.017 1918.48 276.805C1922.14 281.312 1927.07 285.677 1933.27 289.902C1936.37 291.874 1938.62 293.564 1940.03 294.972C1941.44 296.381 1942.14 297.93 1942.14 299.62C1942.14 303 1940.03 304.69 1935.81 304.69L1923.55 303.845C1920.17 303.845 1913.98 303.563 1904.96 303C1895.95 303.563 1889.75 303.845 1886.37 303.845L1874.12 304.69C1869.9 304.69 1867.78 303 1867.78 299.62C1867.78 297.93 1868.49 296.381 1869.9 294.972C1871.3 293.564 1873.56 291.874 1876.66 289.902C1882.85 285.396 1887.64 281.03 1891.02 276.805C1894.68 272.298 1896.51 266.102 1896.51 258.215V53.3025C1896.51 44.8525 1894.68 38.3741 1891.02 33.8675C1887.64 29.0791 1882.85 24.5725 1876.66 20.3475C1873.56 18.0941 1871.3 16.4041 1869.9 15.2775C1868.49 13.8691 1867.78 12.32 1867.78 10.63C1867.78 7.24996 1869.9 5.55995 1874.12 5.55995L1885.95 5.98247C1893.27 6.82746 1901.86 7.24996 1911.72 7.24996H1911.3C1915.81 7.24996 1919.19 9.22163 1921.44 13.165L2057.06 251.877V53.3025C2057.06 44.8525 2055.23 38.3741 2051.57 33.8675C2048.19 29.0791 2043.4 24.5725 2037.21 20.3475C2034.11 18.0941 2031.85 16.4041 2030.45 15.2775C2029.04 13.8691 2028.33 12.32 2028.33 10.63C2028.33 7.24996 2030.45 5.55995 2034.67 5.55995L2046.92 6.40497C2050.3 6.40497 2056.5 6.68663 2065.51 7.24996C2074.53 6.68663 2080.72 6.40497 2084.1 6.40497L2096.36 5.55995C2100.58 5.55995 2102.69 7.24996 2102.69 10.63C2102.69 12.32 2101.99 13.8691 2100.58 15.2775C2099.17 16.4041 2096.92 18.0941 2093.82 20.3475C2087.62 24.8541 2082.69 29.3608 2079.03 33.8675C2075.65 38.0925 2073.96 44.1483 2073.96 52.035V303H2065.09ZM2081.72 299.62C2081.72 297.648 2082.57 295.958 2084.26 294.55C2085.95 293.142 2088.91 291.029 2093.13 288.212C2099.61 283.987 2105.1 279.762 2109.61 275.537C2114.4 271.031 2118.06 265.257 2120.59 258.215L2193.26 53.3025C2194.39 50.2041 2194.95 47.2466 2194.95 44.43C2194.95 38.7966 2193.12 34.29 2189.46 30.91C2186.08 27.53 2181.29 24.0091 2175.1 20.3475C2171.43 18.3758 2168.76 16.6858 2167.07 15.2775C2165.38 13.5875 2164.53 12.0383 2164.53 10.63C2164.53 7.24996 2166.65 5.55995 2170.87 5.55995L2182.7 5.98247C2190.02 6.82746 2198.61 7.24996 2208.47 7.24996H2221.57L2316.63 256.947C2319.45 264.271 2322.97 270.327 2327.2 275.115C2331.7 279.622 2336.77 283.847 2342.41 287.79C2346.35 290.888 2349.02 293.142 2350.43 294.55C2351.84 295.958 2352.55 297.648 2352.55 299.62C2352.55 303 2349.87 304.69 2344.52 304.69L2329.73 304.268C2320.44 303.423 2309.87 303 2298.04 303C2288.18 303 2279.59 303.423 2272.27 304.268L2260.44 304.69C2256.22 304.69 2254.1 303 2254.1 299.62C2254.1 298.212 2254.95 296.803 2256.64 295.395C2258.61 293.987 2261.43 292.156 2265.09 289.902C2271.28 286.241 2276.07 282.861 2279.45 279.762C2282.83 276.382 2284.52 272.157 2284.52 267.087C2284.52 264.271 2283.96 261.313 2282.83 258.215L2261.71 203.29H2157.77L2138.76 256.947C2137.63 260.046 2137.07 263.003 2137.07 265.82C2137.07 271.453 2138.76 275.96 2142.14 279.34C2145.8 282.72 2150.73 286.241 2156.93 289.902C2160.59 291.874 2163.27 293.705 2164.96 295.395C2166.65 296.803 2167.49 298.212 2167.49 299.62C2167.49 303 2165.38 304.69 2161.15 304.69L2149.32 303.845C2145.66 303.845 2139.61 303.563 2131.16 303C2119.33 303.563 2111.02 303.845 2106.23 303.845L2090.17 304.69C2084.54 304.69 2081.72 303 2081.72 299.62ZM2255.37 186.39L2207.63 63.02L2163.69 186.39H2255.37Z" fill="white"/>
</g>
</svg>
