<svg width="74" height="86" viewBox="0 0 74 86" fill="none" xmlns="http://www.w3.org/2000/svg">
<path d="M37.2035 61.5262C37.2035 61.5262 22.5246 59.4988 20.0917 41.1705C20.0917 41.1705 21.0648 38.8997 21.227 40.2784C22.2002 47.334 25.8497 57.3902 37.5279 60.3098L37.2035 61.5262ZM31.6888 66.6355L30.3101 65.6623C30.3101 65.6623 33.2297 62.4994 32.0132 59.0933L33.7162 60.0665C33.7162 59.9854 34.1217 63.797 31.6888 66.6355ZM44.7456 65.6623L43.367 66.1489C40.934 63.3104 41.3395 59.9854 41.3395 59.9854L43.0426 59.0122C41.8261 62.4994 44.7456 65.6623 44.7456 65.6623ZM37.2035 61.5262V60.3098C48.8817 57.3902 52.2067 47.334 53.1799 40.2784C53.3421 38.8997 54.3153 41.1705 54.3153 41.1705C51.8823 59.4988 37.2035 61.5262 37.2035 61.5262ZM19.4429 43.4413C18.0642 45.1443 17.0099 46.7663 16.28 48.2261C20.0106 58.4445 29.5802 68.0141 35.0949 77.2594C33.3107 72.6368 30.4723 66.9598 27.6338 61.1207C24.6332 55.2005 21.6326 49.0371 19.4429 43.4413ZM26.1741 34.6015C28.6881 32.3307 31.2022 29.9789 33.4729 26.3294C31.3644 28.3569 29.0125 29.3301 26.6606 30.2222C23.66 31.4387 20.416 32.8984 17.9831 35.4936C18.3886 37.1967 19.0374 39.0619 19.7673 41.0894C21.7136 38.6564 23.9033 36.629 26.1741 34.6015ZM33.9595 23.7343C31.4455 25.1941 28.5259 24.9508 25.7686 24.6264C22.6868 24.302 19.6861 23.9776 17.9831 26.6538C16.9288 28.2758 16.8477 30.871 17.4965 33.9527C20.0917 31.4386 23.1734 29.9789 26.2551 28.7624C29.0125 27.7081 31.6888 26.6538 33.9595 23.7343ZM36.5547 18.9495C34.0406 18.3007 30.5534 20.9769 28.8503 23.3288C31.2833 23.1666 34.7705 22.1934 36.5547 18.9495ZM15.7123 46.6041C16.5233 45.1443 17.5776 43.6034 18.8752 42.0626C18.1453 40.1162 17.4965 38.2509 17.091 36.5479C14.9013 39.5485 14.658 42.8736 15.7123 46.6041ZM15.7935 60.1476C17.902 63.9592 21.9569 67.2842 26.0929 70.5282C28.607 72.4746 31.1211 74.502 33.2297 76.6917C27.715 68.1763 19.3618 59.4177 15.5501 49.7669C13.847 53.903 14.1715 57.228 15.7935 60.1476ZM36.6358 83.5851C33.7973 77.5027 26.0119 72.4745 21.3082 68.4196C23.66 77.0161 29.7424 83.0985 36.6358 83.5851ZM31.2022 65.8245C31.2022 65.8245 36.4736 77.0972 37.609 81.3143V85.207C29.3369 85.207 21.9569 77.746 19.7673 67.1221C17.7398 65.2568 16.0367 63.2293 14.8203 61.0397C12.8739 57.3902 12.4684 53.2542 14.9013 48.145C13.2794 43.279 13.4416 38.6564 16.6044 34.9259C15.7124 31.0332 15.7934 27.7892 17.1721 25.5996C17.902 24.4642 18.7941 23.7343 19.7673 23.3288C23.2545 22.2745 27.4716 23.2477 27.4716 23.2477C27.4716 23.2477 30.1479 17.2464 37.4467 17.0842L37.5279 20.0038C37.5279 20.0038 34.9327 26.2483 33.4729 28.5191C33.4729 28.5191 32.9052 29.8167 32.5808 29.7356C30.5534 32.4118 25.8497 36.5479 25.8497 36.5479L24.7954 37.5211C24.7954 37.5211 21.6325 40.6028 20.1728 42.387C23.1734 49.9292 30.4723 64.3647 30.4723 64.3647L31.2022 65.8245ZM20.0105 75.3941C16.1989 75.3941 12.6306 73.691 10.0354 70.9337C7.52137 68.1763 5.89941 64.4458 5.89941 60.1476C5.89941 55.3628 7.19696 50.659 9.06223 46.2797C10.9275 41.9004 13.4416 38.9808 15.9556 35.4125C16.1989 35.0881 16.4422 34.6826 16.6855 34.3582L17.3343 35.7369C17.1721 35.8991 17.091 36.0613 17.0099 36.2235C14.577 39.7918 12.144 42.6303 10.2787 46.8474C8.41344 51.0645 7.19697 55.606 7.19697 60.1476C7.19697 64.0403 8.65678 67.4465 10.9275 69.9605C13.2794 72.4746 16.5233 74.0154 20.0105 74.0154C21.5514 74.0154 21.5514 74.0965 22.849 73.691L23.1734 75.0697C21.7136 75.4752 21.6325 75.3941 20.0105 75.3941ZM32.5808 15.7866C30.9589 17.6519 29.2558 19.5171 27.6338 21.3824C26.9039 22.1934 26.174 23.0855 25.4442 23.8965L23.8222 23.8154C24.7954 22.68 25.7686 21.5446 26.7418 20.4092C28.3637 18.544 29.9857 16.6787 31.6888 14.8134C33.3107 12.9482 35.0138 11.0829 36.7169 9.29873L37.1224 8.81213V10.7585C37.1224 10.7585 34.0406 14.0835 32.5808 15.7866ZM20.0105 69.4739C17.6587 69.4739 15.469 68.4196 13.8471 66.7166C12.3062 65.0946 11.2519 62.7427 11.2519 60.1476C11.2519 56.1737 12.955 52.0377 14.6581 48.2261L15.7935 49.1182C14.1715 52.7676 12.4684 56.417 12.4684 60.2287C12.4684 62.4183 13.2794 64.3647 14.6581 65.8245C16.0367 67.2842 17.9831 68.1763 20.0105 68.1763C20.1727 68.1763 20.2539 68.1763 20.335 68.1763L20.5782 69.3117C19.6862 69.3928 20.9026 69.4739 20.0105 69.4739ZM20.335 68.0141L20.2539 67.7708C20.2539 67.7708 20.6594 67.933 20.335 68.0141ZM36.3925 3.21633L36.1492 3.45964C32.0132 8.00117 27.796 12.5427 23.8222 17.2464C21.8758 19.5172 19.9295 21.7879 18.1453 24.1398C16.28 26.4917 14.4959 28.9246 12.7928 31.3576C9.95434 35.4936 7.19697 40.0351 5.16951 44.901C3.14204 49.6858 1.84448 54.8762 1.84448 60.1476C1.84448 65.6623 3.87195 70.6093 7.11589 74.0965C10.4409 77.746 14.9824 79.9356 19.9295 79.9356C22.3624 79.9356 26.3363 78.8814 26.3363 78.8814L26.7418 80.26C26.7418 80.26 22.5246 81.3954 19.9295 81.3954C14.6581 81.3954 9.71102 79.0435 6.22378 75.1508C2.73654 71.3392 0.546875 66.0678 0.546875 60.1476C0.546875 54.6329 1.92559 49.3615 4.03416 44.3333C6.14272 39.3863 8.90007 34.6826 11.7385 30.5466C13.4416 28.0325 15.2257 25.5996 17.1721 23.2477C19.0374 20.8958 20.9838 18.544 22.9301 16.2732C26.9851 11.5695 31.1211 7.02797 35.3382 2.40535L35.5815 2.16206L36.7169 0.945581L37.1224 0.458984V2.40535L36.3925 3.21633ZM57.4781 36.5479C56.9915 38.332 56.4238 40.1162 55.6939 42.0626C56.9915 43.6845 58.0458 45.1443 58.8568 46.6041C59.83 42.8736 59.5867 39.5485 57.4781 36.5479ZM56.4238 26.5727C54.7208 23.8965 51.7201 24.2209 48.6384 24.5453C45.881 24.8697 43.0426 25.1941 40.4474 23.6532C42.7182 26.5727 45.4755 27.627 48.1518 28.6813C51.2335 29.8978 54.3153 31.2765 56.9104 33.8716C57.5592 30.7899 57.4781 28.2758 56.4238 26.5727ZM37.9334 18.9495C39.6364 22.1934 43.2048 23.1666 45.6377 23.3288C43.9347 20.9769 40.4474 18.3007 37.9334 18.9495ZM48.314 34.6015C50.5847 36.629 52.6933 38.6564 54.7208 41.0894C55.4507 39.143 56.0994 37.2778 56.5049 35.4936C54.072 32.8173 50.8281 31.3576 47.8274 30.2222C45.4755 29.3301 43.1237 28.3569 41.0151 26.3294C43.2859 29.9789 45.7999 32.3307 48.314 34.6015ZM46.9353 61.2018C44.0968 67.0409 41.2584 72.6367 39.4742 77.3405C45.07 68.0952 54.6397 58.5256 58.2891 48.3072C57.4781 46.8474 56.505 45.2254 55.1263 43.5224C52.8555 49.0371 49.8548 55.2005 46.9353 61.2018ZM53.1799 68.4196C48.4762 72.4745 40.6096 77.5027 37.8522 83.5851C44.7456 83.0985 50.828 77.0161 53.1799 68.4196ZM58.6946 60.1476C60.2355 57.228 60.6409 53.903 58.9379 49.7669C55.1262 59.4177 46.7731 68.0952 41.2584 76.6917C43.367 74.502 45.881 72.5556 48.3951 70.5282C52.5311 67.2031 56.6671 63.9592 58.6946 60.1476ZM59.5867 48.145C62.0197 53.2542 61.6142 57.3902 59.6678 61.0397C58.4513 63.2293 56.7483 65.1757 54.7208 67.1221C52.5311 77.746 45.2323 85.207 36.8791 85.207V81.3143C38.0145 77.1783 43.2859 65.8245 43.2859 65.8245L44.0158 64.3647C44.0158 64.3647 51.3146 50.0102 54.3153 42.387C52.8555 40.6839 49.6927 37.5211 49.6927 37.5211L48.6384 36.5479C48.6384 36.5479 44.0157 32.4118 41.9072 29.7356C41.5828 29.7356 41.0151 28.5191 41.0151 28.5191C39.4742 26.3294 36.9602 20.0038 36.9602 20.0038L37.0413 17.0842C44.4212 17.2464 47.0164 23.2477 47.0164 23.2477C47.0164 23.2477 51.2335 22.2745 54.7208 23.3288C55.694 23.7343 56.586 24.4642 57.3159 25.5996C58.6946 27.7892 58.7757 30.9521 57.8836 34.9259C60.9654 38.6564 61.2087 43.1979 59.5867 48.145ZM41.4206 15.7866C39.8797 14.0835 36.8791 10.7585 36.8791 10.7585V8.81213L37.2846 9.29873C38.9877 11.164 40.6096 12.9482 42.3127 14.8134C43.9346 16.6787 48.2329 21.6257 49.8549 23.491L48.7195 23.9776C47.0975 22.1123 43.1237 17.6519 41.4206 15.7866ZM63.966 70.9337C61.3708 73.691 57.8025 75.3941 53.9909 75.3941C52.3689 75.3941 52.45 75.4752 51.0714 74.9886L51.3957 73.6099C52.6933 74.0154 52.45 73.9343 53.9909 73.9343C57.4781 73.9343 60.7221 72.3935 63.0739 69.8794C65.3447 67.3653 66.8045 63.9592 66.8045 60.0665C66.8045 55.5249 65.588 51.0645 63.7227 46.7663C61.8574 42.4681 56.9915 35.8991 56.9915 35.8991L57.9647 35.007C57.9647 35.007 62.9118 41.7382 64.8581 46.1175C66.8045 50.5779 68.0209 55.2816 68.0209 59.9854C68.102 64.3647 66.4801 68.1763 63.966 70.9337ZM60.2355 66.7166C58.6135 68.4196 56.4238 69.4739 54.072 69.4739V68.0141C56.0994 68.0141 58.0458 67.122 59.4245 65.6623C60.7221 64.2836 61.6142 62.3372 61.6142 60.0665C61.6142 56.3359 60.4788 52.4432 58.7757 48.7127L59.6678 48.0639C61.3709 51.9566 62.8307 56.0115 62.8307 59.9854C62.7496 62.7427 61.7764 65.0135 60.2355 66.7166ZM67.7776 75.1508C64.2093 79.0435 59.3434 81.3954 54.072 81.3954C51.4768 81.3954 47.2597 80.26 47.2597 80.26L47.6652 78.8814C47.6652 78.8814 51.639 79.9356 54.072 79.9356C59.019 79.9356 63.6416 77.746 66.8856 74.0965C70.1295 70.5282 72.157 65.6623 72.157 60.1476C72.157 54.8762 70.8594 49.7669 68.8319 44.901C66.8045 40.0351 64.0471 35.4936 61.2087 31.3576C59.5056 28.8435 57.7214 26.4917 55.8561 24.1398C53.9909 21.7879 52.1256 19.5172 50.1792 17.2464C46.1243 12.5427 41.9883 8.00117 37.8522 3.45964L36.8791 2.48645V0.540088L37.2846 1.02668L38.4199 2.24316L38.6632 2.48645C42.7993 7.02797 47.0164 11.5695 51.0714 16.3543C53.0177 18.6251 54.9641 20.8958 56.8293 23.3288C58.6946 25.6807 60.4788 28.1136 62.263 30.6277C65.1014 34.7637 67.9399 39.4674 69.9673 44.4144C72.0759 49.4426 73.4546 54.714 73.4546 60.2287C73.4546 66.0678 71.2649 71.3392 67.7776 75.1508ZM29.7424 66.1489L30.6345 65.0135C38.0956 69.3928 44.0968 65.0135 44.0968 65.0135L44.6645 65.9056C38.0145 71.0959 29.7424 66.1489 29.7424 66.1489ZM37.0413 37.6832V35.9802L37.6901 34.2771L37.0413 33.3039V32.0874L38.6632 33.7094L37.0413 37.6832ZM37.0413 37.6832L35.4193 33.7094L37.0413 32.0874V33.3039L36.3925 34.2771L37.0413 35.9802V37.6832ZM37.1224 77.6649V75.0697L38.9876 70.5282L37.1224 68.6629V67.041L40.2041 70.1227L37.1224 77.6649ZM37.4467 77.6649L34.365 70.0416L37.4467 66.9598V68.5818L35.5815 70.4471L37.4467 74.9886V77.6649ZM25.6064 36.5479L25.2009 35.3314C32.9052 34.6826 37.1224 27.1404 37.1224 27.1404V29.0057C32.8242 35.7369 25.6064 36.5479 25.6064 36.5479ZM48.4762 36.5479C48.4762 36.5479 41.3395 35.6558 36.9602 28.9246V27.0593C36.9602 27.0593 41.0962 34.6015 48.8817 35.2503L48.4762 36.5479ZM23.66 41.0894L24.7143 40.4406C24.7143 40.4406 24.1466 45.1443 32.9052 43.279L33.2297 44.1711C33.2297 44.1711 24.3088 46.523 23.66 41.0894ZM50.3414 41.0894C49.6116 46.6041 40.7718 44.1711 40.7718 44.1711L41.0962 43.279C49.8548 45.1443 49.2872 40.4406 49.2872 40.4406L50.3414 41.0894ZM34.365 55.2006L34.6083 54.1463C34.6083 54.1463 35.5004 55.1194 37.1224 54.3085L37.4467 55.4438C37.5278 55.5249 35.8248 56.2548 34.365 55.2006ZM37.1224 53.2542C37.1224 53.2542 36.3114 52.6054 35.0138 53.4164C33.7162 54.2274 32.9052 53.2542 32.9052 53.2542L33.4729 52.1999C33.4729 52.1999 33.7162 53.0109 35.0138 52.1999C36.3114 51.3889 37.4467 52.0377 37.4467 52.0377L37.1224 53.2542ZM37.1224 48.8749L37.3657 50.0102C35.8248 49.848 34.7705 48.6316 34.7705 48.6316C38.6632 34.5204 25.0387 36.5479 25.0387 36.5479L27.5528 35.4936C40.2041 35.5747 35.987 48.145 35.987 48.145C36.3925 48.6316 37.1224 48.8749 37.1224 48.8749ZM36.6358 55.5249L36.9602 54.3896C38.5821 55.2006 39.4742 54.2274 39.4742 54.2274L39.7175 55.2817C38.3389 56.2548 36.6358 55.5249 36.6358 55.5249ZM39.0687 53.3353C37.7711 52.5243 36.9602 53.1731 36.9602 53.1731L36.6358 52.0377C36.6358 52.0377 37.7711 51.3078 39.0687 52.1999C40.3663 53.0109 40.6096 52.1999 40.6096 52.1999L41.1773 53.2542C41.1773 53.2542 40.3663 54.1463 39.0687 53.3353ZM39.3931 48.6316C39.3931 48.6316 38.3388 49.848 36.798 50.0102L37.0413 48.8749C37.0413 48.8749 37.7711 48.7127 38.2577 48.145C38.2577 48.145 34.0406 35.5747 46.692 35.4936L49.206 36.5479C49.1249 36.4668 35.5004 34.4393 39.3931 48.6316Z" fill="#F5C03D"/>
</svg>
