<svg width="166" height="129" viewBox="0 0 166 129" fill="none" xmlns="http://www.w3.org/2000/svg">
<path d="M151.719 105.396V105.031C152.23 104.958 152.594 104.812 152.813 104.447C153.032 104.155 153.47 103.279 154.127 101.819L158.142 92.3306H158.507L163.324 103.279C163.616 104.009 163.908 104.447 164.127 104.666C164.346 104.812 164.638 104.958 165.076 105.031V105.396H160.112V105.031C160.696 104.958 161.061 104.885 161.207 104.812C161.353 104.739 161.426 104.593 161.426 104.301C161.426 104.228 161.426 104.009 161.353 103.79C161.28 103.571 161.207 103.279 161.061 103.06L160.258 101.162H155.222C154.711 102.403 154.419 103.206 154.346 103.498C154.273 103.79 154.2 104.009 154.2 104.155C154.2 104.447 154.346 104.739 154.565 104.812C154.711 104.885 155.003 104.958 155.514 104.958V105.323H151.719V105.396ZM160.039 100.432L157.777 95.1041L155.587 100.432H160.039ZM134.128 105.104C134.858 105.031 135.296 104.885 135.515 104.593C135.734 104.301 135.807 103.79 135.807 102.841V95.3231L135.588 95.0312C135.369 94.7392 135.15 94.5202 134.931 94.4472C134.785 94.3742 134.493 94.3013 134.128 94.3013V94.0093H137.048L143.617 102.257V96.4909C143.617 95.5421 143.471 94.9582 143.179 94.6662C142.96 94.4472 142.595 94.3743 141.938 94.3013V94.0093H145.952V94.3013C145.296 94.3743 144.858 94.5202 144.639 94.8122C144.42 95.0311 144.347 95.6151 144.347 96.5639V105.615H144.055L136.464 96.199V102.841C136.464 103.79 136.61 104.374 136.902 104.666C137.048 104.885 137.486 104.958 138.07 105.031V105.323H134.055V105.104H134.128ZM116.611 105.396V105.104C117.049 105.031 117.414 104.885 117.633 104.593C117.852 104.301 118.217 103.571 118.801 102.257L122.377 93.8633H122.742L126.975 103.571C127.267 104.228 127.486 104.593 127.632 104.739C127.778 104.885 128.07 105.031 128.508 105.031V105.323H124.129V105.031C124.64 104.958 124.932 104.958 125.078 104.885C125.224 104.812 125.297 104.666 125.297 104.447C125.297 104.374 125.297 104.228 125.224 104.009C125.151 103.79 125.078 103.571 125.005 103.352L124.275 101.673H119.822C119.385 102.768 119.093 103.498 119.02 103.717C118.947 103.936 118.874 104.155 118.874 104.301C118.874 104.593 119.02 104.812 119.239 104.885C119.385 104.958 119.677 105.031 120.041 105.031V105.323H116.611V105.396ZM124.056 101.016L122.085 96.272L120.114 101.016H124.056ZM96.1741 105.104C96.904 105.031 97.342 104.885 97.5609 104.593C97.7799 104.374 97.8529 103.79 97.8529 102.841V95.907C97.8529 95.3231 97.7799 94.8852 97.5609 94.6662C97.342 94.4472 96.904 94.3743 96.2471 94.3013V94.0093H99.6046L103.546 102.622L107.341 94.0093H110.772V94.3013C110.115 94.3743 109.75 94.4472 109.531 94.6662C109.312 94.8852 109.239 95.2501 109.239 95.834V103.425C109.239 104.082 109.312 104.447 109.531 104.593C109.75 104.739 110.115 104.885 110.772 104.958V105.25H105.955V104.958C106.612 104.885 107.049 104.812 107.268 104.593C107.487 104.374 107.487 103.936 107.487 103.206V95.5421L103.108 105.323H102.889L98.5828 95.98V102.841C98.5828 103.79 98.7287 104.374 99.0207 104.666C99.1667 104.885 99.6046 104.958 100.189 105.031V105.323H96.1741V105.104ZM78.7298 105.396V105.104C79.1678 105.031 79.5327 104.885 79.7517 104.593C79.9706 104.301 80.3356 103.571 80.9195 102.257L84.4959 93.8633H84.8609L89.0942 103.571C89.3862 104.228 89.6051 104.593 89.7511 104.739C89.8971 104.885 90.1891 105.031 90.627 105.031V105.323H86.2477V105.031C86.7586 104.958 87.0505 104.958 87.1965 104.885C87.3425 104.812 87.4155 104.666 87.4155 104.447C87.4155 104.374 87.4155 104.228 87.3425 104.009C87.2695 103.79 87.1965 103.571 87.1235 103.352L86.3937 101.673H81.9413C81.5034 102.768 81.2114 103.498 81.1385 103.717C81.0655 103.936 80.9925 104.155 80.9925 104.301C80.9925 104.593 81.1384 104.812 81.3574 104.885C81.5034 104.958 81.7954 105.031 82.1603 105.031V105.323H78.7298V105.396ZM86.1747 101.016L84.204 96.272L82.2333 101.016H86.1747ZM61.2855 105.104C61.9424 105.031 62.3803 104.885 62.5263 104.739C62.6723 104.593 62.7453 104.082 62.7453 103.352V95.907C62.7453 95.3231 62.6723 94.8852 62.4534 94.7392C62.2344 94.5202 61.8694 94.4472 61.2125 94.3742V94.0823H65.9568V94.3742C65.2999 94.4472 64.935 94.5202 64.716 94.7392C64.497 94.9582 64.424 95.3231 64.424 95.907V99.2645H69.6062V95.907C69.6062 95.3231 69.5332 94.8852 69.3143 94.7392C69.0953 94.5202 68.7304 94.4472 68.0735 94.3742V94.0823H72.8177V94.3742C72.1608 94.4472 71.7959 94.5202 71.577 94.7392C71.358 94.9582 71.285 95.3231 71.285 95.907V103.498C71.285 104.155 71.358 104.52 71.577 104.666C71.7959 104.812 72.1608 104.958 72.8177 105.031V105.323H68.0735V105.031C68.7304 104.958 69.1683 104.812 69.3143 104.666C69.4602 104.52 69.5332 104.009 69.5332 103.279V99.9214H64.351V103.425C64.351 104.082 64.4241 104.447 64.643 104.666C64.862 104.812 65.2269 104.958 65.8838 105.031V105.323H61.1395V105.104H61.2855ZM50.7752 93.8633C51.3591 93.8633 52.0159 93.9363 52.6728 94.1553C53.3297 94.3743 53.6947 94.4472 53.7677 94.4472C53.9137 94.4472 54.0596 94.3743 54.2056 94.3013C54.3516 94.2283 54.4246 94.0823 54.4976 93.8633H54.8625L55.0085 97.7317H54.6436C54.4246 97.0018 54.1326 96.3449 53.7677 95.907C53.0378 95.0311 52.0889 94.5932 50.9211 94.5932C49.7533 94.5932 48.7314 95.0312 48.0015 95.98C47.2717 96.9289 46.8337 98.2427 46.8337 99.9214C46.8337 101.454 47.1987 102.695 48.0015 103.571C48.8044 104.447 49.8263 104.958 51.0671 104.958C51.943 104.958 52.7458 104.739 53.5487 104.301C53.9867 104.082 54.4246 103.717 54.9355 103.206L55.2275 103.498C54.8625 104.009 54.3516 104.374 53.8406 104.739C52.8918 105.323 51.87 105.687 50.7021 105.687C48.8774 105.687 47.4176 105.104 46.3228 103.936C45.301 102.841 44.7901 101.454 44.7901 99.8484C44.7901 98.1697 45.301 96.7829 46.3958 95.6151C47.4907 94.4472 48.9504 93.8633 50.7752 93.8633ZM18.6601 105.396V105.104C19.098 105.031 19.463 104.885 19.6819 104.593C19.9009 104.301 20.2658 103.571 20.8497 102.257L24.4262 93.8633H24.7911L29.0245 103.571C29.3164 104.228 29.5354 104.593 29.6814 104.739C29.8274 104.885 30.1193 105.031 30.5573 105.031V105.323H26.1779V105.031C26.6889 104.958 26.9808 104.958 27.1268 104.885C27.2728 104.812 27.3457 104.666 27.3457 104.447C27.3457 104.374 27.3458 104.228 27.2728 104.009C27.1998 103.79 27.1268 103.571 27.0538 103.352L26.3239 101.673H21.8716C21.4337 102.768 21.1417 103.498 21.0687 103.717C20.9957 103.936 20.9227 104.155 20.9227 104.301C20.9227 104.593 21.0687 104.812 21.2877 104.885C21.4337 104.958 21.7256 105.031 22.0905 105.031V105.323H18.6601V105.396ZM26.032 101.016L24.0612 96.272L22.0905 101.016H26.032ZM0.996821 105.031C1.72671 104.958 2.16464 104.812 2.3836 104.666C2.60257 104.52 2.67555 104.009 2.67555 103.279V94.6662C2.67555 94.0093 2.60257 93.4984 2.3836 93.3524C2.16464 93.1334 1.72671 92.9875 0.996821 92.9875V92.6225H6.47098V92.9875C5.74109 93.0604 5.30316 93.1334 5.0112 93.3524C4.79224 93.5714 4.64626 93.9363 4.64626 94.5932V103.936C4.64626 104.155 4.64624 104.301 4.71923 104.447C4.79222 104.593 4.9382 104.666 5.23016 104.666C5.37614 104.666 5.52212 104.666 5.6681 104.739C5.81407 104.739 6.10602 104.739 6.54395 104.739C8.29568 104.739 9.46351 104.593 10.0474 104.301C10.6313 104.009 11.2152 103.279 11.7991 102.111H12.3101L11.3612 105.469H0.923828V105.031H0.996821Z" fill="white"/>
<path d="M159.798 126.49C159.944 126.855 160.09 127.147 160.236 127.366C160.528 127.731 160.966 127.95 161.404 127.95C161.623 127.95 161.842 127.877 162.061 127.731C162.28 127.585 162.353 127.366 162.353 127.074C162.353 126.782 162.28 126.563 162.061 126.417C161.915 126.271 161.696 126.125 161.331 125.906L160.674 125.468C160.455 125.322 160.309 125.176 160.163 125.103C159.944 124.884 159.798 124.592 159.798 124.3C159.798 123.935 159.944 123.57 160.163 123.278C160.455 122.986 160.747 122.913 161.185 122.913C161.331 122.913 161.55 122.986 161.842 123.059C162.061 123.132 162.207 123.205 162.28 123.205C162.353 123.205 162.426 123.205 162.499 123.132C162.572 123.059 162.572 122.986 162.572 122.913H162.718L162.864 124.592H162.645C162.499 124.081 162.28 123.716 162.061 123.57C161.769 123.351 161.477 123.278 161.258 123.278C161.039 123.278 160.82 123.351 160.674 123.497C160.528 123.643 160.455 123.789 160.455 124.008C160.455 124.227 160.528 124.373 160.674 124.519C160.82 124.665 160.966 124.811 161.258 124.957L161.915 125.395C162.353 125.687 162.645 125.906 162.791 126.125C162.937 126.344 163.083 126.636 163.083 126.928C163.083 127.366 162.937 127.658 162.645 127.95C162.353 128.241 161.915 128.387 161.477 128.387C161.258 128.387 160.966 128.314 160.747 128.241C160.455 128.168 160.309 128.095 160.309 128.095C160.236 128.095 160.163 128.096 160.09 128.168C160.09 128.241 160.017 128.314 160.017 128.314H159.871L159.652 126.636H159.798V126.49ZM154.032 127.877C154.324 127.877 154.543 127.804 154.689 127.731C154.762 127.658 154.835 127.439 154.835 127.147V123.716C154.835 123.424 154.762 123.205 154.689 123.132C154.616 123.059 154.397 122.986 154.032 122.986V122.84H156.368V122.986C156.076 122.986 155.857 123.059 155.711 123.132C155.638 123.205 155.565 123.424 155.565 123.716V127.22C155.565 127.512 155.638 127.731 155.711 127.804C155.784 127.877 156.003 127.95 156.368 127.95V128.095H154.032V127.877ZM147.317 126.49C147.463 126.855 147.609 127.147 147.755 127.366C148.047 127.731 148.485 127.95 148.923 127.95C149.142 127.95 149.361 127.877 149.58 127.731C149.799 127.585 149.872 127.366 149.872 127.074C149.872 126.782 149.799 126.563 149.58 126.417C149.434 126.271 149.215 126.125 148.85 125.906L148.193 125.468C147.974 125.322 147.828 125.176 147.682 125.103C147.463 124.884 147.317 124.592 147.317 124.3C147.317 123.935 147.463 123.57 147.682 123.278C147.974 122.986 148.266 122.913 148.704 122.913C148.85 122.913 149.069 122.986 149.361 123.059C149.58 123.132 149.726 123.205 149.799 123.205C149.872 123.205 149.945 123.205 150.018 123.132C150.091 123.059 150.091 122.986 150.091 122.913H150.237L150.383 124.592H150.164C150.018 124.081 149.799 123.716 149.58 123.57C149.288 123.351 148.996 123.278 148.777 123.278C148.558 123.278 148.339 123.351 148.193 123.497C148.047 123.643 147.974 123.789 147.974 124.008C147.974 124.227 148.047 124.373 148.193 124.519C148.339 124.665 148.485 124.811 148.777 124.957L149.434 125.395C149.872 125.687 150.164 125.906 150.31 126.125C150.456 126.344 150.602 126.636 150.602 126.928C150.602 127.366 150.456 127.658 150.164 127.95C149.872 128.241 149.434 128.387 148.996 128.387C148.777 128.387 148.485 128.314 148.266 128.241C147.974 128.168 147.828 128.095 147.828 128.095C147.755 128.095 147.682 128.096 147.609 128.168C147.609 128.241 147.536 128.314 147.536 128.314H147.39L147.171 126.636H147.317V126.49ZM138.559 127.877C138.778 127.877 138.924 127.804 138.997 127.658C139.07 127.512 139.289 127.147 139.508 126.563L141.113 122.694H141.259L143.23 127.147C143.376 127.439 143.449 127.658 143.522 127.731C143.595 127.804 143.741 127.877 143.887 127.877V128.023H141.916V127.877C142.135 127.877 142.281 127.804 142.354 127.804C142.427 127.804 142.427 127.731 142.427 127.585C142.427 127.512 142.427 127.512 142.354 127.366C142.354 127.293 142.281 127.147 142.281 127.074L141.989 126.344H139.946C139.727 126.855 139.654 127.147 139.581 127.293C139.508 127.439 139.508 127.512 139.508 127.585C139.508 127.731 139.581 127.804 139.654 127.877C139.727 127.877 139.873 127.95 140.019 127.95V128.095H138.559V127.877ZM141.916 126.052L141.04 123.862L140.165 126.052H141.916ZM130.238 125.468C130.238 124.665 130.53 123.935 131.041 123.424C131.552 122.986 132.136 122.694 132.793 122.694C133.523 122.694 134.106 122.913 134.544 123.424C135.055 123.935 135.347 124.592 135.347 125.468C135.347 126.344 135.055 127.001 134.544 127.512C134.033 127.95 133.45 128.168 132.793 128.168C132.063 128.168 131.479 127.95 130.968 127.439C130.457 126.928 130.238 126.271 130.238 125.468ZM131.114 125.468C131.114 126.271 131.26 126.928 131.625 127.293C131.917 127.658 132.355 127.877 132.793 127.877C133.231 127.877 133.669 127.658 133.96 127.293C134.252 126.928 134.471 126.271 134.471 125.468C134.471 124.592 134.325 124.008 133.96 123.643C133.596 123.278 133.231 123.059 132.793 123.059C132.355 123.059 131.917 123.278 131.625 123.643C131.26 124.008 131.114 124.665 131.114 125.468ZM120.239 122.767C120.531 122.767 120.822 122.84 121.114 122.913C121.406 122.986 121.552 123.059 121.625 123.059C121.698 123.059 121.771 123.059 121.844 122.986C121.917 122.913 121.99 122.913 121.99 122.767H122.136L122.209 124.519H122.063C121.99 124.154 121.844 123.862 121.625 123.643C121.333 123.205 120.895 123.059 120.312 123.059C119.728 123.059 119.29 123.278 118.998 123.716C118.633 124.154 118.487 124.738 118.487 125.541C118.487 126.271 118.706 126.782 119.071 127.22C119.436 127.658 119.874 127.877 120.458 127.877C120.896 127.877 121.26 127.804 121.552 127.585C121.771 127.439 121.99 127.293 122.209 127.074L122.355 127.22C122.209 127.439 121.99 127.658 121.698 127.804C121.26 128.096 120.749 128.241 120.239 128.241C119.363 128.241 118.706 127.95 118.195 127.439C117.757 126.928 117.538 126.344 117.538 125.541C117.538 124.811 117.757 124.154 118.268 123.643C118.706 123.059 119.363 122.767 120.239 122.767ZM112.064 127.877C112.356 127.877 112.575 127.804 112.721 127.731C112.794 127.658 112.867 127.439 112.867 127.147V123.716C112.867 123.424 112.794 123.205 112.721 123.132C112.648 123.059 112.429 122.986 112.064 122.986V122.84H114.399V122.986C114.108 122.986 113.889 123.059 113.743 123.132C113.67 123.205 113.597 123.424 113.597 123.716V127.22C113.597 127.512 113.67 127.731 113.743 127.804C113.816 127.877 114.035 127.95 114.399 127.95V128.095H112.064V127.877ZM104.546 122.84H108.998L109.071 124.154H108.852C108.779 123.716 108.633 123.497 108.487 123.351C108.341 123.205 108.049 123.132 107.612 123.132H107.174V127.147C107.174 127.439 107.247 127.658 107.32 127.731C107.393 127.804 107.612 127.877 107.976 127.877V128.023H105.714V127.877C106.079 127.877 106.225 127.804 106.371 127.731C106.517 127.658 106.517 127.439 106.517 127.074V123.132H106.079C105.641 123.132 105.349 123.205 105.203 123.351C105.057 123.497 104.911 123.716 104.838 124.154H104.619L104.546 122.84ZM97.8311 126.49C97.977 126.855 98.123 127.147 98.269 127.366C98.5609 127.731 98.9988 127.95 99.4368 127.95C99.6557 127.95 99.8747 127.877 100.094 127.731C100.313 127.585 100.386 127.366 100.386 127.074C100.386 126.782 100.313 126.563 100.094 126.417C99.9477 126.271 99.7288 126.125 99.3638 125.906L98.7069 125.468C98.4879 125.322 98.342 125.176 98.196 125.103C97.977 124.884 97.8311 124.592 97.8311 124.3C97.8311 123.935 97.977 123.57 98.196 123.278C98.488 122.986 98.7799 122.913 99.2178 122.913C99.3638 122.913 99.5828 122.986 99.8747 123.059C100.094 123.132 100.24 123.205 100.313 123.205C100.386 123.205 100.459 123.205 100.532 123.132C100.605 123.059 100.605 122.986 100.605 122.913H100.751L100.897 124.592H100.678C100.532 124.081 100.313 123.716 100.094 123.57C99.8017 123.351 99.5098 123.278 99.2908 123.278C99.0719 123.278 98.8529 123.351 98.7069 123.497C98.5609 123.643 98.4879 123.789 98.4879 124.008C98.4879 124.227 98.5609 124.373 98.7069 124.519C98.8529 124.665 98.9989 124.811 99.2908 124.957L99.9477 125.395C100.386 125.687 100.678 125.906 100.824 126.125C100.97 126.344 101.116 126.636 101.116 126.928C101.116 127.366 100.97 127.658 100.678 127.95C100.386 128.241 99.9477 128.387 99.5098 128.387C99.2908 128.387 98.9989 128.314 98.7799 128.241C98.488 128.168 98.3419 128.095 98.3419 128.095C98.269 128.095 98.196 128.096 98.123 128.168C98.123 128.241 98.05 128.314 98.05 128.314H97.904L97.6851 126.636H97.8311V126.49ZM92.0649 127.877C92.3569 127.877 92.5759 127.804 92.7218 127.731C92.7948 127.658 92.8678 127.439 92.8678 127.147V123.716C92.8678 123.424 92.7948 123.205 92.7218 123.132C92.6489 123.059 92.4299 122.986 92.0649 122.986V122.84H94.4006V122.986C94.1086 122.986 93.8896 123.059 93.7437 123.132C93.6707 123.205 93.5977 123.424 93.5977 123.716V127.22C93.5977 127.512 93.6707 127.731 93.7437 127.804C93.8167 127.877 94.0356 127.95 94.4006 127.95V128.095H92.0649V127.877ZM84.4741 127.877C84.766 127.877 84.985 127.804 85.058 127.731C85.131 127.658 85.204 127.439 85.204 127.147V123.716C85.204 123.424 85.131 123.278 85.058 123.205C84.985 123.132 84.766 123.059 84.4741 123.059V122.913H86.6637V123.059C86.3718 123.059 86.1528 123.132 86.0798 123.205C86.0069 123.278 85.9339 123.424 85.9339 123.716V127.512C85.9339 127.585 85.9339 127.658 86.0069 127.731C86.0069 127.804 86.0799 127.804 86.2258 127.804C86.2988 127.804 86.3718 127.804 86.4448 127.804C86.5178 127.804 86.6638 127.804 86.8097 127.804C87.5396 127.804 87.9776 127.731 88.1965 127.658C88.4155 127.585 88.7075 127.22 88.9264 126.782H89.1454L88.7804 128.168H84.5471V127.877H84.4741ZM76.2264 125.468C76.2264 124.665 76.5183 123.935 77.0293 123.424C77.5402 122.986 78.1241 122.694 78.781 122.694C79.5109 122.694 80.0948 122.913 80.5327 123.424C81.0436 123.935 81.3356 124.592 81.3356 125.468C81.3356 126.344 81.0436 127.001 80.5327 127.512C80.0218 127.95 79.4379 128.168 78.781 128.168C78.0511 128.168 77.4672 127.95 76.9563 127.439C76.4453 126.928 76.2264 126.271 76.2264 125.468ZM77.1022 125.468C77.1022 126.271 77.2482 126.928 77.6132 127.293C77.9051 127.658 78.343 127.877 78.781 127.877C79.2189 127.877 79.6569 127.658 79.9488 127.293C80.2408 126.928 80.4597 126.271 80.4597 125.468C80.4597 124.592 80.3138 124.008 79.9488 123.643C79.5839 123.278 79.2189 123.059 78.781 123.059C78.343 123.059 77.9051 123.278 77.6132 123.643C77.2482 124.008 77.1022 124.665 77.1022 125.468ZM67.6867 127.877C67.9786 127.877 68.1976 127.804 68.2706 127.731C68.3436 127.658 68.4166 127.439 68.4166 127.074V123.716C68.4166 123.424 68.3436 123.278 68.2706 123.132C68.1976 123.059 67.9786 122.986 67.6867 122.986V122.84H69.8763V122.986C69.5844 122.986 69.3654 123.059 69.2924 123.132C69.2194 123.205 69.1464 123.424 69.1464 123.716V125.249H71.5551V123.716C71.5551 123.424 71.4821 123.278 71.4091 123.132C71.3361 123.059 71.1172 122.986 70.8252 122.986V122.84H73.0149V122.986C72.7229 122.986 72.5039 123.059 72.4309 123.132C72.358 123.205 72.285 123.424 72.285 123.716V127.22C72.285 127.512 72.358 127.658 72.4309 127.804C72.5039 127.877 72.7229 127.95 73.0149 127.95V128.095H70.8252V127.95C71.1172 127.95 71.3361 127.877 71.4091 127.804C71.4821 127.731 71.5551 127.512 71.5551 127.147V125.614H69.1464V127.22C69.1464 127.512 69.2194 127.658 69.2924 127.804C69.3654 127.95 69.5844 127.95 69.8763 127.95V128.095H67.6867V127.877ZM54.5487 127.877C54.8407 127.877 54.9867 127.804 55.1326 127.731C55.2056 127.658 55.2786 127.439 55.2786 127.147V123.716C55.2786 123.424 55.2056 123.278 55.1326 123.132C55.0597 123.059 54.8407 122.986 54.5487 122.986V122.84H56.6654C57.3953 122.84 57.9792 122.986 58.4901 123.205C59.366 123.643 59.8039 124.373 59.8039 125.468C59.8039 125.833 59.7309 126.198 59.5849 126.563C59.439 126.928 59.22 127.22 58.8551 127.439C58.6361 127.585 58.4171 127.731 58.1981 127.804C57.8332 127.95 57.3223 128.023 56.7384 128.023H54.5487V127.877ZM56.0815 127.439C56.0815 127.585 56.0815 127.658 56.1545 127.658C56.2274 127.731 56.3734 127.731 56.5194 127.731C57.1033 127.731 57.6143 127.585 58.0522 127.366C58.6361 127.001 58.928 126.344 58.928 125.468C58.928 124.665 58.7091 124.081 58.1981 123.643C57.7602 123.278 57.1763 123.132 56.5194 123.132C56.3734 123.132 56.2274 123.132 56.1545 123.205C56.0815 123.278 56.0815 123.351 56.0815 123.424V127.439ZM47.0309 127.877C47.3228 127.877 47.5418 127.804 47.6148 127.731C47.6878 127.658 47.7608 127.439 47.7608 127.147V123.716C47.7608 123.424 47.6878 123.278 47.6148 123.205C47.5418 123.132 47.3228 123.059 47.0309 123.059V122.913H51.1912V124.008H50.9723C50.8993 123.643 50.8263 123.424 50.6803 123.351C50.5343 123.278 50.2424 123.205 49.8044 123.205H48.7096C48.5636 123.205 48.4906 123.205 48.4906 123.278C48.4906 123.351 48.4177 123.351 48.4177 123.497V125.249H49.6585C50.0234 125.249 50.2424 125.176 50.3154 125.103C50.3883 125.03 50.4613 124.811 50.5343 124.519H50.7533V126.344H50.5343C50.4613 126.052 50.3883 125.833 50.3154 125.76C50.2424 125.687 50.0234 125.614 49.6585 125.614H48.4177V127.585C48.4177 127.731 48.4907 127.804 48.5637 127.877C48.6366 127.877 48.9286 127.95 49.4395 127.95C49.9504 127.95 50.3884 127.877 50.6073 127.804C50.8263 127.658 51.1182 127.439 51.2642 126.928H51.4832L51.1183 128.241H46.8849V127.877H47.0309ZM39.513 122.84H43.9653L44.0383 124.154H43.8194C43.7464 123.716 43.6004 123.497 43.4544 123.351C43.3085 123.205 43.0165 123.132 42.5786 123.132H42.1406V127.147C42.1406 127.439 42.2136 127.658 42.2866 127.731C42.3596 127.804 42.5786 127.877 42.9435 127.877V128.023H40.6079V127.877C40.9728 127.877 41.1188 127.804 41.2648 127.731C41.4108 127.658 41.4107 127.439 41.4107 127.074V123.132H40.9728C40.5349 123.132 40.2429 123.205 40.0969 123.351C39.951 123.497 39.805 123.716 39.732 124.154H39.513V122.84ZM31.9222 127.877C32.1412 127.877 32.2872 127.804 32.3601 127.658C32.4331 127.512 32.6521 127.147 32.8711 126.563L34.4768 122.694H34.6228L36.5935 127.147C36.7395 127.439 36.8125 127.658 36.8855 127.731C36.9584 127.804 37.1044 127.877 37.2504 127.877V128.023H35.2797V127.877C35.4987 127.877 35.6446 127.804 35.7176 127.804C35.7906 127.804 35.7906 127.731 35.7906 127.585C35.7906 127.512 35.7906 127.512 35.7176 127.366C35.7176 127.293 35.6446 127.147 35.6446 127.074L35.3527 126.344H33.309C33.09 126.855 33.017 127.147 32.944 127.293C32.8711 127.439 32.8711 127.512 32.8711 127.585C32.8711 127.731 32.944 127.804 33.017 127.877C33.09 127.877 33.236 127.95 33.382 127.95V128.095H31.9222V127.877ZM35.3527 126.052L34.4768 123.862L33.601 126.052H35.3527ZM26.667 122.986C26.4481 122.986 26.3021 122.986 26.2291 123.059C26.0831 123.132 26.0101 123.205 26.0101 123.278C26.0101 123.351 26.0101 123.424 26.0831 123.57C26.1561 123.716 26.2291 123.862 26.3021 124.154L27.5429 126.855L28.6377 123.862C28.7107 123.716 28.7107 123.643 28.7837 123.497C28.7837 123.424 28.8567 123.351 28.8567 123.278C28.8567 123.132 28.7837 123.059 28.6377 122.986C28.5647 122.986 28.4187 122.913 28.2727 122.913V122.767H29.8785V122.913C29.7325 122.913 29.5866 122.986 29.5136 123.059C29.3676 123.132 29.2946 123.351 29.1486 123.643L27.3969 128.023H27.2509L25.2802 123.716C25.1343 123.351 24.9883 123.132 24.9153 123.059C24.8423 122.986 24.6963 122.913 24.4774 122.913V122.767H26.667V122.986ZM16.9595 127.877C17.2515 127.877 17.4704 127.804 17.5434 127.731C17.6164 127.658 17.6894 127.439 17.6894 127.147V123.716C17.6894 123.424 17.6164 123.278 17.5434 123.205C17.4704 123.132 17.2515 123.059 16.9595 123.059V122.913H21.1199V124.008H20.9009C20.8279 123.643 20.7549 123.424 20.609 123.351C20.463 123.278 20.171 123.205 19.7331 123.205H18.7112C18.5653 123.205 18.4923 123.205 18.4923 123.278C18.4923 123.351 18.4193 123.351 18.4193 123.497V125.249H19.6601C20.025 125.249 20.244 125.176 20.317 125.103C20.39 125.03 20.463 124.811 20.536 124.519H20.7549V126.344H20.536C20.463 126.052 20.39 125.833 20.317 125.76C20.244 125.687 20.025 125.614 19.6601 125.614H18.4193V127.585C18.4193 127.731 18.4923 127.804 18.5653 127.877C18.6382 127.877 18.9302 127.95 19.4411 127.95C19.952 127.95 20.39 127.877 20.609 127.804C20.8279 127.658 21.1199 127.439 21.2658 126.928H21.4848L21.1199 128.241H16.8865V127.877H16.9595ZM9.44166 127.877C9.73362 127.877 9.95259 127.804 10.0256 127.731C10.0986 127.658 10.1715 127.439 10.1715 127.147V123.716C10.1715 123.424 10.0986 123.278 10.0256 123.205C9.95259 123.132 9.73362 123.059 9.44166 123.059V122.913H11.6313V123.059C11.3394 123.059 11.1204 123.132 11.0474 123.205C10.9744 123.278 10.9014 123.424 10.9014 123.716V127.512C10.9014 127.585 10.9014 127.658 10.9744 127.731C10.9744 127.804 11.0474 127.804 11.1934 127.804C11.2664 127.804 11.3394 127.804 11.4124 127.804C11.4854 127.804 11.6313 127.804 11.7773 127.804C12.5072 127.804 12.9451 127.731 13.1641 127.658C13.3831 127.512 13.675 127.22 13.894 126.782H14.113L13.748 128.168H9.51465V127.877H9.44166ZM1.92383 127.877C2.21578 127.877 2.43474 127.804 2.50773 127.731C2.58072 127.658 2.65372 127.439 2.65372 127.147V123.716C2.65372 123.424 2.58072 123.278 2.50773 123.205C2.43474 123.132 2.21578 123.059 1.92383 123.059V122.913H6.0842V124.008H5.86522C5.79223 123.643 5.71924 123.424 5.57327 123.351C5.42729 123.278 5.13532 123.205 4.69739 123.205H3.60256C3.45658 123.205 3.3836 123.205 3.3836 123.278C3.3836 123.351 3.31061 123.351 3.31061 123.497V125.249H4.55143C4.91637 125.249 5.13533 125.176 5.20832 125.103C5.28131 125.03 5.35429 124.811 5.42728 124.519H5.64626V126.344H5.42728C5.35429 126.052 5.28131 125.833 5.20832 125.76C5.13533 125.687 4.91637 125.614 4.55143 125.614H3.3836V127.585C3.3836 127.731 3.4566 127.804 3.52959 127.877C3.60258 127.877 3.89452 127.95 4.40544 127.95C4.91636 127.95 5.3543 127.877 5.57327 127.804C5.79223 127.658 6.08418 127.439 6.23016 126.928H6.44914L6.0842 128.241H1.92383V127.877Z" fill="white"/>
<path d="M85.2436 114.811C84.2947 115.176 83.5649 115.906 83.1999 116.855C82.835 115.906 82.1051 115.176 81.1562 114.811C82.1051 114.446 82.835 113.716 83.1999 112.768C83.4919 113.716 84.2947 114.446 85.2436 114.811Z" fill="#F5C03D"/>
<path d="M92.907 114.227H164.582C164.655 114.227 164.655 114.3 164.655 114.3V114.592C164.655 114.665 164.582 114.665 164.582 114.665H92.907C92.834 114.665 92.834 114.592 92.834 114.592V114.3C92.834 114.3 92.834 114.227 92.907 114.227Z" fill="#F5C03D"/>
<path d="M1.6726 114.227H73.3476C73.4206 114.227 73.4205 114.3 73.4205 114.3V114.592C73.4205 114.665 73.3476 114.665 73.3476 114.665H1.6726C1.59961 114.665 1.59961 114.592 1.59961 114.592V114.3C1.59961 114.3 1.59961 114.227 1.6726 114.227Z" fill="#F5C03D"/>
<path d="M83.1901 54.9605C83.1901 54.9605 69.9792 53.1358 67.7895 36.6404C67.7895 36.6404 68.6654 34.5967 68.8113 35.8375C69.6872 42.1875 72.9717 51.2381 83.4821 53.8657L83.1901 54.9605ZM78.2269 59.5588L76.9861 58.683C76.9861 58.683 79.6137 55.8364 78.5189 52.7709L80.0516 53.6467C80.0516 53.5737 80.4166 57.0042 78.2269 59.5588ZM89.9781 58.683L88.7373 59.1209C86.5477 56.5663 86.9126 53.5737 86.9126 53.5737L88.4453 52.6979C87.3505 55.8364 89.9781 58.683 89.9781 58.683ZM83.1901 54.9605V53.8657C93.7005 51.2381 96.6931 42.1875 97.5689 35.8375C97.7149 34.5967 98.5908 36.6404 98.5908 36.6404C96.4011 53.1358 83.1901 54.9605 83.1901 54.9605ZM67.2056 38.684C65.9648 40.2168 65.016 41.6766 64.3591 42.9904C67.7165 52.187 76.3292 60.7996 81.2925 69.1204C79.6867 64.96 77.1321 59.8508 74.5775 54.5956C71.8769 49.2674 69.1763 43.7203 67.2056 38.684ZM73.2637 30.7283C75.5263 28.6846 77.789 26.5679 79.8327 23.2834C77.935 25.1081 75.8183 25.984 73.7016 26.7869C71.001 27.8817 68.0815 29.1955 65.8918 31.5312C66.2567 33.0639 66.8407 34.7427 67.4976 36.5674C69.2493 34.3777 71.22 32.553 73.2637 30.7283ZM80.2706 20.9478C78.0079 22.2616 75.3804 22.0426 72.8987 21.7506C70.1252 21.4587 67.4246 21.1667 65.8918 23.5754C64.9429 25.0351 64.87 27.3708 65.4539 30.1443C67.7895 27.8817 70.5631 26.5679 73.3367 25.4731C75.8183 24.5242 78.2269 23.5754 80.2706 20.9478ZM82.6062 16.6414C80.3436 16.0575 77.2051 18.4662 75.6723 20.5828C77.862 20.4369 81.0005 19.561 82.6062 16.6414ZM63.8481 41.5306C64.578 40.2168 65.5269 38.83 66.6947 37.4432C66.0378 35.6915 65.4539 34.0128 65.0889 32.48C63.1182 35.1806 62.8993 38.1731 63.8481 41.5306ZM63.9211 53.7197C65.8188 57.1502 69.4682 60.1427 73.1907 63.0623C75.4533 64.814 77.716 66.6387 79.6137 68.6094C74.6505 60.9456 67.1326 53.0628 63.7021 44.3772C62.1694 48.0996 62.4614 51.0921 63.9211 53.7197ZM82.6792 74.8135C80.1246 69.3393 73.1177 64.814 68.8844 61.1646C71.001 68.9014 76.4752 74.3755 82.6792 74.8135ZM77.789 58.8289C77.789 58.8289 82.5332 68.9744 83.5551 72.7698V76.2732C76.1102 76.2732 69.4683 69.5583 67.4976 59.9968C65.6728 58.318 64.1401 56.4933 63.0453 54.5226C61.2935 51.2381 60.9286 47.5157 63.1182 42.9174C61.6585 38.5381 61.8045 34.3777 64.651 31.0202C63.8482 27.5168 63.9211 24.5972 65.1619 22.6265C65.8188 21.6047 66.6217 20.9478 67.4976 20.5828C70.6361 19.634 74.4315 20.5098 74.4315 20.5098C74.4315 20.5098 76.8401 15.1087 83.4091 14.9627L83.4821 17.5903C83.4821 17.5903 81.1465 23.2104 79.8327 25.2541C79.8327 25.2541 79.3217 26.4219 79.0298 26.3489C77.2051 28.7576 72.9717 32.48 72.9717 32.48L72.0229 33.3559C72.0229 33.3559 69.1763 36.1294 67.8625 37.7352C70.5631 44.5231 77.1321 57.5151 77.1321 57.5151L77.789 58.8289ZM67.7165 67.4416C64.286 67.4416 61.0746 65.9088 58.7389 63.4272C56.4763 60.9456 55.0165 57.5881 55.0165 53.7197C55.0165 49.4134 56.1843 45.18 57.863 41.2386C59.5418 37.2973 61.8044 34.6697 64.0671 31.4582C64.286 31.1662 64.505 30.8012 64.724 30.5093L65.3079 31.7501C65.1619 31.8961 65.089 32.0421 65.016 32.188C62.8263 35.3996 60.6366 37.9542 58.9579 41.7496C57.2791 45.545 56.1843 49.6324 56.1843 53.7197C56.1843 57.2232 57.4981 60.2887 59.5418 62.5514C61.6585 64.814 64.578 66.2008 67.7165 66.2008C69.1033 66.2008 69.1033 66.2738 70.2711 65.9088L70.5631 67.1497C69.2493 67.5146 69.1763 67.4416 67.7165 67.4416ZM79.0298 13.7949C77.57 15.4736 76.0373 17.1523 74.5775 18.8311C73.9206 19.561 73.2637 20.3639 72.6068 21.0937L71.147 21.0208C72.0229 19.9989 72.8988 18.9771 73.7746 17.9552C75.2344 16.2765 76.6942 14.5978 78.2269 12.919C79.6867 11.2403 81.2195 9.56152 82.7522 7.95577L83.1172 7.51783V9.26958C83.1172 9.26958 80.3436 12.2621 79.0298 13.7949ZM67.7165 62.1134C65.5998 62.1134 63.6292 61.1646 62.1694 59.6318C60.7826 58.172 59.8337 56.0554 59.8337 53.7197C59.8337 50.1433 61.3665 46.4208 62.8993 42.9904L63.9211 43.7933C62.4614 47.0777 60.9286 50.3622 60.9286 53.7927C60.9286 55.7634 61.6585 57.5151 62.8993 58.8289C64.1401 60.1427 65.8918 60.9456 67.7165 60.9456C67.8625 60.9456 67.9355 60.9456 68.0085 60.9456L68.2274 61.9674C67.4246 62.0404 68.5194 62.1134 67.7165 62.1134ZM68.0085 60.7996L67.9355 60.5807C67.9355 60.5807 68.3004 60.7266 68.0085 60.7996ZM82.4603 2.48161L82.2413 2.70059C78.5189 6.78796 74.7234 10.8753 71.147 15.1087C69.3953 17.1524 67.6435 19.1961 66.0378 21.3127C64.359 23.4294 62.7533 25.6191 61.2205 27.8087C58.6659 31.5311 56.1843 35.6185 54.3596 39.9978C52.5349 44.3042 51.3671 48.9755 51.3671 53.7197C51.3671 58.683 53.1918 63.1353 56.1113 66.2738C59.1039 69.5583 63.1912 71.529 67.6435 71.529C69.8332 71.529 73.4097 70.5801 73.4097 70.5801L73.7746 71.8209C73.7746 71.8209 69.9792 72.8428 67.6435 72.8428C62.8993 72.8428 58.4469 70.7261 55.3084 67.2226C52.1699 63.7922 50.1992 59.0479 50.1992 53.7197C50.1992 48.7565 51.4401 44.0122 53.3378 39.4869C55.2355 35.0346 57.7171 30.8013 60.2717 27.0788C61.8045 24.8162 63.4102 22.6265 65.1619 20.5098C66.8407 18.3932 68.5924 16.2765 70.3441 14.2328C73.9936 9.99946 77.716 5.91208 81.5114 1.75173L81.7304 1.53277L82.7522 0.437937L83.1172 0V1.75173L82.4603 2.48161ZM101.437 32.48C100.999 34.0857 100.488 35.6915 99.8316 37.4432C100.999 38.903 101.948 40.2168 102.678 41.5306C103.554 38.1731 103.335 35.1806 101.437 32.48ZM100.488 23.5024C98.9557 21.0938 96.2552 21.3857 93.4816 21.6777C91 21.9696 88.4453 22.2616 86.1097 20.8748C88.1534 23.5024 90.635 24.4512 93.0436 25.4001C95.8172 26.4949 98.5908 27.7357 100.926 30.0714C101.51 27.2978 101.437 25.0352 100.488 23.5024ZM83.8471 16.6414C85.3798 19.561 88.5913 20.4369 90.781 20.5828C89.2482 18.4662 86.1097 16.0575 83.8471 16.6414ZM93.1896 30.7283C95.2333 32.553 97.131 34.3777 98.9557 36.5674C99.6126 34.8156 100.197 33.1369 100.561 31.5312C98.3718 29.1225 95.4523 27.8087 92.7517 26.7869C90.635 25.984 88.5183 25.1081 86.6206 23.2834C88.6643 26.5679 90.927 28.6846 93.1896 30.7283ZM91.9488 54.6686C89.3942 59.9238 86.8396 64.96 85.2338 69.1933C90.27 60.8726 98.8827 52.2599 102.167 43.0634C101.437 41.7496 100.561 40.2898 99.3207 38.757C97.277 43.7203 94.5764 49.2674 91.9488 54.6686ZM97.5689 61.1646C93.3356 64.814 86.2557 69.3393 83.774 74.8135C89.9781 74.3755 95.4523 68.9014 97.5689 61.1646ZM102.532 53.7197C103.919 51.0921 104.284 48.0996 102.751 44.3772C99.3206 53.0628 91.8028 60.8726 86.8396 68.6094C88.7373 66.6387 90.9999 64.887 93.2626 63.0623C96.985 60.0697 100.707 57.1502 102.532 53.7197ZM103.335 42.9174C105.525 47.5157 105.16 51.2381 103.408 54.5226C102.313 56.4933 100.78 58.245 98.9557 59.9968C96.985 69.5583 90.4161 76.2732 82.8982 76.2732V72.7698C83.9201 69.0474 88.6643 58.8289 88.6643 58.8289L89.3212 57.5151C89.3212 57.5151 95.8902 44.5961 98.5908 37.7352C97.277 36.2024 94.4304 33.3559 94.4304 33.3559L93.4816 32.48C93.4816 32.48 89.3212 28.7576 87.4235 26.3489C87.1315 26.3489 86.6206 25.2541 86.6206 25.2541C85.2338 23.2834 82.9712 17.5903 82.9712 17.5903L83.0442 14.9627C89.6861 15.1087 92.0218 20.5098 92.0218 20.5098C92.0218 20.5098 95.8172 19.634 98.9557 20.5828C99.8316 20.9478 100.634 21.6047 101.291 22.6265C102.532 24.5972 102.605 27.4438 101.802 31.0202C104.576 34.3777 104.795 38.4651 103.335 42.9174ZM86.9856 13.7949C85.5988 12.2621 82.8982 9.26958 82.8982 9.26958V7.51783L83.2632 7.95577C84.7959 9.63451 86.2557 11.2403 87.7884 12.919C89.2482 14.5978 93.1166 19.0501 94.5764 20.7288L93.5546 21.1667C92.0948 19.488 88.5183 15.4736 86.9856 13.7949ZM107.276 63.4272C104.941 65.9088 101.729 67.4416 98.2988 67.4416C96.839 67.4416 96.9121 67.5146 95.6712 67.0767L95.9632 65.8359C97.131 66.2008 96.912 66.1278 98.2988 66.1278C101.437 66.1278 104.357 64.741 106.474 62.4784C108.517 60.2157 109.831 57.1502 109.831 53.6467C109.831 49.5594 108.736 45.545 107.057 41.6766C105.379 37.8082 100.999 31.8961 100.999 31.8961L101.875 31.0932C101.875 31.0932 106.328 37.1513 108.079 41.0927C109.831 45.107 110.926 49.3404 110.926 53.5737C110.999 57.5151 109.539 60.9456 107.276 63.4272ZM103.919 59.6318C102.459 61.1646 100.488 62.1134 98.3718 62.1134V60.7996C100.197 60.7996 101.948 59.9968 103.189 58.683C104.357 57.4421 105.16 55.6904 105.16 53.6467C105.16 50.2893 104.138 46.7858 102.605 43.4283L103.408 42.8444C104.941 46.3479 106.255 49.9973 106.255 53.5737C106.182 56.0554 105.306 58.0991 103.919 59.6318ZM110.707 67.2226C107.495 70.7261 103.116 72.8428 98.3718 72.8428C96.0362 72.8428 92.2408 71.8209 92.2408 71.8209L92.6057 70.5801C92.6057 70.5801 96.1821 71.529 98.3718 71.529C102.824 71.529 106.985 69.5583 109.904 66.2738C112.824 63.0623 114.648 58.683 114.648 53.7197C114.648 48.9755 113.48 44.3772 111.656 39.9978C109.831 35.6185 107.349 31.5311 104.795 27.8087C103.262 25.5461 101.656 23.4294 99.9776 21.3127C98.2988 19.1961 96.6201 17.1524 94.8683 15.1087C91.2189 10.8753 87.4965 6.78796 83.774 2.70059L82.8982 1.82472V0.0729932L83.2632 0.51093L84.285 1.60576L84.5039 1.82472C88.2264 5.91209 92.0218 9.99946 95.6712 14.3058C97.423 16.3495 99.1747 18.3932 100.853 20.5828C102.532 22.6995 104.138 24.8892 105.744 27.1518C108.298 30.8743 110.853 35.1076 112.678 39.5599C114.575 44.0852 115.816 48.8295 115.816 53.7927C115.816 59.0479 113.845 63.7922 110.707 67.2226ZM76.4752 59.1209L77.2781 58.0991C83.993 62.0404 89.3942 58.0991 89.3942 58.0991L89.9051 58.9019C83.92 63.5732 76.4752 59.1209 76.4752 59.1209ZM83.0442 33.5018V31.9691L83.6281 30.4363L83.0442 29.5604V28.4656L84.5039 29.9254L83.0442 33.5018ZM83.0442 33.5018L81.5844 29.9254L83.0442 28.4656V29.5604L82.4603 30.4363L83.0442 31.9691V33.5018ZM83.1172 69.4853V67.1497L84.7959 63.0623L83.1172 61.3835V59.9238L85.8907 62.6973L83.1172 69.4853ZM83.4091 69.4853L80.6355 62.6243L83.4091 59.8508V61.3106L81.7304 62.9893L83.4091 67.0767V69.4853ZM72.7528 32.48L72.3878 31.3852C79.3217 30.8013 83.1172 24.0133 83.1172 24.0133V25.6921C79.2488 31.7501 72.7528 32.48 72.7528 32.48ZM93.3356 32.48C93.3356 32.48 86.9126 31.6771 82.9712 25.6191V23.9403C82.9712 23.9403 86.6936 30.7283 93.7005 31.3122L93.3356 32.48ZM71.001 36.5674L71.9499 35.9834C71.9499 35.9834 71.439 40.2168 79.3217 38.5381L79.6137 39.3409C79.6137 39.3409 71.5849 41.4576 71.001 36.5674ZM95.0143 36.5674C94.3574 41.5306 86.4017 39.3409 86.4017 39.3409L86.6936 38.5381C94.5764 40.2168 94.0655 35.9834 94.0655 35.9834L95.0143 36.5674ZM80.6355 49.2674L80.8545 48.3186C80.8545 48.3186 81.6574 49.1944 83.1172 48.4645L83.4091 49.4864C83.4821 49.5594 81.9493 50.2163 80.6355 49.2674ZM83.1172 47.5157C83.1172 47.5157 82.3873 46.9318 81.2194 47.6616C80.0516 48.3915 79.3217 47.5157 79.3217 47.5157L79.8327 46.5668C79.8327 46.5668 80.0516 47.2967 81.2194 46.5668C82.3873 45.8369 83.4091 46.4209 83.4091 46.4209L83.1172 47.5157ZM83.1172 43.5743L83.3361 44.5961C81.9493 44.4502 81.0005 43.3553 81.0005 43.3553C84.5039 30.6553 72.2418 32.48 72.2418 32.48L74.5045 31.5312C85.8908 31.6041 82.0953 42.9174 82.0953 42.9174C82.4603 43.3553 83.1172 43.5743 83.1172 43.5743ZM82.6792 49.5594L82.9712 48.5375C84.431 49.2674 85.2338 48.3915 85.2338 48.3915L85.4528 49.3404C84.212 50.2163 82.6792 49.5594 82.6792 49.5594ZM84.8689 47.5887C83.7011 46.8588 82.9712 47.4427 82.9712 47.4427L82.6792 46.4209C82.6792 46.4209 83.7011 45.7639 84.8689 46.5668C86.0367 47.2967 86.2557 46.5668 86.2557 46.5668L86.7666 47.5157C86.7666 47.5157 86.0367 48.3186 84.8689 47.5887ZM85.1608 43.3553C85.1608 43.3553 84.212 44.4502 82.8252 44.5961L83.0442 43.5743C83.0442 43.5743 83.7011 43.4283 84.139 42.9174C84.139 42.9174 80.3436 31.6041 91.7298 31.5312L93.9925 32.48C93.9195 32.407 81.6574 30.5823 85.1608 43.3553Z" fill="#F5C03D"/>
</svg>
