<svg width="150" height="123" viewBox="0 0 150 123" fill="none" xmlns="http://www.w3.org/2000/svg">
<path d="M75.2952 50.361C75.2952 50.361 63.2232 48.6936 61.2223 33.6202C61.2223 33.6202 62.0226 31.7527 62.156 32.8866C62.9564 38.6891 65.9577 46.9595 75.562 49.3605L75.2952 50.361ZM70.7598 54.5629L69.626 53.7625C69.626 53.7625 72.0271 51.1613 71.0266 48.3601L72.4272 49.1605C72.4272 49.0938 72.7607 52.2285 70.7598 54.5629ZM81.4979 53.7625L80.3641 54.1627C78.3632 51.8283 78.6967 49.0938 78.6967 49.0938L80.0973 48.2934C79.0969 51.1614 81.4979 53.7625 81.4979 53.7625ZM75.2952 50.361V49.3605C84.8994 46.9595 87.634 38.6891 88.4344 32.8866C88.5678 31.7527 89.3681 33.6202 89.3681 33.6202C87.3672 48.6936 75.2952 50.361 75.2952 50.361ZM60.6887 35.4877C59.5549 36.8883 58.6878 38.2223 58.0875 39.4228C61.1556 47.8265 69.0257 55.6967 73.5611 63.3001C72.0938 59.4984 69.7594 54.8296 67.425 50.0275C64.9573 45.1587 62.4895 40.0898 60.6887 35.4877ZM66.2245 28.2178C68.2921 26.3503 70.3597 24.4161 72.2272 21.4148C70.4931 23.0822 68.5589 23.8826 66.6247 24.6162C64.1569 25.6167 61.489 26.8172 59.4881 28.9515C59.8216 30.3521 60.3552 31.8861 60.9555 33.5535C62.5562 31.5526 64.357 29.8852 66.2245 28.2178ZM72.6273 19.2805C70.5597 20.4811 68.1587 20.2809 65.891 20.0142C63.3566 19.7474 60.8888 19.4806 59.4881 21.6816C58.6211 23.0155 58.5544 25.1498 59.088 27.6842C61.2223 25.6167 63.7567 24.4161 66.2912 23.4157C68.5589 22.5486 70.7598 21.6816 72.6273 19.2805ZM74.7616 15.3454C72.694 14.8119 69.8261 17.0128 68.4255 18.947C70.4264 18.8136 73.2943 18.0133 74.7616 15.3454ZM57.6207 38.0889C58.2876 36.8883 59.1547 35.6211 60.2218 34.3539C59.6216 32.7532 59.088 31.2192 58.7545 29.8185C56.9537 32.2863 56.7536 35.0208 57.6207 38.0889ZM57.6874 49.2272C59.4215 52.3619 62.7563 55.0964 66.1578 57.7643C68.2254 59.365 70.293 61.0324 72.0271 62.8332C67.4917 55.8301 60.622 48.6269 57.4873 40.69C56.0866 44.0915 56.3535 46.8261 57.6874 49.2272ZM74.8283 68.5024C72.4939 63.5002 66.0911 59.365 62.2227 56.0302C64.1569 63.1 69.1591 68.1022 74.8283 68.5024ZM70.3597 53.8959C70.3597 53.8959 74.6949 63.1667 75.6287 66.6349V69.8363C68.8256 69.8363 62.7563 63.7003 60.9555 54.963C59.2881 53.429 57.8875 51.7616 56.887 49.9608C55.2863 46.9595 54.9528 43.558 56.9537 39.3561C55.6198 35.3543 55.7532 31.5526 58.3543 28.4846C57.6207 25.2832 57.6873 22.6153 58.8212 20.8145C59.4214 19.8808 60.1551 19.2805 60.9555 18.947C63.8234 18.08 67.2916 18.8803 67.2916 18.8803C67.2916 18.8803 69.4926 13.9448 75.4953 13.8114L75.562 16.2125C75.562 16.2125 73.4277 21.3481 72.2272 23.2156C72.2272 23.2156 71.7603 24.2827 71.4935 24.216C69.8261 26.417 65.9577 29.8185 65.9577 29.8185L65.0907 30.6189C65.0907 30.6189 62.4895 33.1534 61.289 34.6207C63.7567 40.8234 69.7594 52.6954 69.7594 52.6954L70.3597 53.8959ZM61.1556 61.7661C58.0208 61.7661 55.0862 60.3654 52.9519 58.0978C50.8843 55.8301 49.5504 52.7621 49.5504 49.2272C49.5504 45.2921 50.6175 41.4237 52.1516 37.8221C53.6856 34.2205 55.7532 31.8194 57.8207 28.8848C58.0208 28.618 58.2209 28.2845 58.421 28.0177L58.9546 29.1516C58.8212 29.285 58.7545 29.4184 58.6878 29.5517C56.6869 32.4864 54.686 34.8208 53.152 38.289C51.618 41.7572 50.6175 45.4922 50.6175 49.2272C50.6175 52.4286 51.8181 55.2298 53.6856 57.2974C55.6198 59.365 58.2876 60.6322 61.1556 60.6322C62.4228 60.6322 62.4228 60.6989 63.4899 60.3654L63.7567 61.4993C62.5562 61.8328 62.4895 61.7661 61.1556 61.7661ZM71.4935 12.7443C70.1596 14.2783 68.7589 15.8123 67.425 17.3463C66.8248 18.0133 66.2245 18.7469 65.6242 19.4139L64.2903 19.3472C65.0906 18.4135 65.891 17.4797 66.6914 16.546C68.0253 15.012 69.3592 13.4779 70.7598 11.9439C72.0938 10.4099 73.4944 8.87588 74.895 7.40857L75.2285 7.00838V8.60911C75.2285 8.60911 72.694 11.3436 71.4935 12.7443ZM61.1556 56.8972C59.2214 56.8972 57.4206 56.0302 56.0866 54.6296C54.8194 53.2956 53.9524 51.3614 53.9524 49.2272C53.9524 45.959 55.353 42.5575 56.7536 39.4228L57.6874 40.1565C56.3535 43.1578 54.9528 46.1591 54.9528 49.2939C54.9528 51.0947 55.6198 52.6954 56.7536 53.8959C57.8875 55.0964 59.4881 55.8301 61.1556 55.8301C61.2889 55.8301 61.3557 55.8301 61.4224 55.8301L61.6224 56.7638C60.8888 56.8305 61.8892 56.8972 61.1556 56.8972ZM61.4224 55.6967L61.3557 55.4966C61.3557 55.4966 61.6891 55.63 61.4224 55.6967ZM74.6282 2.40634L74.4281 2.60644C71.0266 6.34144 67.5584 10.0764 64.2903 13.9448C62.6896 15.8123 61.0889 17.6798 59.6215 19.614C58.0875 21.5482 56.6202 23.5491 55.2196 25.55C52.8852 28.9515 50.6175 32.6865 48.9501 36.6882C47.2827 40.6233 46.2156 44.8919 46.2156 49.2272C46.2156 53.7625 47.883 57.831 50.5509 60.6989C53.2854 63.7002 57.0204 65.5011 61.0889 65.5011C63.0898 65.5011 66.3579 64.634 66.3579 64.634L66.6914 65.7678C66.6914 65.7678 63.2232 66.7016 61.0889 66.7016C56.7536 66.7016 52.6851 64.7674 49.8172 61.566C46.9492 58.4313 45.1484 54.096 45.1484 49.2272C45.1484 44.6918 46.2823 40.3566 48.0164 36.2214C49.7505 32.1529 52.0182 28.2845 54.3526 24.883C55.7532 22.8154 57.2205 20.8145 58.8212 18.8803C60.3552 16.9461 61.9559 15.0119 63.5566 13.1445C66.8915 9.27607 70.293 5.54107 73.7612 1.73938L73.9613 1.5393L74.895 0.538854L75.2285 0.138672V1.73938L74.6282 2.40634ZM91.9693 29.8185C91.5691 31.2858 91.1022 32.7532 90.5019 34.3539C91.5691 35.6878 92.4361 36.8883 93.1031 38.0889C93.9035 35.0208 93.7034 32.2863 91.9693 29.8185ZM91.1022 21.6149C89.7016 19.4139 87.2338 19.6807 84.6994 19.9475C82.4317 20.2143 80.0973 20.4811 77.963 19.2138C79.8305 21.6149 82.0982 22.4819 84.2992 23.349C86.8336 24.3494 89.3681 25.4833 91.5024 27.6176C92.0359 25.0831 91.9693 23.0155 91.1022 21.6149ZM75.8955 15.3454C77.2961 18.0133 80.2307 18.8136 82.2316 18.947C80.831 17.0128 77.963 14.8119 75.8955 15.3454ZM84.4326 28.2178C86.3001 29.8852 88.0342 31.5526 89.7016 33.5535C90.3019 31.9528 90.8354 30.4188 91.1689 28.9515C89.168 26.7505 86.5002 25.55 84.0324 24.6162C82.0982 23.8826 80.164 23.0822 78.4299 21.4148C80.2974 24.4161 82.365 26.3503 84.4326 28.2178ZM83.2987 50.0942C80.9644 54.8963 78.63 59.4984 77.1627 63.3668C81.7647 55.7634 89.6349 47.8932 92.6362 39.4895C91.9693 38.289 91.1689 36.955 90.0351 35.5544C88.1676 40.0898 85.6998 45.1587 83.2987 50.0942ZM88.4344 56.0302C84.566 59.365 78.0964 63.5002 75.8287 68.5024C81.4979 68.1022 86.5002 63.1 88.4344 56.0302ZM92.9697 49.2272C94.2369 46.8261 94.5704 44.0915 93.1698 40.69C90.0351 48.6269 83.1653 55.7634 78.63 62.8332C80.3641 61.0324 82.4317 59.4317 84.4993 57.7643C87.9008 55.0297 91.3023 52.3619 92.9697 49.2272ZM93.7034 39.3561C95.7043 43.558 95.3708 46.9595 93.7701 49.9608C92.7696 51.7616 91.369 53.3623 89.7016 54.963C87.9008 63.7003 81.8981 69.8363 75.0284 69.8363V66.6349C75.9622 63.2334 80.2974 53.8959 80.2974 53.8959L80.8977 52.6954C80.8977 52.6954 86.9004 40.8901 89.3681 34.6207C88.1676 33.22 85.5664 30.6189 85.5664 30.6189L84.6994 29.8185C84.6994 29.8185 80.8977 26.417 79.1636 24.216C78.8968 24.216 78.4299 23.2156 78.4299 23.2156C77.1627 21.4148 75.0951 16.2125 75.0951 16.2125L75.1618 13.8114C81.2311 13.9448 83.3655 18.8803 83.3655 18.8803C83.3655 18.8803 86.8337 18.08 89.7016 18.947C90.502 19.2805 91.2356 19.8808 91.8359 20.8145C92.9697 22.6153 93.0364 25.2165 92.3027 28.4846C94.8372 31.5526 95.0373 35.2876 93.7034 39.3561ZM78.7634 12.7443C77.4962 11.3436 75.0284 8.60911 75.0284 8.60911V7.00838L75.3619 7.40857C76.7625 8.94258 78.0964 10.4099 79.497 11.9439C80.831 13.4779 84.3659 17.5464 85.6998 19.0804L84.7661 19.4806C83.4321 17.9466 80.164 14.2783 78.7634 12.7443ZM97.305 58.0978C95.1707 60.3654 92.2361 61.7661 89.1013 61.7661C87.7674 61.7661 87.8341 61.8328 86.7003 61.4326L86.967 60.2988C88.0342 60.6322 87.8341 60.5655 89.1013 60.5655C91.9693 60.5655 94.6371 59.2983 96.5713 57.2307C98.4388 55.1631 99.6393 52.3619 99.6393 49.1605C99.6393 45.4255 98.6389 41.7572 97.1049 38.2223C95.5709 34.6874 91.5691 29.285 91.5691 29.285L92.3695 28.5513C92.3695 28.5513 96.4379 34.0871 98.0386 37.6887C99.6394 41.357 100.64 45.2254 100.64 49.0938C100.706 52.6954 99.3726 55.8301 97.305 58.0978ZM94.237 54.6296C92.903 56.0302 91.1022 56.8972 89.168 56.8972V55.6967C90.8354 55.6967 92.4361 54.963 93.57 53.7625C94.6371 52.6287 95.3708 51.028 95.3708 49.1605C95.3708 46.0924 94.437 42.891 93.0364 39.823L93.7701 39.2894C95.1707 42.4908 96.3712 45.8256 96.3712 49.0938C96.3045 51.3614 95.5042 53.2289 94.237 54.6296ZM100.44 61.566C97.5051 64.7674 93.5033 66.7016 89.168 66.7016C87.0337 66.7016 83.5655 65.7678 83.5655 65.7678L83.899 64.634C83.899 64.634 87.1671 65.5011 89.168 65.5011C93.2365 65.5011 97.0382 63.7002 99.7061 60.6989C102.374 57.7643 104.041 53.7625 104.041 49.2272C104.041 44.8919 102.974 40.69 101.307 36.6882C99.6393 32.6865 97.3717 28.9515 95.0373 25.55C93.6367 23.4824 92.1693 21.5482 90.6353 19.614C89.1013 17.6798 87.5673 15.8123 85.9666 13.9448C82.6318 10.0764 79.2303 6.34144 75.8287 2.60644L75.0284 1.80608V0.205372L75.3619 0.605554L76.2956 1.606L76.4957 1.80608C79.8972 5.54107 83.3655 9.27607 86.7003 13.2112C88.301 15.0786 89.9017 16.9462 91.4357 18.947C92.9697 20.8812 94.437 22.8821 95.9044 24.9497C98.2387 28.3512 100.573 32.2196 102.241 36.2881C103.975 40.4233 105.108 44.7585 105.108 49.2939C105.108 54.096 103.308 58.4313 100.44 61.566ZM69.1591 54.1627L69.8928 53.2289C76.0289 56.8305 80.9644 53.2289 80.9644 53.2289L81.4312 53.9626C75.9622 58.2312 69.1591 54.1627 69.1591 54.1627ZM75.1618 30.7523V29.3516L75.6954 27.951L75.1618 27.1507V26.1502L76.4957 27.4842L75.1618 30.7523ZM75.1618 30.7523L73.8279 27.4842L75.1618 26.1502V27.1507L74.6282 27.951L75.1618 29.3516V30.7523ZM75.2285 63.6336V61.4993L76.7625 57.7643L75.2285 56.2303V54.8963L77.763 57.4308L75.2285 63.6336ZM75.4953 63.6336L72.9608 57.3641L75.4953 54.8296V56.1636L73.9613 57.6976L75.4953 61.4326V63.6336ZM65.7576 29.8185L65.4241 28.8181C71.7603 28.2845 75.2285 22.0818 75.2285 22.0818V23.6158C71.6936 29.1516 65.7576 29.8185 65.7576 29.8185ZM84.566 29.8185C84.566 29.8185 78.6967 29.0849 75.0951 23.5491V22.0151C75.0951 22.0151 78.4966 28.2178 84.8995 28.7514L84.566 29.8185ZM64.1569 33.5535L65.024 33.0199C65.024 33.0199 64.5571 36.8883 71.7603 35.3543L72.0271 36.088C72.0271 36.088 64.6905 38.0222 64.1569 33.5535ZM86.1 33.5535C85.4997 38.0889 78.2298 36.088 78.2298 36.088L78.4966 35.3543C85.6998 36.8883 85.2329 33.0199 85.2329 33.0199L86.1 33.5535ZM72.9608 45.1587L73.1609 44.2916C73.1609 44.2916 73.8946 45.092 75.2285 44.425L75.4953 45.3588C75.562 45.4255 74.1613 46.0257 72.9608 45.1587ZM75.2285 43.558C75.2285 43.558 74.5615 43.0244 73.4944 43.6914C72.4272 44.3583 71.7603 43.558 71.7603 43.558L72.2272 42.6909C72.2272 42.6909 72.4272 43.3579 73.4944 42.6909C74.5615 42.0239 75.4953 42.5575 75.4953 42.5575L75.2285 43.558ZM75.2285 39.9564L75.4286 40.8901C74.1614 40.7567 73.2943 39.7563 73.2943 39.7563C76.4957 28.1511 65.2907 29.8185 65.2907 29.8185L67.3583 28.9515C77.763 29.0182 74.2947 39.3561 74.2947 39.3561C74.6282 39.7563 75.2285 39.9564 75.2285 39.9564ZM74.8283 45.4255L75.0951 44.4917C76.429 45.1587 77.1627 44.3583 77.1627 44.3583L77.3628 45.2254C76.229 46.0257 74.8283 45.4255 74.8283 45.4255ZM76.8292 43.6247C75.762 42.9577 75.0951 43.4913 75.0951 43.4913L74.8283 42.5575C74.8283 42.5575 75.762 41.9573 76.8292 42.6909C77.8963 43.3579 78.0964 42.6909 78.0964 42.6909L78.5633 43.558C78.5633 43.558 77.8963 44.2916 76.8292 43.6247ZM77.096 39.7563C77.096 39.7563 76.2289 40.7567 74.9617 40.8901L75.1618 39.9564C75.1618 39.9564 75.762 39.823 76.1622 39.3561C76.1622 39.3561 72.694 29.0182 83.0987 28.9515L85.1662 29.8185C85.0995 29.7518 73.8946 28.0844 77.096 39.7563Z" fill="#F5C03D"/>
<path d="M137.796 96.3108V95.9773C138.263 95.9106 138.596 95.7773 138.796 95.4438C138.996 95.177 139.397 94.3766 139.997 93.0427L143.665 84.3721H143.999L148.401 94.3766C148.667 95.0436 148.934 95.4438 149.134 95.6439C149.334 95.7772 149.601 95.9106 150.001 95.9773V96.3108H145.466V95.9773C146 95.9106 146.333 95.8439 146.466 95.7773C146.6 95.7106 146.667 95.5772 146.667 95.3104C146.667 95.2437 146.667 95.0436 146.6 94.8435C146.533 94.6434 146.466 94.3766 146.333 94.1765L145.599 92.4424H140.997C140.53 93.5763 140.264 94.3099 140.197 94.5767C140.13 94.8435 140.064 95.0436 140.064 95.177C140.064 95.4438 140.197 95.7106 140.397 95.7773C140.53 95.8439 140.797 95.9106 141.264 95.9106V96.2441H137.796V96.3108ZM145.399 91.7754L143.332 86.9065L141.331 91.7754H145.399ZM121.722 96.044C122.389 95.9773 122.789 95.8439 122.989 95.5771C123.189 95.3104 123.256 94.8435 123.256 93.9764V87.1066L123.056 86.8399C122.856 86.5731 122.656 86.373 122.456 86.3063C122.322 86.2396 122.055 86.1729 121.722 86.1729V85.9061H124.39L130.393 93.4429V88.1738C130.393 87.3067 130.259 86.7732 129.992 86.5064C129.792 86.3063 129.459 86.2396 128.858 86.1729V85.9061H132.527V86.1729C131.927 86.2396 131.526 86.373 131.326 86.6398C131.126 86.8399 131.059 87.3734 131.059 88.2405V96.5109H130.793L123.856 87.907V93.9764C123.856 94.8435 123.99 95.3771 124.256 95.6439C124.39 95.8439 124.79 95.9106 125.324 95.9773V96.2441H121.655V96.044H121.722ZM105.715 96.3108V96.044C106.115 95.9773 106.448 95.8439 106.648 95.5771C106.848 95.3104 107.182 94.6434 107.716 93.4429L110.984 85.7727H111.317L115.186 94.6434C115.452 95.2437 115.653 95.5772 115.786 95.7106C115.919 95.8439 116.186 95.9773 116.586 95.9773V96.2441H112.584V95.9773C113.051 95.9106 113.318 95.9107 113.452 95.844C113.585 95.7773 113.652 95.6439 113.652 95.4438C113.652 95.3771 113.652 95.2437 113.585 95.0436C113.518 94.8435 113.451 94.6434 113.385 94.4433L112.718 92.9093H108.649C108.249 93.9097 107.982 94.5767 107.916 94.7768C107.849 94.9769 107.782 95.177 107.782 95.3104C107.782 95.5772 107.916 95.7773 108.116 95.844C108.249 95.9107 108.516 95.9773 108.849 95.9773V96.2441H105.715V96.3108ZM112.518 92.309L110.717 87.9737L108.916 92.309H112.518ZM87.0395 96.044C87.7065 95.9773 88.1067 95.8439 88.3067 95.5771C88.5068 95.3771 88.5736 94.8435 88.5736 93.9764V87.6402C88.5736 87.1066 88.5068 86.7065 88.3067 86.5064C88.1067 86.3063 87.7065 86.2396 87.1062 86.1729V85.9061H90.1743L93.7759 93.7763L97.2442 85.9061H100.379V86.1729C99.7786 86.2396 99.4452 86.3063 99.2451 86.5064C99.045 86.7065 98.9783 87.0399 98.9783 87.5735V94.51C98.9783 95.1103 99.045 95.4438 99.2451 95.5771C99.4452 95.7105 99.7786 95.8439 100.379 95.9106V96.1774H95.9769V95.9106C96.5772 95.8439 96.9773 95.7772 97.1774 95.5771C97.3775 95.3771 97.3775 94.9769 97.3775 94.3099V87.3067L93.3757 96.2441H93.1756L89.2405 87.7069V93.9764C89.2405 94.8435 89.3739 95.3771 89.6407 95.6439C89.7741 95.8439 90.1742 95.9106 90.7078 95.9773V96.2441H87.0395V96.044ZM71.0989 96.3108V96.044C71.4991 95.9773 71.8326 95.8439 72.0327 95.5771C72.2328 95.3104 72.5663 94.6434 73.0999 93.4429L76.368 85.7727H76.7015L80.5699 94.6434C80.8367 95.2437 81.0368 95.5772 81.1702 95.7106C81.3036 95.8439 81.5704 95.9773 81.9705 95.9773V96.2441H77.9687V95.9773C78.4356 95.9106 78.7024 95.9107 78.8358 95.844C78.9692 95.7773 79.0359 95.6439 79.0359 95.4438C79.0359 95.3771 79.0359 95.2437 78.9692 95.0436C78.9025 94.8435 78.8358 94.6434 78.7691 94.4433L78.1021 92.9093H74.0336C73.6334 93.9097 73.3666 94.5767 73.2999 94.7768C73.2332 94.9769 73.1665 95.177 73.1665 95.3104C73.1665 95.5772 73.2999 95.7773 73.5 95.844C73.6334 95.9107 73.9002 95.9773 74.2337 95.9773V96.2441H71.0989V96.3108ZM77.902 92.309L76.1012 87.9737L74.3004 92.309H77.902ZM55.1584 96.044C55.7586 95.9773 56.1588 95.8439 56.2922 95.7106C56.4256 95.5772 56.4923 95.1103 56.4923 94.4433V87.6402C56.4923 87.1066 56.4256 86.7065 56.2255 86.5731C56.0254 86.373 55.692 86.3063 55.0917 86.2396V85.9728H59.427V86.2396C58.8267 86.3063 58.4932 86.373 58.2931 86.5731C58.093 86.7732 58.0263 87.1066 58.0263 87.6402V90.7083H62.7618V87.6402C62.7618 87.1066 62.6951 86.7065 62.495 86.5731C62.2949 86.373 61.9614 86.3063 61.3612 86.2396V85.9728H65.6965V86.2396C65.0962 86.3063 64.7627 86.373 64.5627 86.5731C64.3626 86.7732 64.2958 87.1066 64.2958 87.6402V94.5767C64.2958 95.177 64.3626 95.5105 64.5627 95.6439C64.7627 95.7772 65.0962 95.9106 65.6965 95.9773V96.2441H61.3612V95.9773C61.9614 95.9106 62.3616 95.7772 62.495 95.6439C62.6284 95.5105 62.6951 95.0436 62.6951 94.3766V91.3085H57.9596V94.51C57.9596 95.1103 58.0264 95.4438 58.2264 95.6439C58.4265 95.7772 58.76 95.9106 59.3603 95.9773V96.2441H55.025V96.044H55.1584ZM45.554 85.7727C46.0876 85.7727 46.6879 85.8394 47.2881 86.0395C47.8884 86.2396 48.2219 86.3063 48.2886 86.3063C48.422 86.3063 48.5554 86.2396 48.6887 86.1729C48.8221 86.1062 48.8889 85.9728 48.9556 85.7727H49.289L49.4224 89.3076H49.089C48.8889 88.6407 48.6221 88.0404 48.2886 87.6402C47.6216 86.8399 46.7545 86.4397 45.6874 86.4397C44.6202 86.4397 43.6865 86.8399 43.0195 87.7069C42.3525 88.574 41.9524 89.7745 41.9524 91.3085C41.9524 92.7092 42.2858 93.843 43.0195 94.6434C43.7532 95.4438 44.6869 95.9106 45.8208 95.9106C46.6212 95.9106 47.3548 95.7105 48.0885 95.3104C48.4887 95.1103 48.8888 94.7768 49.3557 94.3099L49.6225 94.5767C49.289 95.0436 48.8221 95.3771 48.3553 95.7106C47.4882 96.2441 46.5545 96.5776 45.4873 96.5776C43.8199 96.5776 42.4859 96.044 41.4855 94.9769C40.5517 93.9764 40.0849 92.7092 40.0849 91.2418C40.0849 89.7078 40.5518 88.4406 41.5522 87.3734C42.5527 86.3063 43.8866 85.7727 45.554 85.7727ZM16.2073 96.3108V96.044C16.6075 95.9773 16.941 95.8439 17.1411 95.5771C17.3412 95.3104 17.6747 94.6434 18.2083 93.4429L21.4764 85.7727H21.8099L25.6783 94.6434C25.9451 95.2437 26.1452 95.5772 26.2786 95.7106C26.412 95.8439 26.6788 95.9773 27.079 95.9773V96.2441H23.0771V95.9773C23.544 95.9106 23.8108 95.9107 23.9442 95.844C24.0776 95.7773 24.1443 95.6439 24.1443 95.4438C24.1443 95.3771 24.1443 95.2437 24.0776 95.0436C24.0109 94.8435 23.9442 94.6434 23.8775 94.4433L23.2105 92.9093H19.142C18.7418 93.9097 18.4751 94.5767 18.4084 94.7768C18.3417 94.9769 18.275 95.177 18.275 95.3104C18.275 95.5772 18.4084 95.7773 18.6084 95.844C18.7418 95.9107 19.0086 95.9773 19.3421 95.9773V96.2441H16.2073V96.3108ZM22.9437 92.309L21.1429 87.9737L19.3421 92.309H22.9437ZM0.066701 95.9773C0.73367 95.9106 1.13385 95.7772 1.33394 95.6439C1.53403 95.5105 1.60072 95.0436 1.60072 94.3766V86.5064C1.60072 85.9061 1.53403 85.4392 1.33394 85.3058C1.13385 85.1057 0.73367 84.9723 0.066701 84.9723V84.6389H5.06897V84.9723C4.402 85.039 4.00182 85.1057 3.73503 85.3058C3.53494 85.5059 3.40155 85.8394 3.40155 86.4397V94.9769C3.40155 95.177 3.40153 95.3104 3.46823 95.4438C3.53493 95.5772 3.66833 95.6439 3.93512 95.6439C4.06851 95.6439 4.20191 95.6439 4.3353 95.7106C4.4687 95.7106 4.73547 95.7106 5.13565 95.7106C6.73638 95.7106 7.80354 95.5772 8.33712 95.3104C8.87069 95.0436 9.40426 94.3766 9.93784 93.3095H10.4047L9.53765 96.3775H0V95.9773H0.066701Z" fill="white"/>
<path d="M108.33 114.205V114.36C108.135 114.355 107.989 114.37 107.891 114.405C107.794 114.441 107.745 114.517 107.745 114.634C107.745 114.67 107.753 114.715 107.769 114.769C107.785 114.821 107.822 114.891 107.879 114.978L109.11 116.84L110.304 114.949C110.352 114.87 110.384 114.805 110.397 114.753C110.413 114.701 110.422 114.663 110.422 114.638C110.422 114.518 110.358 114.439 110.231 114.401C110.155 114.376 110.025 114.363 109.841 114.36V114.205H111.66V114.36C111.492 114.368 111.342 114.419 111.209 114.511C111.004 114.656 110.772 114.925 110.515 115.318L109.284 117.208V118.84C109.284 119.165 109.336 119.368 109.439 119.45C109.544 119.529 109.778 119.578 110.141 119.597V119.749H107.599V119.597C107.975 119.576 108.208 119.52 108.297 119.43C108.389 119.337 108.435 119.108 108.435 118.742V117.286L107.347 115.678C106.97 115.124 106.706 114.769 106.555 114.614C106.403 114.456 106.219 114.371 106.002 114.36V114.205H108.33Z" fill="white"/>
<path d="M99.5513 116.881C100.15 116.859 100.578 116.796 100.835 116.692C101.276 116.51 101.497 116.166 101.497 115.661C101.497 115.176 101.299 114.844 100.904 114.667C100.693 114.571 100.412 114.524 100.063 114.524C99.8275 114.524 99.6826 114.541 99.6284 114.577C99.577 114.61 99.5513 114.689 99.5513 114.814V116.881ZM97.9916 119.597C98.3111 119.567 98.5101 119.505 98.5887 119.409C98.6672 119.314 98.7065 119.091 98.7065 118.742V115.113C98.7065 114.818 98.6618 114.626 98.5724 114.536C98.4858 114.443 98.2921 114.385 97.9916 114.36V114.205H100.295C100.774 114.205 101.173 114.266 101.493 114.389C102.099 114.621 102.403 115.047 102.403 115.669C102.403 116.087 102.267 116.407 101.996 116.631C101.728 116.855 101.363 117.002 100.9 117.073L102.614 119.196C102.719 119.327 102.825 119.423 102.931 119.483C103.036 119.543 103.172 119.581 103.337 119.597V119.749H101.996L100.014 117.171L99.5513 117.191V118.84C99.5513 119.151 99.5973 119.349 99.6894 119.434C99.7841 119.515 99.9886 119.57 100.303 119.597V119.749H97.9916V119.597Z" fill="white"/>
<path d="M92.7711 117.597L91.8084 115.289L90.858 117.597H92.7711ZM89.1805 119.749V119.597C89.3944 119.573 89.5542 119.491 89.6598 119.352C89.7681 119.213 89.9522 118.835 90.2122 118.218L91.9465 114.106H92.109L94.1805 118.857C94.3186 119.173 94.4282 119.37 94.5095 119.446C94.5934 119.52 94.7329 119.57 94.9278 119.597V119.749H92.8117V119.597C93.0554 119.576 93.2124 119.55 93.2828 119.52C93.3532 119.487 93.3884 119.409 93.3884 119.286C93.3884 119.245 93.3749 119.173 93.3478 119.07C93.3207 118.966 93.2828 118.857 93.2341 118.742L92.8888 117.936H90.7118C90.4951 118.484 90.3652 118.82 90.3218 118.943C90.2812 119.063 90.2609 119.158 90.2609 119.229C90.2609 119.371 90.3178 119.469 90.4315 119.524C90.5019 119.556 90.6346 119.581 90.8296 119.597V119.749H89.1805Z" fill="white"/>
<path d="M82.6927 114.205V114.36C82.3732 114.382 82.166 114.436 82.0712 114.524C81.9765 114.608 81.9291 114.805 81.9291 115.113V117.793C81.9291 118.232 81.9887 118.574 82.1078 118.82C82.3298 119.267 82.7509 119.491 83.371 119.491C84.0506 119.491 84.5069 119.262 84.7398 118.804C84.8698 118.547 84.9347 118.152 84.9347 117.617V115.436C84.9347 114.981 84.8806 114.696 84.7723 114.581C84.664 114.464 84.4582 114.39 84.1549 114.36V114.205H86.0801V114.36C85.7579 114.396 85.5467 114.475 85.4465 114.597C85.349 114.717 85.3003 114.997 85.3003 115.436V117.617C85.3003 118.195 85.2123 118.647 85.0363 118.971C84.7114 119.569 84.094 119.867 83.1841 119.867C82.2852 119.867 81.6732 119.573 81.3483 118.984C81.1723 118.667 81.0842 118.25 81.0842 117.732V115.113C81.0842 114.807 81.0369 114.612 80.9421 114.528C80.85 114.441 80.6469 114.385 80.3328 114.36V114.205H82.6927Z" fill="white"/>
<path d="M72.4681 114.205H77.1675L77.2122 115.628H77.0131C76.9157 115.181 76.7911 114.891 76.6395 114.757C76.4905 114.621 76.1751 114.552 75.6931 114.552H75.23V118.84C75.23 119.165 75.2801 119.367 75.3803 119.446C75.4805 119.522 75.6999 119.573 76.0383 119.597V119.749H73.6135V119.597C73.9655 119.57 74.1848 119.511 74.2715 119.421C74.3581 119.331 74.4015 119.105 74.4015 118.742V114.552H73.9384C73.4781 114.552 73.164 114.619 72.9961 114.753C72.8309 114.887 72.7064 115.178 72.6224 115.628H72.4194L72.4681 114.205Z" fill="white"/>
<path d="M67.0079 114.106C67.3085 114.106 67.6172 114.151 67.934 114.241C68.2508 114.331 68.4282 114.376 68.4661 114.376C68.5446 114.376 68.6191 114.355 68.6895 114.311C68.7599 114.267 68.8086 114.199 68.8357 114.106H69.0103L69.0875 115.989H68.8966C68.7856 115.615 68.6407 115.313 68.462 115.084C68.1208 114.653 67.6619 114.438 67.0851 114.438C66.5029 114.438 66.0263 114.67 65.6554 115.133C65.2871 115.597 65.103 116.235 65.103 117.048C65.103 117.796 65.2966 118.393 65.6838 118.84C66.0737 119.285 66.5665 119.507 67.1623 119.507C67.5928 119.507 67.9895 119.404 68.3523 119.196C68.5608 119.079 68.7896 118.902 69.0388 118.664L69.1931 118.82C69.009 119.055 68.7802 119.26 68.5067 119.438C68.0409 119.738 67.5359 119.888 66.9917 119.888C66.0981 119.888 65.3887 119.6 64.8633 119.024C64.3786 118.493 64.1363 117.828 64.1363 117.032C64.1363 116.216 64.3922 115.532 64.904 114.978C65.4428 114.397 66.1441 114.106 67.0079 114.106Z" fill="white"/>
<path d="M55.1829 119.597C55.5267 119.562 55.7474 119.484 55.8449 119.364C55.9424 119.241 55.9911 118.959 55.9911 118.517V114.822L55.8774 114.687C55.7556 114.543 55.6513 114.454 55.5647 114.421C55.4807 114.386 55.3534 114.366 55.1829 114.36V114.205H56.6085L59.8132 118.239V115.436C59.8132 114.975 59.7455 114.675 59.6101 114.536C59.5208 114.446 59.3231 114.387 59.0171 114.36V114.205H60.9708V114.36C60.654 114.393 60.4428 114.471 60.3372 114.593C60.2315 114.716 60.1787 114.997 60.1787 115.436V119.847H60.0366L56.3567 115.252V118.517C56.3567 118.975 56.423 119.274 56.5557 119.413C56.6424 119.503 56.836 119.565 57.1365 119.597V119.749H55.1829V119.597Z" fill="white"/>
<path d="M49.9623 117.597L48.9997 115.289L48.0493 117.597H49.9623ZM46.3718 119.749V119.597C46.5857 119.573 46.7455 119.491 46.8511 119.352C46.9594 119.213 47.1435 118.835 47.4034 118.218L49.1378 114.106H49.3003L51.3717 118.857C51.5098 119.173 51.6195 119.37 51.7007 119.446C51.7847 119.52 51.9241 119.57 52.1191 119.597V119.749H50.0029V119.597C50.2466 119.576 50.4037 119.55 50.4741 119.52C50.5445 119.487 50.5797 119.409 50.5797 119.286C50.5797 119.245 50.5662 119.173 50.5391 119.07C50.512 118.966 50.4741 118.857 50.4254 118.742L50.0801 117.936H47.903C47.6864 118.484 47.5564 118.82 47.5131 118.943C47.4725 119.063 47.4522 119.158 47.4522 119.229C47.4522 119.371 47.5091 119.469 47.6228 119.524C47.6932 119.556 47.8259 119.581 48.0208 119.597V119.749H46.3718Z" fill="white"/>
<path d="M39.3276 118.063C39.4684 118.439 39.6336 118.739 39.8231 118.963C40.1535 119.353 40.5637 119.548 41.0538 119.548C41.3192 119.548 41.548 119.464 41.7403 119.295C41.9352 119.125 42.0327 118.889 42.0327 118.587C42.0327 118.314 41.9352 118.077 41.7403 117.875C41.613 117.747 41.3449 117.554 40.9361 117.298L40.2253 116.852C40.0113 116.715 39.8407 116.578 39.7135 116.439C39.4779 116.174 39.3601 115.882 39.3601 115.563C39.3601 115.14 39.4996 114.788 39.7785 114.507C40.0574 114.226 40.427 114.086 40.8873 114.086C41.0769 114.086 41.3043 114.134 41.5697 114.229C41.8378 114.322 41.9907 114.368 42.0287 114.368C42.1315 114.368 42.202 114.344 42.2399 114.295C42.2805 114.246 42.3116 114.176 42.3333 114.086H42.5039L42.6866 115.87H42.4876C42.3522 115.333 42.1343 114.957 41.8337 114.745C41.5358 114.532 41.2407 114.426 40.9482 114.426C40.7208 114.426 40.5218 114.494 40.3512 114.63C40.1833 114.764 40.0993 114.951 40.0993 115.191C40.0993 115.406 40.1643 115.59 40.2943 115.743C40.4243 115.899 40.626 116.061 40.8995 116.23L41.6306 116.684C42.0882 116.968 42.4105 117.228 42.5973 117.466C42.7814 117.706 42.8735 117.989 42.8735 118.317C42.8735 118.756 42.7083 119.123 42.378 119.417C42.0503 119.712 41.6306 119.859 41.1188 119.859C40.8616 119.859 40.5922 119.81 40.3106 119.712C40.0316 119.614 39.8719 119.565 39.8313 119.565C39.7338 119.565 39.6674 119.595 39.6322 119.655C39.5998 119.715 39.5781 119.779 39.5673 119.847H39.3845L39.1367 118.063H39.3276Z" fill="white"/>
<path d="M77.0514 104.914C76.1844 105.248 75.5174 105.915 75.1839 106.782C74.8504 105.915 74.1835 105.248 73.3164 104.914C74.1835 104.581 74.8504 103.914 75.1839 103.047C75.4507 103.914 76.1844 104.581 77.0514 104.914Z" fill="#F5C03D"/>
<path d="M84.055 104.382H149.551C149.618 104.382 149.618 104.449 149.618 104.449V104.715C149.618 104.782 149.551 104.782 149.551 104.782H84.055C83.9883 104.782 83.9883 104.715 83.9883 104.715V104.449C83.9883 104.449 83.9883 104.382 84.055 104.382Z" fill="#F5C03D"/>
<path d="M0.683889 104.382H66.1803C66.247 104.382 66.247 104.449 66.247 104.449V104.715C66.247 104.782 66.1803 104.782 66.1803 104.782H0.683889C0.617192 104.782 0.617188 104.715 0.617188 104.715V104.449C0.617188 104.449 0.617192 104.382 0.683889 104.382Z" fill="#F5C03D"/>
</svg>
