<svg width="158" height="37" viewBox="0 0 158 37" fill="none" xmlns="http://www.w3.org/2000/svg">
<g clip-path="url(#clip0_71_205)">
<path d="M18.0852 25.9053C18.0852 25.9053 11.8771 25.0478 10.8481 17.2962C10.8481 17.2962 11.2597 16.3359 11.3283 16.919C11.7399 19.903 13.2833 24.156 18.2224 25.3908L18.0852 25.9053ZM15.7529 28.0661L15.1698 27.6546C15.1698 27.6546 16.4046 26.3169 15.8901 24.8763L16.6103 25.2879C16.6103 25.2536 16.7818 26.8657 15.7529 28.0661ZM21.275 27.6546L20.6919 27.8603C19.663 26.6599 19.8345 25.2536 19.8345 25.2536L20.5547 24.842C20.0403 26.3169 21.275 27.6546 21.275 27.6546ZM18.0852 25.9053V25.3908C23.0243 24.156 24.4305 19.903 24.8421 16.919C24.9107 16.3359 25.3223 17.2962 25.3223 17.2962C24.2933 25.0478 18.0852 25.9053 18.0852 25.9053ZM10.5737 18.2566C9.99064 18.9769 9.54474 19.6629 9.23605 20.2803C10.8138 24.6019 14.8611 28.6492 17.1934 32.5593C16.4389 30.6043 15.2384 28.2033 14.0379 25.7338C12.7689 23.23 11.4998 20.6233 10.5737 18.2566ZM13.4205 14.518C14.4838 13.5577 15.5471 12.563 16.5075 11.0195C15.6157 11.877 14.621 12.2886 13.6263 12.6659C12.3573 13.1804 10.9853 13.7977 9.95632 14.8953C10.1278 15.6156 10.4022 16.4045 10.7109 17.2619C11.5341 16.233 12.4602 15.3755 13.4205 14.518ZM16.7132 9.92195C15.65 10.5393 14.4152 10.4364 13.249 10.2992C11.9457 10.162 10.6766 10.0248 9.95632 11.1567C9.51044 11.8427 9.47615 12.9403 9.75054 14.2436C10.8481 13.1804 12.1515 12.563 13.4548 12.0485C14.621 11.6026 15.7529 11.1567 16.7132 9.92195ZM17.8108 7.8983C16.7475 7.62391 15.2727 8.75579 14.5524 9.75046C15.5814 9.68186 17.0562 9.27026 17.8108 7.8983ZM8.99596 19.5943C9.33895 18.9769 9.78484 18.3252 10.3336 17.6735C10.0249 16.8504 9.75054 16.0615 9.57904 15.3412C8.65297 16.6103 8.55007 18.0165 8.99596 19.5943ZM9.03027 25.3222C9.92204 26.9343 11.637 28.3405 13.3862 29.7125C14.4495 30.5357 15.5128 31.3932 16.4046 32.3192C14.0722 28.7178 10.5394 25.0135 8.92735 20.9319C8.20707 22.6812 8.34429 24.0875 9.03027 25.3222ZM17.8451 35.2346C16.6446 32.6622 13.3519 30.5357 11.3626 28.8207C12.3573 32.4564 14.9297 35.0288 17.8451 35.2346ZM15.5471 27.7232C15.5471 27.7232 17.7765 32.4907 18.2567 34.2743V35.9206C14.7582 35.9206 11.637 32.7651 10.7109 28.2719C9.85343 27.4831 9.13316 26.6256 8.61867 25.6995C7.7955 24.1561 7.62399 22.4068 8.65297 20.246C7.96698 18.188 8.0356 16.233 9.37326 14.6552C8.99597 13.0089 9.03025 11.6369 9.61333 10.7108C9.92203 10.2306 10.2993 9.92195 10.7109 9.75046C12.1858 9.30457 13.9693 9.71616 13.9693 9.71616C13.9693 9.71616 15.1012 7.17803 18.1881 7.10943L18.2224 8.3442C18.2224 8.3442 17.1248 10.9852 16.5075 11.9456C16.5075 11.9456 16.2673 12.4944 16.1302 12.4601C15.2727 13.5919 13.2833 15.3412 13.2833 15.3412L12.8375 15.7528C12.8375 15.7528 11.4998 17.0562 10.8824 17.8107C12.1515 21.0005 15.2384 27.1058 15.2384 27.1058L15.5471 27.7232ZM10.8138 31.7704C9.20175 31.7704 7.69259 31.0502 6.59502 29.884C5.53175 28.7178 4.84578 27.1401 4.84578 25.3222C4.84578 23.2986 5.39455 21.3092 6.18343 19.4571C6.97231 17.6049 8.03558 16.3702 9.09885 14.861C9.20175 14.7238 9.30465 14.5523 9.40755 14.4151L9.68194 14.9982C9.61334 15.0668 9.57905 15.1354 9.54475 15.204C8.51578 16.7132 7.48679 17.9136 6.69792 19.6972C5.90904 21.4807 5.39456 23.4015 5.39456 25.3222C5.39456 26.9686 6.01195 28.4091 6.97233 29.4724C7.967 30.5357 9.33894 31.1874 10.8138 31.1874C11.4655 31.1874 11.4655 31.2217 12.0143 31.0502L12.1515 31.6332C11.5341 31.8047 11.4998 31.7704 10.8138 31.7704ZM16.1302 6.56064C15.4442 7.34952 14.7239 8.1384 14.0379 8.92727C13.7292 9.27026 13.4205 9.64756 13.1118 9.99055L12.4259 9.95625C12.8374 9.47606 13.249 8.99588 13.6606 8.51569C14.3466 7.72681 15.0326 6.93794 15.7529 6.14906C16.4389 5.36018 17.1591 4.5713 17.8794 3.81672L18.0509 3.61092V4.43411C18.0509 4.43411 16.7475 5.84036 16.1302 6.56064ZM10.8138 29.2666C9.81913 29.2666 8.89306 28.8207 8.20708 28.1004C7.5554 27.4145 7.10951 26.4198 7.10951 25.3222C7.10951 23.6416 7.82979 21.8923 8.55007 20.2803L9.03027 20.6576C8.34429 22.201 7.62399 23.7445 7.62399 25.3565C7.62399 26.2826 7.96699 27.1058 8.55007 27.7232C9.13316 28.3405 9.95632 28.7178 10.8138 28.7178C10.8824 28.7178 10.9167 28.7178 10.951 28.7178L11.0539 29.198C10.6766 29.2323 11.1911 29.2666 10.8138 29.2666ZM10.951 28.6492L10.9167 28.5463C10.9167 28.5463 11.0882 28.6149 10.951 28.6492ZM17.7422 1.24429L17.6393 1.34719C15.8901 3.26794 14.1065 5.18869 12.4259 7.17803C11.6027 8.1384 10.7795 9.09878 10.0249 10.0934C9.23605 11.0881 8.48148 12.1171 7.7612 13.1461C6.56073 14.8953 5.39456 16.8161 4.53708 18.874C3.6796 20.8976 3.13083 23.0928 3.13083 25.3222C3.13083 27.6546 3.9883 29.7468 5.36027 31.2217C6.76653 32.7651 8.68727 33.6912 10.7795 33.6912C11.8085 33.6912 13.4891 33.2453 13.4891 33.2453L13.6606 33.8284C13.6606 33.8284 11.8771 34.3086 10.7795 34.3086C8.55007 34.3086 6.45782 33.3139 4.98296 31.6675C3.50811 30.0555 2.58203 27.8261 2.58203 25.3222C2.58203 22.9899 3.16513 20.7604 4.05691 18.6339C4.94868 16.5417 6.11485 14.5523 7.31532 12.8031C8.0356 11.7398 8.79016 10.7108 9.61333 9.71616C10.4022 8.72149 11.2254 7.72681 12.0486 6.76644C13.7635 4.77709 15.5128 2.85635 17.2963 0.9013L17.3992 0.798407L17.8794 0.283921L18.0509 0.078125V0.9013L17.7422 1.24429ZM26.66 15.3412C26.4542 16.0958 26.2141 16.8504 25.9054 17.6735C26.4542 18.3595 26.9001 18.9769 27.243 19.5943C27.6546 18.0165 27.5517 16.6103 26.66 15.3412ZM26.2141 11.1224C25.4938 9.99055 24.2247 10.1277 22.9214 10.2649C21.7552 10.4021 20.5547 10.5393 19.4572 9.88765C20.4175 11.1224 21.5837 11.5683 22.7156 12.0142C24.0189 12.5287 25.3223 13.1118 26.4199 14.2093C26.6943 12.906 26.66 11.8427 26.2141 11.1224ZM18.3939 7.8983C19.1142 9.27026 20.6233 9.68186 21.6523 9.75046C20.932 8.75579 19.4572 7.62391 18.3939 7.8983ZM22.7842 14.518C23.7445 15.3755 24.6363 16.233 25.4938 17.2619C25.8025 16.4388 26.0769 15.6499 26.2484 14.8953C25.2194 13.7634 23.8475 13.1461 22.5784 12.6659C21.5837 12.2886 20.589 11.877 19.6973 11.0195C20.6576 12.563 21.7209 13.5577 22.7842 14.518ZM22.2011 25.7681C21.0006 28.2376 19.8001 30.6043 19.0456 32.5936C21.4122 28.6835 25.4595 24.6362 27.003 20.3146C26.66 19.6972 26.2484 19.0112 25.6653 18.2909C24.7049 20.6233 23.4359 23.23 22.2011 25.7681ZM24.8421 28.8207C22.8528 30.5357 19.5258 32.6622 18.3596 35.2346C21.275 35.0288 23.8474 32.4564 24.8421 28.8207ZM27.1744 25.3222C27.8261 24.0875 27.9976 22.6812 27.2773 20.9319C25.6653 25.0135 22.1325 28.6835 19.8002 32.3192C20.6919 31.3932 21.7552 30.57 22.8185 29.7125C24.5677 28.3062 26.317 26.9343 27.1744 25.3222ZM27.5517 20.246C28.5807 22.4068 28.4092 24.1561 27.586 25.6995C27.0716 26.6256 26.3513 27.4488 25.4938 28.2719C24.5677 32.7651 21.4808 35.9206 17.948 35.9206V34.2743C18.4282 32.525 20.6576 27.7232 20.6576 27.7232L20.9663 27.1058C20.9663 27.1058 24.0532 21.0348 25.3223 17.8107C24.7049 17.0905 23.3673 15.7528 23.3673 15.7528L22.9214 15.3412C22.9214 15.3412 20.9663 13.5919 20.0745 12.4601C19.9373 12.4601 19.6973 11.9456 19.6973 11.9456C19.0456 11.0195 17.9823 8.3442 17.9823 8.3442L18.0166 7.10943C21.1378 7.17803 22.2354 9.71616 22.2354 9.71616C22.2354 9.71616 24.0189 9.30457 25.4938 9.75046C25.9054 9.92195 26.2827 10.2306 26.5914 10.7108C27.1744 11.6369 27.2087 12.9746 26.8315 14.6552C28.1348 16.233 28.2377 18.1537 27.5517 20.246ZM19.8688 6.56064C19.2171 5.84036 17.948 4.43411 17.948 4.43411V3.61092L18.1195 3.81672C18.8398 4.6056 19.5258 5.36018 20.246 6.14906C20.932 6.93794 22.7499 9.03017 23.4359 9.81905L22.9557 10.0248C22.2697 9.23597 20.589 7.34952 19.8688 6.56064ZM29.4039 29.884C28.3063 31.0502 26.7972 31.7704 25.1851 31.7704C24.4991 31.7704 24.5334 31.8047 23.9503 31.5989L24.0875 31.0159C24.6363 31.1874 24.5334 31.1531 25.1851 31.1531C26.66 31.1531 28.0319 30.5014 29.0266 29.4381C29.987 28.3748 30.6044 26.9343 30.6044 25.2879C30.6044 23.3672 30.0899 21.4807 29.301 19.6629C28.5121 17.845 26.4542 15.0668 26.4542 15.0668L26.8658 14.6895C26.8658 14.6895 28.958 17.5363 29.7812 19.3885C30.6044 21.2749 31.1188 23.2643 31.1188 25.2536C31.1531 27.1058 30.4672 28.7178 29.4039 29.884ZM27.8261 28.1004C27.1402 28.8207 26.2141 29.2666 25.2194 29.2666V28.6492C26.0769 28.6492 26.9001 28.2719 27.4831 27.6546C28.0319 27.0715 28.4092 26.2483 28.4092 25.2879C28.4092 23.7102 27.929 22.0638 27.2088 20.4861L27.586 20.2117C28.3063 21.858 28.9237 23.573 28.9237 25.2536C28.8894 26.4198 28.4778 27.3802 27.8261 28.1004ZM31.0159 31.6675C29.5068 33.3139 27.4488 34.3086 25.2194 34.3086C24.1218 34.3086 22.3383 33.8284 22.3383 33.8284L22.5098 33.2453C22.5098 33.2453 24.1904 33.6912 25.2194 33.6912C27.3116 33.6912 29.2667 32.7651 30.6387 31.2217C32.0106 29.7125 32.8681 27.6546 32.8681 25.3222C32.8681 23.0928 32.3193 20.9319 31.4618 18.874C30.6044 16.8161 29.4382 14.8953 28.2377 13.1461C27.5174 12.0828 26.7629 11.0881 25.974 10.0934C25.1851 9.09878 24.3962 8.1384 23.573 7.17803C21.8581 5.18869 20.1088 3.26794 18.3596 1.34719L17.948 0.935601V0.112426L18.1195 0.318222L18.5997 0.832708L18.7026 0.935601C20.4518 2.85635 22.2354 4.7771 23.9503 6.80074C24.7735 7.76111 25.5967 8.72149 26.3856 9.75046C27.1745 10.7451 27.929 11.7741 28.6836 12.8374C29.8841 14.5866 31.0845 16.576 31.942 18.6682C32.8338 20.7948 33.4169 23.0242 33.4169 25.3565C33.4169 27.8261 32.4908 30.0555 31.0159 31.6675ZM14.9297 27.8603L15.307 27.3802C18.4625 29.2323 21.0006 27.3802 21.0006 27.3802L21.2407 27.7575C18.4282 29.9526 14.9297 27.8603 14.9297 27.8603ZM18.0166 15.8214V15.1011L18.291 14.3808L18.0166 13.9692V13.4548L18.7026 14.1407L18.0166 15.8214ZM18.0166 15.8214L17.3306 14.1407L18.0166 13.4548V13.9692L17.7422 14.3808L18.0166 15.1011V15.8214ZM18.0509 32.7308V31.6332L18.8398 29.7125L18.0509 28.9236V28.2376L19.3543 29.541L18.0509 32.7308ZM18.1881 32.7308L16.8847 29.5067L18.1881 28.2033V28.8893L17.3992 29.6782L18.1881 31.5989V32.7308ZM13.1804 15.3412L13.0089 14.8267C16.2674 14.5523 18.0509 11.3625 18.0509 11.3625V12.1514C16.2331 14.9982 13.1804 15.3412 13.1804 15.3412ZM22.8528 15.3412C22.8528 15.3412 19.8345 14.9639 17.9823 12.1171V11.3282C17.9823 11.3282 19.7316 14.518 23.0243 14.7924L22.8528 15.3412ZM12.3573 17.2619L12.8032 16.9875C12.8032 16.9875 12.5631 18.9769 16.2674 18.188L16.4046 18.5653C16.4046 18.5653 12.6316 19.56 12.3573 17.2619ZM23.6417 17.2619C23.333 19.5943 19.5944 18.5653 19.5944 18.5653L19.7316 18.188C23.4358 18.9769 23.1958 16.9875 23.1958 16.9875L23.6417 17.2619ZM16.8847 23.23L16.9876 22.7841C16.9876 22.7841 17.3649 23.1957 18.0509 22.8527L18.1881 23.3329C18.2224 23.3672 17.5021 23.6759 16.8847 23.23ZM18.0509 22.4068C18.0509 22.4068 17.7079 22.1324 17.1591 22.4754C16.6103 22.8184 16.2674 22.4068 16.2674 22.4068L16.5075 21.9609C16.5075 21.9609 16.6103 22.3039 17.1591 21.9609C17.7079 21.6179 18.1881 21.8923 18.1881 21.8923L18.0509 22.4068ZM18.0509 20.5547L18.1538 21.0348C17.5021 20.9662 17.0562 20.4518 17.0562 20.4518C18.7026 14.4837 12.9403 15.3412 12.9403 15.3412L14.0036 14.8953C19.3543 14.9296 17.5707 20.246 17.5707 20.246C17.7422 20.4518 18.0509 20.5547 18.0509 20.5547ZM17.8451 23.3672L17.9823 22.887C18.6683 23.23 19.0456 22.8184 19.0456 22.8184L19.1485 23.2643C18.5654 23.6759 17.8451 23.3672 17.8451 23.3672ZM18.8741 22.4411C18.3253 22.0981 17.9823 22.3725 17.9823 22.3725L17.8451 21.8923C17.8451 21.8923 18.3253 21.5836 18.8741 21.9609C19.4229 22.3039 19.5258 21.9609 19.5258 21.9609L19.7659 22.4068C19.7659 22.4068 19.4229 22.7841 18.8741 22.4411ZM19.0113 20.4518C19.0113 20.4518 18.5654 20.9662 17.9137 21.0348L18.0166 20.5547C18.0166 20.5547 18.3253 20.4861 18.5311 20.246C18.5311 20.246 16.7475 14.9296 22.0982 14.8953L23.1615 15.3412C23.1272 15.3069 17.3649 14.4494 19.0113 20.4518Z" fill="#F5C03D"/>
<path d="M148.236 14.8745V14.6282C148.581 14.5789 148.827 14.4804 148.975 14.2341C149.122 14.037 149.418 13.4458 149.861 12.4604L152.571 6.05566H152.818L156.069 13.4458C156.266 13.9384 156.463 14.2341 156.611 14.3819C156.759 14.4804 156.956 14.5789 157.252 14.6282V14.8745H153.901V14.6282C154.296 14.5789 154.542 14.5297 154.64 14.4804C154.739 14.4311 154.788 14.3326 154.788 14.1355C154.788 14.0862 154.788 13.9385 154.739 13.7907C154.69 13.6429 154.64 13.4458 154.542 13.298L154 12.017H150.601C150.256 12.8546 150.059 13.3965 150.009 13.5936C149.96 13.7906 149.911 13.9385 149.911 14.037C149.911 14.2341 150.009 14.4311 150.157 14.4804C150.256 14.5297 150.453 14.5789 150.798 14.5789V14.8253H148.236V14.8745ZM153.852 11.5243L152.325 7.92782L150.847 11.5243H153.852ZM136.362 14.6775C136.855 14.6282 137.151 14.5297 137.298 14.3326C137.446 14.1355 137.495 13.7906 137.495 13.1502V8.07563L137.348 7.87856C137.2 7.68149 137.052 7.53368 136.904 7.48442C136.806 7.43515 136.609 7.38589 136.362 7.38589V7.18881H138.333L142.767 12.756V8.86391C142.767 8.22344 142.668 7.8293 142.471 7.63223C142.324 7.48442 142.077 7.43516 141.634 7.38589V7.18881H144.344V7.38589C143.9 7.43516 143.605 7.53368 143.457 7.73075C143.309 7.87856 143.26 8.27269 143.26 8.91317V15.0223H143.063L137.939 8.66683V13.1502C137.939 13.7906 138.037 14.1848 138.234 14.3819C138.333 14.5297 138.629 14.5789 139.023 14.6282V14.8253H136.313V14.6775H136.362ZM124.538 14.8745V14.6775C124.834 14.6282 125.08 14.5297 125.228 14.3326C125.376 14.1355 125.622 13.6428 126.016 12.756L128.43 7.09028H128.677L131.534 13.6428C131.731 14.0862 131.879 14.3326 131.977 14.4311C132.076 14.5297 132.273 14.6282 132.569 14.6282V14.8253H129.613V14.6282C129.957 14.5789 130.155 14.5789 130.253 14.5297C130.352 14.4804 130.401 14.3819 130.401 14.2341C130.401 14.1848 130.401 14.0863 130.352 13.9384C130.302 13.7906 130.253 13.6428 130.204 13.495L129.711 12.3619H126.706C126.41 13.1009 126.213 13.5936 126.164 13.7414C126.115 13.8892 126.065 14.037 126.065 14.1355C126.065 14.3326 126.164 14.4804 126.312 14.5297C126.41 14.5789 126.607 14.6282 126.854 14.6282V14.8253H124.538V14.8745ZM129.563 11.9185L128.233 8.7161L126.903 11.9185H129.563ZM110.743 14.6775C111.236 14.6282 111.531 14.5297 111.679 14.3326C111.827 14.1848 111.876 13.7906 111.876 13.1502V8.46976C111.876 8.07562 111.827 7.78003 111.679 7.63223C111.531 7.48442 111.236 7.43516 110.792 7.38589V7.18881H113.059L115.719 13.0024L118.281 7.18881H120.597V7.38589C120.153 7.43516 119.907 7.48442 119.759 7.63223C119.611 7.78003 119.562 8.02635 119.562 8.42049V13.5443C119.562 13.9877 119.611 14.234 119.759 14.3326C119.907 14.4311 120.153 14.5297 120.597 14.5789V14.776H117.345V14.5789C117.788 14.5297 118.084 14.4804 118.232 14.3326C118.38 14.1848 118.38 13.8892 118.38 13.3965V8.22343L115.424 14.8253H115.276L112.369 8.51903V13.1502C112.369 13.7906 112.468 14.1848 112.665 14.3819C112.763 14.5297 113.059 14.5789 113.453 14.6282V14.8253H110.743V14.6775ZM98.9683 14.8745V14.6775C99.2639 14.6282 99.5102 14.5297 99.658 14.3326C99.8058 14.1355 100.052 13.6428 100.446 12.756L102.86 7.09028H103.107L105.964 13.6428C106.161 14.0862 106.309 14.3326 106.408 14.4311C106.506 14.5297 106.703 14.6282 106.999 14.6282V14.8253H104.043V14.6282C104.388 14.5789 104.585 14.5789 104.683 14.5297C104.782 14.4804 104.831 14.3819 104.831 14.2341C104.831 14.1848 104.831 14.0863 104.782 13.9384C104.733 13.7906 104.683 13.6428 104.634 13.495L104.141 12.3619H101.136C100.84 13.1009 100.643 13.5936 100.594 13.7414C100.545 13.8892 100.496 14.037 100.496 14.1355C100.496 14.3326 100.594 14.4804 100.742 14.5297C100.84 14.5789 101.038 14.6282 101.284 14.6282V14.8253H98.9683V14.8745ZM103.994 11.9185L102.663 8.7161L101.333 11.9185H103.994ZM87.1934 14.6775C87.6368 14.6282 87.9324 14.5297 88.0309 14.4311C88.1294 14.3326 88.1787 13.9877 88.1787 13.495V8.46976C88.1787 8.07562 88.1295 7.78002 87.9817 7.68148C87.8338 7.53368 87.5875 7.48441 87.1441 7.43515V7.23808H90.3465V7.43515C89.9031 7.48441 89.6567 7.53368 89.5089 7.68148C89.3611 7.82928 89.3118 8.07562 89.3118 8.46976V10.7361H92.8099V8.46976C92.8099 8.07562 92.7606 7.78002 92.6128 7.68148C92.465 7.53368 92.2186 7.48441 91.7752 7.43515V7.23808H94.9776V7.43515C94.5342 7.48441 94.2879 7.53368 94.1401 7.68148C93.9923 7.82928 93.943 8.07562 93.943 8.46976V13.5936C93.943 14.037 93.9923 14.2833 94.1401 14.3819C94.2879 14.4804 94.5342 14.5789 94.9776 14.6282V14.8253H91.7752V14.6282C92.2186 14.5789 92.5142 14.4804 92.6128 14.3819C92.7113 14.2833 92.7606 13.9384 92.7606 13.4458V11.1795H89.2626V13.5443C89.2626 13.9877 89.3119 14.2341 89.4597 14.3819C89.6075 14.4804 89.8538 14.5789 90.2972 14.6282V14.8253H87.0948V14.6775H87.1934ZM80.0989 7.09028C80.493 7.09028 80.9364 7.13955 81.3798 7.28735C81.8232 7.43515 82.0695 7.48442 82.1188 7.48442C82.2174 7.48442 82.3159 7.43516 82.4144 7.38589C82.5129 7.33662 82.5622 7.23808 82.6115 7.09028H82.8578L82.9564 9.70145H82.71C82.5622 9.20878 82.3652 8.76537 82.1188 8.46976C81.6261 7.87856 80.9857 7.58296 80.1974 7.58296C79.4091 7.58296 78.7194 7.87856 78.2267 8.51903C77.734 9.15951 77.4384 10.0463 77.4384 11.1795C77.4384 12.2141 77.6847 13.0516 78.2267 13.6428C78.7686 14.2341 79.4584 14.5789 80.2959 14.5789C80.8871 14.5789 81.4291 14.4311 81.971 14.1355C82.2666 13.9877 82.5622 13.7414 82.9071 13.3965L83.1042 13.5936C82.8578 13.9384 82.5129 14.1848 82.1681 14.4311C81.5276 14.8253 80.8379 15.0716 80.0496 15.0716C78.8179 15.0716 77.8325 14.6775 77.0935 13.8892C76.4038 13.1502 76.0589 12.2141 76.0589 11.1302C76.0589 9.99705 76.4038 9.06098 77.1428 8.2727C77.8818 7.48442 78.8672 7.09028 80.0989 7.09028ZM58.4212 14.8745V14.6775C58.7168 14.6282 58.9631 14.5297 59.1109 14.3326C59.2587 14.1355 59.5051 13.6428 59.8992 12.756L62.3133 7.09028H62.5597L65.4172 13.6428C65.6142 14.0862 65.762 14.3326 65.8606 14.4311C65.9591 14.5297 66.1562 14.6282 66.4518 14.6282V14.8253H63.4957V14.6282C63.8406 14.5789 64.0377 14.5789 64.1362 14.5297C64.2347 14.4804 64.284 14.3819 64.284 14.2341C64.284 14.1848 64.284 14.0863 64.2348 13.9384C64.1855 13.7906 64.1362 13.6428 64.087 13.495L63.5943 12.3619H60.589C60.2934 13.1009 60.0963 13.5936 60.047 13.7414C59.9978 13.8892 59.9485 14.037 59.9485 14.1355C59.9485 14.3326 60.047 14.4804 60.1948 14.5297C60.2934 14.5789 60.4904 14.6282 60.7368 14.6282V14.8253H58.4212V14.8745ZM63.3972 11.9185L62.067 8.7161L60.7368 11.9185H63.3972ZM46.4985 14.6282C46.9912 14.5789 47.2868 14.4804 47.4346 14.3819C47.5824 14.2833 47.6316 13.9384 47.6316 13.4458V7.63223C47.6316 7.18882 47.5824 6.84394 47.4346 6.7454C47.2868 6.5976 46.9912 6.49907 46.4985 6.49907V6.25273H50.1935V6.49907C49.7009 6.54834 49.4053 6.5976 49.2082 6.7454C49.0604 6.89321 48.9619 7.13955 48.9619 7.58296V13.8892C48.9619 14.037 48.9618 14.1355 49.0111 14.2341C49.0604 14.3326 49.1589 14.3819 49.356 14.3819C49.4545 14.3819 49.5531 14.3819 49.6516 14.4311C49.7501 14.4311 49.9472 14.4311 50.2428 14.4311C51.4252 14.4311 52.2135 14.3326 52.6076 14.1355C53.0018 13.9384 53.3959 13.4458 53.7901 12.6575H54.1349L53.4945 14.9238H46.4492V14.6282H46.4985Z" fill="white"/>
<path d="M154.229 29.1127C154.328 29.359 154.427 29.5561 154.525 29.7039C154.722 29.9502 155.018 30.098 155.313 30.098C155.461 30.098 155.609 30.0488 155.757 29.9502C155.905 29.8517 155.954 29.7039 155.954 29.5068C155.954 29.3098 155.905 29.162 155.757 29.0634C155.658 28.9649 155.51 28.8663 155.264 28.7185L154.821 28.4229C154.673 28.3244 154.574 28.2259 154.476 28.1766C154.328 28.0288 154.229 27.8317 154.229 27.6347C154.229 27.3883 154.328 27.142 154.476 26.9449C154.673 26.7478 154.87 26.6986 155.166 26.6986C155.264 26.6986 155.412 26.7479 155.609 26.7971C155.757 26.8464 155.855 26.8956 155.905 26.8956C155.954 26.8956 156.003 26.8957 156.052 26.8464C156.102 26.7971 156.102 26.7478 156.102 26.6986H156.2L156.299 27.8317H156.151C156.052 27.4869 155.905 27.2405 155.757 27.142C155.56 26.9942 155.363 26.9449 155.215 26.9449C155.067 26.9449 154.919 26.9942 154.821 27.0927C154.722 27.1913 154.673 27.2898 154.673 27.4376C154.673 27.5854 154.722 27.6839 154.821 27.7825C154.919 27.881 155.018 27.9795 155.215 28.0781L155.658 28.3737C155.954 28.5707 156.151 28.7185 156.249 28.8663C156.348 29.0141 156.446 29.2112 156.446 29.4083C156.446 29.7039 156.348 29.901 156.151 30.098C155.954 30.2951 155.658 30.3936 155.363 30.3936C155.215 30.3936 155.018 30.3444 154.87 30.2951C154.673 30.2458 154.574 30.1966 154.574 30.1966C154.525 30.1966 154.476 30.1966 154.427 30.2458C154.427 30.2951 154.377 30.3444 154.377 30.3444H154.279L154.131 29.2112H154.229V29.1127ZM150.337 30.0488C150.534 30.0488 150.682 29.9995 150.781 29.9502C150.83 29.901 150.879 29.7532 150.879 29.5561V27.2405C150.879 27.0435 150.83 26.8957 150.781 26.8464C150.731 26.7971 150.584 26.7478 150.337 26.7478V26.6493H151.914V26.7478C151.717 26.7478 151.569 26.7971 151.47 26.8464C151.421 26.8957 151.372 27.0435 151.372 27.2405V29.6054C151.372 29.8024 151.421 29.9502 151.47 29.9995C151.52 30.0488 151.668 30.098 151.914 30.098V30.1966H150.337V30.0488ZM145.805 29.1127C145.903 29.359 146.002 29.5561 146.1 29.7039C146.297 29.9502 146.593 30.098 146.889 30.098C147.036 30.098 147.184 30.0488 147.332 29.9502C147.48 29.8517 147.529 29.7039 147.529 29.5068C147.529 29.3098 147.48 29.162 147.332 29.0634C147.233 28.9649 147.086 28.8663 146.839 28.7185L146.396 28.4229C146.248 28.3244 146.15 28.2259 146.051 28.1766C145.903 28.0288 145.805 27.8317 145.805 27.6347C145.805 27.3883 145.903 27.142 146.051 26.9449C146.248 26.7478 146.445 26.6986 146.741 26.6986C146.839 26.6986 146.987 26.7479 147.184 26.7971C147.332 26.8464 147.431 26.8956 147.48 26.8956C147.529 26.8956 147.578 26.8957 147.628 26.8464C147.677 26.7971 147.677 26.7478 147.677 26.6986H147.775L147.874 27.8317H147.726C147.628 27.4869 147.48 27.2405 147.332 27.142C147.135 26.9942 146.938 26.9449 146.79 26.9449C146.642 26.9449 146.494 26.9942 146.396 27.0927C146.297 27.1913 146.248 27.2898 146.248 27.4376C146.248 27.5854 146.297 27.6839 146.396 27.7825C146.494 27.881 146.593 27.9795 146.79 28.0781L147.233 28.3737C147.529 28.5707 147.726 28.7185 147.825 28.8663C147.923 29.0141 148.022 29.2112 148.022 29.4083C148.022 29.7039 147.923 29.901 147.726 30.098C147.529 30.2951 147.233 30.3936 146.938 30.3936C146.79 30.3936 146.593 30.3444 146.445 30.2951C146.248 30.2458 146.15 30.1966 146.15 30.1966C146.1 30.1966 146.051 30.1966 146.002 30.2458C146.002 30.2951 145.953 30.3444 145.953 30.3444H145.854L145.706 29.2112H145.805V29.1127ZM139.893 30.0488C140.04 30.0488 140.139 29.9995 140.188 29.901C140.238 29.8024 140.385 29.5561 140.533 29.1619L141.617 26.5508H141.716L143.046 29.5561C143.144 29.7532 143.194 29.901 143.243 29.9502C143.292 29.9995 143.391 30.0488 143.489 30.0488V30.1473H142.159V30.0488C142.307 30.0488 142.405 29.9995 142.455 29.9995C142.504 29.9995 142.504 29.9502 142.504 29.8517C142.504 29.8024 142.504 29.8024 142.455 29.7039C142.455 29.6546 142.405 29.5561 142.405 29.5068L142.208 29.0142H140.829C140.681 29.359 140.632 29.5561 140.582 29.6546C140.533 29.7532 140.533 29.8024 140.533 29.8517C140.533 29.9502 140.582 29.9995 140.632 30.0488C140.681 30.0488 140.779 30.098 140.878 30.098V30.1966H139.893V30.0488ZM142.159 28.8171L141.568 27.3391L140.977 28.8171H142.159ZM134.276 28.4229C134.276 27.881 134.473 27.3883 134.818 27.0435C135.163 26.7479 135.557 26.5508 136.001 26.5508C136.493 26.5508 136.887 26.6986 137.183 27.0435C137.528 27.3883 137.725 27.8317 137.725 28.4229C137.725 29.0141 137.528 29.4576 137.183 29.8024C136.838 30.098 136.444 30.2458 136.001 30.2458C135.508 30.2458 135.114 30.098 134.769 29.7532C134.424 29.4083 134.276 28.9649 134.276 28.4229ZM134.867 28.4229C134.867 28.9649 134.966 29.4083 135.212 29.6546C135.409 29.901 135.705 30.0488 136.001 30.0488C136.296 30.0488 136.592 29.901 136.789 29.6546C136.986 29.4083 137.134 28.9649 137.134 28.4229C137.134 27.8317 137.035 27.4376 136.789 27.1913C136.542 26.9449 136.296 26.7971 136.001 26.7971C135.705 26.7971 135.409 26.9449 135.212 27.1913C134.966 27.4376 134.867 27.881 134.867 28.4229ZM127.527 26.6001C127.724 26.6001 127.921 26.6493 128.118 26.6986C128.315 26.7478 128.413 26.7971 128.463 26.7971C128.512 26.7971 128.561 26.7971 128.61 26.7478C128.66 26.6986 128.709 26.6986 128.709 26.6001H128.807L128.857 27.7825H128.758C128.709 27.5361 128.61 27.3391 128.463 27.1913C128.266 26.8956 127.97 26.7971 127.576 26.7971C127.182 26.7971 126.886 26.9449 126.689 27.2405C126.443 27.5361 126.344 27.9303 126.344 28.4722C126.344 28.9649 126.492 29.3097 126.738 29.6054C126.985 29.901 127.28 30.0488 127.674 30.0488C127.97 30.0488 128.216 29.9995 128.413 29.8517C128.561 29.7532 128.709 29.6546 128.857 29.5068L128.955 29.6054C128.857 29.7532 128.709 29.901 128.512 29.9995C128.216 30.1966 127.871 30.2951 127.527 30.2951C126.935 30.2951 126.492 30.098 126.147 29.7532C125.851 29.4083 125.704 29.0141 125.704 28.4722C125.704 27.9795 125.851 27.5361 126.196 27.1913C126.492 26.7971 126.935 26.6001 127.527 26.6001ZM122.009 30.0488C122.206 30.0488 122.353 29.9995 122.452 29.9502C122.501 29.901 122.551 29.7532 122.551 29.5561V27.2405C122.551 27.0435 122.501 26.8957 122.452 26.8464C122.403 26.7971 122.255 26.7478 122.009 26.7478V26.6493H123.585V26.7478C123.388 26.7478 123.24 26.7971 123.142 26.8464C123.092 26.8957 123.043 27.0435 123.043 27.2405V29.6054C123.043 29.8024 123.092 29.9502 123.142 29.9995C123.191 30.0488 123.339 30.098 123.585 30.098V30.1966H122.009V30.0488ZM116.934 26.6493H119.939L119.989 27.5361H119.841C119.792 27.2405 119.693 27.0927 119.594 26.9942C119.496 26.8957 119.299 26.8464 119.003 26.8464H118.708V29.5561C118.708 29.7532 118.757 29.901 118.806 29.9502C118.855 29.9995 119.003 30.0488 119.25 30.0488V30.1473H117.722V30.0488C117.969 30.0488 118.067 29.9995 118.166 29.9502C118.264 29.901 118.264 29.7532 118.264 29.5068V26.8464H117.969C117.673 26.8464 117.476 26.8957 117.377 26.9942C117.279 27.0927 117.18 27.2405 117.131 27.5361H116.983L116.934 26.6493ZM112.401 29.1127C112.5 29.359 112.599 29.5561 112.697 29.7039C112.894 29.9502 113.19 30.098 113.485 30.098C113.633 30.098 113.781 30.0488 113.929 29.9502C114.077 29.8517 114.126 29.7039 114.126 29.5068C114.126 29.3098 114.077 29.162 113.929 29.0634C113.83 28.9649 113.682 28.8663 113.436 28.7185L112.993 28.4229C112.845 28.3244 112.746 28.2259 112.648 28.1766C112.5 28.0288 112.401 27.8317 112.401 27.6347C112.401 27.3883 112.5 27.142 112.648 26.9449C112.845 26.7478 113.042 26.6986 113.338 26.6986C113.436 26.6986 113.584 26.7479 113.781 26.7971C113.929 26.8464 114.027 26.8956 114.077 26.8956C114.126 26.8956 114.175 26.8957 114.224 26.8464C114.274 26.7971 114.274 26.7478 114.274 26.6986H114.372L114.471 27.8317H114.323C114.224 27.4869 114.077 27.2405 113.929 27.142C113.732 26.9942 113.535 26.9449 113.387 26.9449C113.239 26.9449 113.091 26.9942 112.993 27.0927C112.894 27.1913 112.845 27.2898 112.845 27.4376C112.845 27.5854 112.894 27.6839 112.993 27.7825C113.091 27.881 113.19 27.9795 113.387 28.0781L113.83 28.3737C114.126 28.5707 114.323 28.7185 114.421 28.8663C114.52 29.0141 114.618 29.2112 114.618 29.4083C114.618 29.7039 114.52 29.901 114.323 30.098C114.126 30.2951 113.83 30.3936 113.535 30.3936C113.387 30.3936 113.19 30.3444 113.042 30.2951C112.845 30.2458 112.746 30.1966 112.746 30.1966C112.697 30.1966 112.648 30.1966 112.599 30.2458C112.599 30.2951 112.549 30.3444 112.549 30.3444H112.451L112.303 29.2112H112.401V29.1127ZM108.509 30.0488C108.706 30.0488 108.854 29.9995 108.953 29.9502C109.002 29.901 109.051 29.7532 109.051 29.5561V27.2405C109.051 27.0435 109.002 26.8957 108.953 26.8464C108.903 26.7971 108.756 26.7478 108.509 26.7478V26.6493H110.086V26.7478C109.889 26.7478 109.741 26.7971 109.642 26.8464C109.593 26.8957 109.544 27.0435 109.544 27.2405V29.6054C109.544 29.8024 109.593 29.9502 109.642 29.9995C109.692 30.0488 109.84 30.098 110.086 30.098V30.1966H108.509V30.0488ZM103.385 30.0488C103.583 30.0488 103.73 29.9995 103.78 29.9502C103.829 29.901 103.878 29.7532 103.878 29.5561V27.2405C103.878 27.0435 103.829 26.9449 103.78 26.8956C103.73 26.8464 103.583 26.7971 103.385 26.7971V26.6986H104.864V26.7971C104.666 26.7971 104.519 26.8464 104.469 26.8956C104.42 26.9449 104.371 27.0435 104.371 27.2405V29.8024C104.371 29.8517 104.371 29.901 104.42 29.9502C104.42 29.9995 104.469 29.9995 104.568 29.9995C104.617 29.9995 104.666 29.9995 104.716 29.9995C104.765 29.9995 104.864 29.9995 104.962 29.9995C105.455 29.9995 105.75 29.9502 105.898 29.901C106.046 29.8517 106.243 29.6054 106.391 29.3098H106.539L106.292 30.2458H103.435V30.0488H103.385ZM97.8183 28.4229C97.8183 27.881 98.0154 27.3883 98.3602 27.0435C98.7051 26.7479 99.0992 26.5508 99.5426 26.5508C100.035 26.5508 100.429 26.6986 100.725 27.0435C101.07 27.3883 101.267 27.8317 101.267 28.4229C101.267 29.0141 101.07 29.4576 100.725 29.8024C100.38 30.098 99.986 30.2458 99.5426 30.2458C99.05 30.2458 98.6558 30.098 98.311 29.7532C97.9661 29.4083 97.8183 28.9649 97.8183 28.4229ZM98.4095 28.4229C98.4095 28.9649 98.508 29.4083 98.7544 29.6546C98.9514 29.901 99.247 30.0488 99.5426 30.0488C99.8382 30.0488 100.134 29.901 100.331 29.6546C100.528 29.4083 100.676 28.9649 100.676 28.4229C100.676 27.8317 100.577 27.4376 100.331 27.1913C100.085 26.9449 99.8382 26.7971 99.5426 26.7971C99.247 26.7971 98.9514 26.9449 98.7544 27.1913C98.508 27.4376 98.4095 27.881 98.4095 28.4229ZM92.054 30.0488C92.2511 30.0488 92.3989 29.9995 92.4481 29.9502C92.4974 29.901 92.5467 29.7532 92.5467 29.5068V27.2405C92.5467 27.0435 92.4974 26.9449 92.4481 26.8464C92.3989 26.7971 92.2511 26.7478 92.054 26.7478V26.6493H93.532V26.7478C93.3349 26.7478 93.1871 26.7971 93.1379 26.8464C93.0886 26.8957 93.0393 27.0435 93.0393 27.2405V28.2751H94.6652V27.2405C94.6652 27.0435 94.6159 26.9449 94.5666 26.8464C94.5174 26.7971 94.3696 26.7478 94.1725 26.7478V26.6493H95.6505V26.7478C95.4535 26.7478 95.3056 26.7971 95.2564 26.8464C95.2071 26.8957 95.1579 27.0435 95.1579 27.2405V29.6054C95.1579 29.8024 95.2071 29.901 95.2564 29.9995C95.3056 30.0488 95.4535 30.098 95.6505 30.098V30.1966H94.1725V30.098C94.3696 30.098 94.5174 30.0488 94.5666 29.9995C94.6159 29.9502 94.6652 29.8024 94.6652 29.5561V28.5215H93.0393V29.6054C93.0393 29.8024 93.0886 29.901 93.1379 29.9995C93.1871 30.098 93.3349 30.098 93.532 30.098V30.1966H92.054V30.0488ZM83.1859 30.0488C83.3829 30.0488 83.4815 29.9995 83.58 29.9502C83.6293 29.901 83.6785 29.7532 83.6785 29.5561V27.2405C83.6785 27.0435 83.6293 26.9449 83.58 26.8464C83.5307 26.7971 83.3829 26.7478 83.1859 26.7478V26.6493H84.6146C85.1073 26.6493 85.5014 26.7478 85.8463 26.8956C86.4375 27.1912 86.7331 27.6839 86.7331 28.4229C86.7331 28.6693 86.6838 28.9156 86.5853 29.1619C86.4868 29.4083 86.339 29.6054 86.0926 29.7532C85.9448 29.8517 85.797 29.9502 85.6492 29.9995C85.4029 30.098 85.058 30.1473 84.6639 30.1473H83.1859V30.0488ZM84.2205 29.7532C84.2205 29.8517 84.2205 29.901 84.2697 29.901C84.319 29.9502 84.4175 29.9502 84.5161 29.9502C84.9102 29.9502 85.2551 29.8517 85.5507 29.7039C85.9449 29.4576 86.1419 29.0141 86.1419 28.4229C86.1419 27.881 85.9941 27.4869 85.6492 27.1913C85.3536 26.9449 84.9595 26.8464 84.5161 26.8464C84.4175 26.8464 84.319 26.8464 84.2697 26.8956C84.2205 26.9449 84.2205 26.9942 84.2205 27.0435V29.7532ZM78.1113 30.0488C78.3084 30.0488 78.4562 29.9995 78.5054 29.9502C78.5547 29.901 78.604 29.7532 78.604 29.5561V27.2405C78.604 27.0435 78.5547 26.9449 78.5054 26.8956C78.4562 26.8464 78.3084 26.7971 78.1113 26.7971V26.6986H80.9196V27.4376H80.7718C80.7225 27.1913 80.6732 27.0435 80.5747 26.9942C80.4762 26.9449 80.2791 26.8956 79.9835 26.8956H79.2445C79.1459 26.8956 79.0967 26.8956 79.0967 26.9449C79.0967 26.9942 79.0474 26.9942 79.0474 27.0927V28.2751H79.885C80.1313 28.2751 80.2791 28.2259 80.3283 28.1766C80.3776 28.1273 80.4269 27.9795 80.4761 27.7825H80.624V29.0142H80.4761C80.4269 28.8171 80.3776 28.6693 80.3283 28.62C80.2791 28.5707 80.1313 28.5215 79.885 28.5215H79.0474V29.8517C79.0474 29.9502 79.0967 29.9995 79.1459 30.0488C79.1952 30.0488 79.3923 30.098 79.7371 30.098C80.082 30.098 80.3776 30.0488 80.5254 29.9995C80.6732 29.901 80.8703 29.7532 80.9688 29.4083H81.1166L80.8703 30.2951H78.0128V30.0488H78.1113ZM73.0368 26.6493H76.0421L76.0914 27.5361H75.9436C75.8943 27.2405 75.7958 27.0927 75.6972 26.9942C75.5987 26.8957 75.4016 26.8464 75.106 26.8464H74.8104V29.5561C74.8104 29.7532 74.8597 29.901 74.9089 29.9502C74.9582 29.9995 75.106 30.0488 75.3524 30.0488V30.1473H73.7758V30.0488C74.0221 30.0488 74.1207 29.9995 74.2192 29.9502C74.3177 29.901 74.3177 29.7532 74.3177 29.5068V26.8464H74.0221C73.7265 26.8464 73.5294 26.8957 73.4309 26.9942C73.3324 27.0927 73.2338 27.2405 73.1846 27.5361H73.0368V26.6493ZM67.913 30.0488C68.0608 30.0488 68.1593 29.9995 68.2086 29.901C68.2578 29.8024 68.4057 29.5561 68.5535 29.1619L69.6373 26.5508H69.7359L71.0661 29.5561C71.1646 29.7532 71.2139 29.901 71.2632 29.9502C71.3124 29.9995 71.411 30.0488 71.5095 30.0488V30.1473H70.1793V30.0488C70.3271 30.0488 70.4256 29.9995 70.4749 29.9995C70.5241 29.9995 70.5242 29.9502 70.5242 29.8517C70.5242 29.8024 70.5241 29.8024 70.4749 29.7039C70.4749 29.6546 70.4256 29.5561 70.4256 29.5068L70.2285 29.0142H68.849C68.7012 29.359 68.652 29.5561 68.6027 29.6546C68.5534 29.7532 68.5535 29.8024 68.5535 29.8517C68.5535 29.9502 68.6027 29.9995 68.652 30.0488C68.7012 30.0488 68.7998 30.098 68.8983 30.098V30.1966H67.913V30.0488ZM70.2285 28.8171L69.6373 27.3391L69.0461 28.8171H70.2285ZM64.3657 26.7478C64.2179 26.7478 64.1194 26.7479 64.0701 26.7971C63.9716 26.8464 63.9223 26.8956 63.9223 26.9449C63.9223 26.9942 63.9223 27.0434 63.9716 27.142C64.0208 27.2405 64.0701 27.3391 64.1194 27.5361L64.9569 29.359L65.6959 27.3391C65.7452 27.2405 65.7452 27.1913 65.7945 27.0927C65.7945 27.0435 65.8437 26.9942 65.8437 26.9449C65.8437 26.8464 65.7945 26.7971 65.6959 26.7478C65.6467 26.7478 65.5481 26.6986 65.4496 26.6986V26.6001H66.5335V26.6986C66.4349 26.6986 66.3364 26.7479 66.2871 26.7971C66.1886 26.8464 66.1393 26.9942 66.0408 27.1913L64.8584 30.1473H64.7599L63.4296 27.2405C63.3311 26.9942 63.2326 26.8464 63.1833 26.7971C63.134 26.7479 63.0355 26.6986 62.8877 26.6986V26.6001H64.3657V26.7478ZM57.8132 30.0488C58.0102 30.0488 58.158 29.9995 58.2073 29.9502C58.2566 29.901 58.3058 29.7532 58.3058 29.5561V27.2405C58.3058 27.0435 58.2566 26.9449 58.2073 26.8956C58.158 26.8464 58.0102 26.7971 57.8132 26.7971V26.6986H60.6214V27.4376H60.4736C60.4243 27.1913 60.3751 27.0435 60.2765 26.9942C60.178 26.9449 59.9809 26.8956 59.6853 26.8956H58.9956C58.897 26.8956 58.8478 26.8956 58.8478 26.9449C58.8478 26.9942 58.7985 26.9942 58.7985 27.0927V28.2751H59.636C59.8824 28.2751 60.0302 28.2259 60.0795 28.1766C60.1287 28.1273 60.178 27.9795 60.2273 27.7825H60.375V29.0142H60.2273C60.178 28.8171 60.1287 28.6693 60.0795 28.62C60.0302 28.5707 59.8824 28.5215 59.636 28.5215H58.7985V29.8517C58.7985 29.9502 58.8478 29.9995 58.897 30.0488C58.9463 30.0488 59.1434 30.098 59.4882 30.098C59.8331 30.098 60.1287 30.0488 60.2765 29.9995C60.4243 29.901 60.6214 29.7532 60.7199 29.4083H60.8677L60.6214 30.2951H57.7639V30.0488H57.8132ZM52.7386 30.0488C52.9357 30.0488 53.0835 29.9995 53.1327 29.9502C53.182 29.901 53.2313 29.7532 53.2313 29.5561V27.2405C53.2313 27.0435 53.182 26.9449 53.1327 26.8956C53.0835 26.8464 52.9357 26.7971 52.7386 26.7971V26.6986H54.2166V26.7971C54.0196 26.7971 53.8718 26.8464 53.8225 26.8956C53.7732 26.9449 53.7239 27.0435 53.7239 27.2405V29.8024C53.7239 29.8517 53.724 29.901 53.7732 29.9502C53.7732 29.9995 53.8225 29.9995 53.921 29.9995C53.9703 29.9995 54.0196 29.9995 54.0688 29.9995C54.1181 29.9995 54.2166 29.9995 54.3152 29.9995C54.8078 29.9995 55.1034 29.9502 55.2512 29.901C55.399 29.8024 55.5961 29.6054 55.7439 29.3098H55.8917L55.6454 30.2458H52.7879V30.0488H52.7386ZM47.6641 30.0488C47.8611 30.0488 48.0089 29.9995 48.0582 29.9502C48.1075 29.901 48.1567 29.7532 48.1567 29.5561V27.2405C48.1567 27.0435 48.1075 26.9449 48.0582 26.8956C48.0089 26.8464 47.8611 26.7971 47.6641 26.7971V26.6986H50.4723V27.4376H50.3245C50.2752 27.1913 50.226 27.0435 50.1274 26.9942C50.0289 26.9449 49.8318 26.8956 49.5362 26.8956H48.7972C48.6987 26.8956 48.6494 26.8956 48.6494 26.9449C48.6494 26.9942 48.6001 26.9942 48.6001 27.0927V28.2751H49.4377C49.684 28.2751 49.8318 28.2259 49.8811 28.1766C49.9304 28.1273 49.9796 27.9795 50.0289 27.7825H50.1767V29.0142H50.0289C49.9796 28.8171 49.9304 28.6693 49.8811 28.62C49.8318 28.5707 49.684 28.5215 49.4377 28.5215H48.6494V29.8517C48.6494 29.9502 48.6987 29.9995 48.748 30.0488C48.7972 30.0488 48.9943 30.098 49.3392 30.098C49.684 30.098 49.9796 30.0488 50.1274 29.9995C50.2752 29.901 50.4723 29.7532 50.5708 29.4083H50.7186L50.4723 30.2951H47.6641V30.0488Z" fill="white"/>
<path d="M103.364 21.2301C102.724 21.4764 102.231 21.9691 101.985 22.6095C101.739 21.9691 101.246 21.4764 100.605 21.2301C101.246 20.9837 101.739 20.4911 101.985 19.8506C102.182 20.4911 102.724 20.9837 103.364 21.2301Z" fill="#F5C03D"/>
<path d="M108.538 20.8359H156.918C156.967 20.8359 156.967 20.8852 156.967 20.8852V21.0823C156.967 21.1315 156.918 21.1315 156.918 21.1315H108.538C108.488 21.1315 108.488 21.0823 108.488 21.0823V20.8852C108.488 20.8852 108.488 20.8359 108.538 20.8359Z" fill="#F5C03D"/>
<path d="M46.9536 20.8359H95.3342C95.3834 20.8359 95.3834 20.8852 95.3834 20.8852V21.0823C95.3834 21.1315 95.3342 21.1315 95.3342 21.1315H46.9536C46.9043 21.1315 46.9043 21.0823 46.9043 21.0823V20.8852C46.9043 20.8852 46.9043 20.8359 46.9536 20.8359Z" fill="#F5C03D"/>
</g>
<defs>
<clipPath id="clip0_71_205">
<rect width="157.252" height="36.45" fill="white"/>
</clipPath>
</defs>
</svg>
