<svg width="51" height="50" viewBox="0 0 51 50" fill="none" xmlns="http://www.w3.org/2000/svg">
<path d="M43.7195 43.2701C43.6048 43.3848 43.4519 43.4612 43.2608 43.4612H12.4916C12.1476 43.4612 11.8418 43.1555 11.8418 42.8115V12.0804C11.8418 11.7364 12.1476 11.4307 12.4916 11.4307H30.6473C30.9914 11.4307 31.2971 11.7364 31.2971 12.0804C31.2971 12.4245 30.9914 12.7302 30.6473 12.7302H13.1414V42.1617H42.6493V12.7302H38.9034C38.5594 12.7302 38.2536 12.4245 38.2536 12.0804C38.2536 11.7364 38.5594 11.4307 38.9034 11.4307H43.299C43.4519 11.4307 43.643 11.5071 43.7577 11.6218C43.8724 11.7364 43.9488 11.8893 43.9488 12.0804V42.8115C43.9106 43.0026 43.8341 43.1555 43.7195 43.2701Z" fill="#010101"/>
<path d="M38.789 38.3775C38.6743 38.4922 38.5214 38.5687 38.3303 38.5687H15.6643C15.3203 38.5687 15.0145 38.2629 15.0145 37.9189C15.0145 37.5749 15.3203 37.2691 15.6643 37.2691H37.6805V7.83766H8.1726V37.2691H11.8802C12.2242 37.2691 12.53 37.5749 12.53 37.9189C12.53 38.2629 12.2242 38.5687 11.8802 38.5687H7.52284C7.17883 38.5687 6.87305 38.2629 6.87305 37.9189V7.18787C6.87305 6.84387 7.17883 6.53809 7.52284 6.53809H38.2921C38.445 6.53809 38.6361 6.61453 38.7507 6.7292C38.8654 6.84387 38.9418 6.99676 38.9418 7.18787V37.9189C38.9801 38.0718 38.9419 38.2629 38.789 38.3775Z" fill="#010101"/>
<path d="M27.0533 26.6431C26.6328 27.0636 26.0595 27.3311 25.4097 27.3311C24.1102 27.3311 23.0781 26.2991 23.0781 24.9996C23.0781 23.7382 24.1102 22.668 25.4097 22.668C26.6711 22.668 27.7413 23.7 27.7413 24.9996C27.7413 25.6493 27.4737 26.2227 27.0533 26.6431ZM24.6835 24.2733C24.4924 24.4644 24.3777 24.732 24.3777 24.9996C24.3777 25.5729 24.8364 26.0316 25.4097 26.0316C25.9831 26.0316 26.4417 25.5729 26.4417 24.9996C26.4417 24.4262 25.9831 23.9675 25.4097 23.9675C25.1422 23.9675 24.8746 24.0822 24.6835 24.2733Z" fill="#010101"/>
</svg>
