<svg width="33" height="33" viewBox="0 0 33 33" fill="none" xmlns="http://www.w3.org/2000/svg">
<rect x="0.25" y="0.25" width="32.5" height="32.5" rx="16.25" fill="white"/>
<path d="M22.9996 16.4998C22.9996 16.3369 22.8975 16.2004 22.7524 16.1263L22.7552 16.1219L13.3479 11.3804L13.3385 11.3847C13.2619 11.3353 13.1735 11.2998 13.0723 11.2998C12.8114 11.2998 12.5996 11.4939 12.5996 11.7331C12.5996 11.7336 12.6001 11.734 12.6001 11.7349L12.5996 16.4998V21.2647C12.5996 21.2656 12.5996 21.266 12.5996 21.2665C12.5996 21.5057 12.8114 21.6998 13.0723 21.6998C13.1735 21.6998 13.2619 21.6643 13.339 21.6149L13.3479 21.6192L22.7552 16.8777L22.7524 16.8733C22.8975 16.7992 22.9996 16.6627 22.9996 16.4998Z" fill="#0F1301"/>
</svg>
