<svg width="51" height="50" viewBox="0 0 51 50" fill="none" xmlns="http://www.w3.org/2000/svg">
<path d="M42.2916 24.385C40.9455 24.385 39.8301 23.2696 39.8301 21.9235C39.8301 20.5773 40.9455 19.4619 42.2916 19.4619C43.6378 19.4619 44.7532 20.5773 44.7532 21.9235C44.7532 23.2696 43.6378 24.385 42.2916 24.385ZM42.2916 20.6158C41.5608 20.6158 40.9839 21.1927 40.9839 21.9235C40.9839 22.6542 41.5608 23.2311 42.2916 23.2311C43.0224 23.2311 43.5993 22.6542 43.5993 21.9235C43.5993 21.1927 42.9839 20.6158 42.2916 20.6158Z" fill="#010101"/>
<path d="M25.6385 3.07715C25.5616 3.07715 25.5232 3.07715 25.4462 3.11561C25.4462 3.11561 17.6001 6.23099 17.6001 15.7695C17.6001 15.9233 17.6001 16.0772 17.6001 16.1925C17.4462 16.1541 17.3308 16.0772 17.177 16.0387C16.0616 15.6541 14.9847 15.4618 13.9462 15.3464C6.83084 14.6541 2.71546 19.6156 2.71546 19.6156C2.63854 19.731 2.56161 19.8848 2.60007 20.0002C2.60007 20.0002 3.13854 28.4233 12.177 31.3848C12.3308 31.4233 12.4462 31.4618 12.6001 31.5002C12.5232 31.6156 12.4078 31.731 12.3308 31.8464C6.71546 39.5387 11.2539 46.6925 11.2539 46.6925C11.3308 46.8079 11.4462 46.8848 11.6001 46.9233C11.6001 46.9233 19.7924 49.0387 25.3693 41.3079C25.4462 41.1925 25.5232 41.0771 25.6001 40.9618C25.677 41.0771 25.7539 41.1925 25.8308 41.3079C31.4462 49.0002 39.6001 46.9233 39.6001 46.9233C39.7539 46.8848 39.8693 46.8079 39.9462 46.6925C39.9462 46.6925 44.4847 39.5771 38.8693 31.8464C38.7924 31.731 38.677 31.6156 38.6001 31.5002C38.7539 31.4618 38.8693 31.4233 39.0231 31.3848C48.1001 28.4233 48.6001 20.0002 48.6001 20.0002C48.6001 19.8464 48.5616 19.731 48.4847 19.6156C48.4847 19.6156 44.3693 14.6156 37.2539 15.3464C36.2539 15.4618 35.177 15.6541 34.0231 16.0387C33.8693 16.0772 33.7539 16.1541 33.6001 16.1925C33.6001 16.0387 33.6001 15.8848 33.6001 15.7695C33.6001 6.23099 25.7539 3.11561 25.7539 3.11561C25.7924 3.11561 25.7155 3.07715 25.6385 3.07715ZM22.2155 19.2695C21.2924 18.2695 20.177 17.3848 18.7924 16.6925C18.7539 16.3848 18.7539 16.0771 18.7539 15.731C18.7539 7.23099 25.0616 4.50023 25.677 4.26946C26.2924 4.50023 32.6001 7.23099 32.6001 15.731C32.6001 16.3848 32.5232 17.0387 32.4078 17.6541C31.7155 21.3464 29.1385 24.0002 27.2924 25.4233C26.2155 26.1925 25.9847 26.1925 25.9847 26.1925C25.9847 26.1925 25.9078 25.8464 25.8308 25.6156C25.7924 25.5002 25.7539 25.3848 25.7155 25.231C25.677 25.1541 25.6385 25.0387 25.6385 24.9618C25.2155 23.7695 24.5232 22.1925 23.3693 20.6156C23.2155 20.3848 23.0232 20.1925 22.8693 19.9618M24.9462 26.6156C24.7924 26.6156 24.4847 26.6541 24.2924 26.6541C24.2539 26.6541 24.2155 26.6541 24.177 26.6541C22.9078 26.6156 20.8308 26.731 18.6385 27.4618C18.4462 27.5387 18.2924 27.5771 18.1001 27.6541C18.0232 27.6925 17.9462 27.731 17.8308 27.731L16.9847 28.1156C15.7539 28.6925 14.5616 29.5002 13.4847 30.5771C13.177 30.5002 12.8693 30.4233 12.5616 30.3464C4.48469 27.731 3.83085 20.8848 3.79238 20.231C4.10008 19.8464 6.60008 17.0002 11.177 16.5387C11.6001 16.5002 12.0232 16.4618 12.4462 16.4618C13.7539 16.4618 15.2155 16.6541 16.7924 17.1925C17.4462 17.3848 18.0232 17.6541 18.5616 17.9618C21.8693 19.7695 23.5616 23.0002 24.3693 25.1925M26.5616 27.3848C26.7539 27.2695 27.0616 27.0771 27.2924 26.9233C27.3693 26.8848 27.4462 26.8079 27.5232 26.7695C27.6385 26.6925 27.7539 26.6156 27.8693 26.5002C28.8693 25.731 30.177 24.5771 31.2924 23.0387C31.4462 22.8079 31.6001 22.5772 31.7539 22.3464L32.2539 21.5387C32.9078 20.3464 33.4078 19.0002 33.6385 17.5002C33.9462 17.3848 34.2155 17.2695 34.5232 17.1541C36.1001 16.6541 37.5616 16.4233 38.8693 16.4233C39.2924 16.4233 39.7155 16.4618 40.1385 16.5002C44.7539 17.0002 47.2155 19.8464 47.5232 20.1925C47.4847 20.8464 46.8308 27.6925 38.7539 30.3079C38.1001 30.5002 37.4847 30.6541 36.8693 30.731C33.1385 31.1925 29.8693 29.5772 27.9078 28.3079L26.5616 27.3848ZM24.7924 27.8079C24.7155 28.0002 24.6385 28.3079 24.5616 28.5387C24.5232 28.6156 24.4847 28.731 24.4847 28.8464C24.4462 28.9618 24.4078 29.0771 24.3693 29.1925C23.9847 30.4233 23.6385 32.0771 23.6385 34.0002C23.6385 34.2695 23.6001 36.6156 24.9847 39.8464C24.8308 40.1156 24.677 40.3848 24.4847 40.6541C19.4847 47.5387 12.7924 46.0002 12.1385 45.8464C11.7924 45.3079 8.29238 39.3848 13.2924 32.5002C13.677 31.9618 14.1001 31.5002 14.5232 31.0771C14.5616 31.0387 14.6001 31.0387 14.6001 31.0002C14.7924 30.8464 14.9847 30.6541 15.177 30.5002C15.2155 30.4618 15.2539 30.4233 15.2924 30.4233C15.4847 30.2695 15.677 30.1156 15.8693 30.0002C16.1385 29.8079 16.4462 29.6156 16.7155 29.4618C17.0232 29.3079 17.2924 29.1541 17.6001 29.0387C17.677 29.0002 17.7539 28.9618 17.7924 28.9618C18.0232 28.8464 18.2539 28.7695 18.4847 28.6925C18.5616 28.6541 18.6385 28.6541 18.7155 28.6156C18.9847 28.5387 19.2539 28.4233 19.5232 28.3464C19.5616 28.3464 19.5616 28.3464 19.6001 28.3464C20.2155 28.1925 20.8308 28.0387 21.4078 27.9618C21.4078 27.9618 21.4078 27.9618 21.4462 27.9618C21.677 27.9233 21.9078 27.8848 22.1001 27.8848C22.4462 27.8464 22.7539 27.8079 23.0616 27.8079C23.1385 27.8079 23.177 27.8079 23.2539 27.8079M33.1385 31.7695C34.4462 32.0387 35.9078 32.0771 37.4078 31.8464C37.6001 32.0771 37.8308 32.3079 38.0231 32.5772C43.0231 39.4618 39.5231 45.3464 39.177 45.9233C38.5616 46.0771 31.8308 47.5771 26.8308 40.731C26.4462 40.1925 26.1001 39.6156 25.8308 39.0387C24.2155 35.6541 24.7539 32.0387 25.4078 29.7695L25.7924 28.231C25.9462 28.3464 26.2924 28.6156 26.4847 28.7695C26.5616 28.8464 26.677 28.8848 26.7539 28.9618C26.8308 29.0387 26.9462 29.0771 27.0232 29.1541C28.0616 29.8848 29.5616 30.731 31.3693 31.3464C31.6385 31.4233 31.9078 31.5002 32.177 31.5772" fill="#010101"/>
</svg>
