<svg width="50" height="50" viewBox="0 0 50 50" fill="none" xmlns="http://www.w3.org/2000/svg">
<path d="M11.123 11.973C16.6956 4.6408 27.144 3.21102 34.4762 8.78352C41.8085 14.356 43.2383 24.8045 37.6658 32.1367" stroke="#010101" stroke-width="1.15385" stroke-miterlimit="10"/>
<path d="M44.3015 44.6376H5.66061C4.45079 44.6376 3.46094 43.6478 3.46094 42.438C3.46094 41.2281 4.45079 40.2383 5.66061 40.2383H44.3382C45.548 40.2383 46.5379 41.2281 46.5379 42.438C46.5379 43.6478 45.548 44.6376 44.3015 44.6376Z" stroke="#010101" stroke-width="1.15385" stroke-miterlimit="10"/>
<path d="M40.9285 37.1225L32.973 25.1709H17.0253L9.0332 37.1225" stroke="#010101" stroke-width="1.15385" stroke-miterlimit="10"/>
<path d="M41.6623 40.1656H8.30059C7.42072 40.1656 6.6875 39.4324 6.6875 38.5525C6.6875 37.6727 7.42072 36.9395 8.30059 36.9395H41.6623C42.5422 36.9395 43.2754 37.6727 43.2754 38.5525C43.2754 39.4691 42.5422 40.1656 41.6623 40.1656Z" stroke="#010101" stroke-width="1.15385" stroke-miterlimit="10"/>
<path d="M11.5999 12.2663C11.4166 12.523 11.0866 12.5596 10.83 12.3763C10.5734 12.193 10.5367 11.8631 10.72 11.6064" fill="#010101"/>
</svg>
