<svg width="50" height="50" viewBox="0 0 50 50" fill="none" xmlns="http://www.w3.org/2000/svg">
<path d="M24.9674 32.2984C24.8905 32.2984 24.852 32.2984 24.7751 32.2599L5.39047 25.9138C5.15971 25.8368 5.00586 25.6061 5.00586 25.3753V12.683C5.00586 12.4522 5.15971 12.2215 5.39047 12.1445L24.7751 5.79838C24.8905 5.75992 25.0059 5.75992 25.1213 5.79838L44.5059 12.1445C44.7366 12.2215 44.8905 12.4522 44.8905 12.683V16.5291C44.8905 16.8368 44.6212 17.1061 44.3136 17.1061C44.0059 17.1061 43.7366 16.8368 43.7366 16.5291V13.0676L24.9289 6.91376L6.12124 13.0676V24.9522L24.9289 31.1061L44.1597 24.8368C44.4674 24.7215 44.7751 24.9138 44.8905 25.2215C45.0059 25.5291 44.8136 25.8368 44.5059 25.9522L25.1213 32.2984C25.0828 32.2984 25.0059 32.2984 24.9674 32.2984Z" fill="#010101"/>
<path d="M24.9665 44.7209C24.8895 44.7209 24.8511 44.7209 24.7742 44.6825L5.38954 38.3363C5.15877 38.2594 4.96646 38.0286 5.00493 37.7594C5.00493 37.4902 5.19724 37.2978 5.46647 37.2209L14.5818 35.144C14.8895 35.0671 15.1972 35.2594 15.2742 35.5671C15.3511 35.8748 15.1588 36.1825 14.8511 36.2594L7.77416 37.8748L24.9665 43.5286L43.7742 37.3748V25.3748C43.7742 25.0671 44.0434 24.7979 44.3511 24.7979C44.6588 24.7979 44.928 25.0671 44.928 25.3748V37.7978C44.928 38.0286 44.7742 38.2594 44.5434 38.3363L25.1588 44.6825C25.0818 44.7209 25.0049 44.7209 24.9665 44.7209Z" fill="#010101"/>
<path d="M24.9656 44.7214C24.6579 44.7214 24.3887 44.4521 24.3887 44.1445V13.0291C24.3887 12.7214 24.6579 12.4521 24.9656 12.4521C25.2733 12.4521 25.5425 12.7214 25.5425 13.0291V44.1445C25.5425 44.4521 25.2733 44.7214 24.9656 44.7214Z" fill="#010101"/>
<path d="M44.505 22.9523C43.2357 22.9523 42.1973 21.9138 42.1973 20.6446C42.1973 19.3754 43.2357 18.3369 44.505 18.3369C45.7742 18.3369 46.8127 19.3754 46.8127 20.6446C46.8127 21.9138 45.7742 22.9523 44.505 22.9523ZM44.505 19.4908C43.8511 19.4908 43.3511 19.9908 43.3511 20.6446C43.3511 21.2985 43.8511 21.7985 44.505 21.7985C45.1588 21.7985 45.6588 21.2985 45.6588 20.6446C45.6588 19.9908 45.1588 19.4908 44.505 19.4908Z" fill="#010101"/>
</svg>
