<svg width="65" height="65" viewBox="0 0 65 65" fill="none" xmlns="http://www.w3.org/2000/svg">
<path d="M57.7272 26.2882C57.7271 25.2415 56.8782 24.393 55.8315 24.393C54.7848 24.3931 53.9364 25.2415 53.9363 26.2882C53.9363 27.3349 54.7848 28.1837 55.8315 28.1838C56.8783 28.1838 57.7272 27.3349 57.7272 26.2882ZM58.9579 26.2882C58.9579 28.0147 57.558 29.4146 55.8315 29.4146C54.105 29.4145 52.7055 28.0146 52.7055 26.2882C52.7056 24.5618 54.1051 23.1623 55.8315 23.1622C57.5579 23.1622 58.9578 24.5617 58.9579 26.2882Z" fill="#F5C03D"/>
<path d="M55.2165 20.2332V16.8851L31.265 8.86921L7.26552 16.8851V32.1904L31.2655 39.9183L55.6429 32.0533C55.8301 31.993 56.0349 32.026 56.1939 32.1418C56.3529 32.2576 56.4472 32.4423 56.4472 32.6389V48.4423C56.4472 48.7093 56.2749 48.9458 56.0208 49.0279L31.4545 56.9538C31.3318 56.9934 31.1998 56.9938 31.0771 56.9543L6.46167 49.0279C6.19812 48.943 6.02346 48.6925 6.03523 48.4159C6.04708 48.1393 6.2424 47.9045 6.51215 47.8423L17.8352 45.2332C18.1663 45.157 18.4964 45.3636 18.5727 45.6947C18.649 46.0259 18.4424 46.3564 18.1112 46.4327L8.96359 48.5404L31.265 55.7216L55.2165 47.9942V33.4841L31.4545 41.1509C31.3318 41.1905 31.1998 41.1904 31.0771 41.1509L6.46167 33.225C6.20733 33.1431 6.03475 32.9061 6.03475 32.6389V16.4423L6.03667 16.3928C6.05625 16.1486 6.22006 15.9372 6.45542 15.8586L31.0708 7.637L31.1184 7.62306C31.2312 7.59529 31.3499 7.59995 31.4607 7.637L56.0271 15.8586C56.2779 15.9426 56.4472 16.1777 56.4472 16.4423V20.2332C56.4471 20.5729 56.1716 20.8484 55.8319 20.8485C55.4921 20.8485 55.2166 20.5729 55.2165 20.2332Z" fill="#F5C03D"/>
<path d="M30.6501 56.3683V16.7376C30.6501 16.3977 30.9257 16.1222 31.2655 16.1222C31.6054 16.1222 31.8809 16.3977 31.8809 16.7376V56.3683C31.8809 56.7082 31.6054 56.9837 31.2655 56.9837C30.9257 56.9837 30.6501 56.7082 30.6501 56.3683Z" fill="#F5C03D"/>
</svg>
