<svg width="51" height="50" viewBox="0 0 51 50" fill="none" xmlns="http://www.w3.org/2000/svg">
<path d="M26.8446 38.6197C19.3327 38.6197 12.9766 32.408 12.9766 25.0768C12.9766 24.7517 13.2294 24.535 13.5183 24.535H23.7748C24.0999 24.535 24.3165 24.7878 24.3165 25.0768C24.3165 25.4018 24.0637 25.6185 23.7748 25.6185H14.1322C14.4573 32.1191 20.1273 37.464 26.8446 37.464C35.0426 37.464 46.0214 27.1714 48.1883 25.0406C46.0575 22.8377 35.1148 12.0755 25.6167 12.7617C25.3277 12.7617 25.0388 12.545 25.0388 12.2561C25.0027 11.9311 25.2555 11.6783 25.5444 11.6783C30.2032 11.3532 35.6565 13.4479 41.7238 17.9261C46.202 21.2125 49.3801 24.6795 49.4162 24.7156C49.6329 24.9323 49.5967 25.2573 49.4162 25.474C49.3801 25.5101 46.1659 28.7966 41.8321 32.0108C35.9093 36.4167 30.8894 38.6197 26.8446 38.6197Z" fill="#010101" stroke="black" stroke-width="0.0961538" stroke-miterlimit="10"/>
<path d="M23.7744 38.6202C19.4046 38.6202 14.2763 36.4172 8.53409 32.0112C4.27257 28.7609 1.27506 25.4745 1.23895 25.4745C1.05837 25.2578 1.05837 24.9327 1.23895 24.7161C1.27506 24.6799 4.30869 21.213 8.53409 17.8904C14.2763 13.3761 19.4407 11.2453 23.8105 11.5704C30.7445 12.076 37.9314 17.2765 37.9314 25.1133C37.9675 32.4446 31.4668 38.6202 23.7744 38.6202ZM2.39462 25.0772C4.41703 27.1719 14.8541 37.5006 23.7744 37.5006C30.8529 37.5006 36.8479 31.8306 36.8479 25.0772C36.8479 17.8904 30.2028 13.1233 23.7383 12.6538C14.8541 12.0399 4.41703 22.9103 2.39462 25.0772Z" fill="#010101" stroke="black" stroke-width="0.0961538" stroke-miterlimit="10"/>
</svg>
