<svg width="16" height="17" viewBox="0 0 16 17" fill="none" xmlns="http://www.w3.org/2000/svg">
<g clip-path="url(#clip0_83_399)">
<path d="M12.7448 3.25036C11.6501 2.54322 10.9932 1.33875 10.9893 0.0449219H8.22129L8.21738 11.0716C8.16656 12.346 7.08749 13.3407 5.80513 13.2941C4.52277 13.2474 3.5219 12.1673 3.56881 10.8929C3.61573 9.64958 4.64397 8.67047 5.89505 8.67047C6.12963 8.67047 6.3603 8.70544 6.58315 8.77926V5.97013C6.35639 5.93905 6.12572 5.9235 5.89505 5.91962C3.08793 5.91962 0.800781 8.19257 0.800781 10.9823C0.800781 13.7797 3.08011 16.0449 5.89505 16.0449C8.71 16.0449 10.9893 13.7797 10.9893 10.9823V5.39121C12.1114 6.1916 13.4602 6.62287 14.8403 6.62287V3.87202C14.0975 3.87202 13.3703 3.65833 12.7448 3.25036Z" fill="#F5C03D"/>
</g>
<defs>
<clipPath id="clip0_83_399">
<rect width="16" height="16" fill="white" transform="translate(0 0.224609)"/>
</clipPath>
</defs>
</svg>
